<svg width="1000" height="1000" viewBox="0 0 1000 1000" fill="none" xmlns="http://www.w3.org/2000/svg">
<g clip-path="url(#clip0_4_132)">
<rect width="1000" height="1000" rx="500" fill="white"/>
<path d="M1000 0H0V1000H1000V0Z" fill="white"/>
<path d="M393.29 490.276C415.929 353.573 531.391 360.751 531.589 360.753C552.302 361.1 573.362 366.721 586.168 374.445C648.747 412.476 644.971 476.592 644.961 476.757H590.729C590.723 476.604 588.198 415.686 523.518 413.934L489.816 572.579C489.996 572.649 549.716 595.819 580.556 526.254H633.909C633.897 526.334 624.394 588.574 567.74 616.28C552.649 623.657 540.19 629.27 510.876 631.198C408.845 629.271 395.257 529.096 395.229 528.887C390.658 508.174 393.116 496.766 393.29 490.276ZM283.785 625.229H149.344L254.297 467.809L283.785 625.229ZM412.246 625.229H312.037L276.763 433.76L355.208 316L412.246 625.229ZM840.124 427.974H749.385L738.854 477.287H829.941L819.411 526.602H728.324L717.969 575.915H809.055L798.525 625.056H615.127L667.43 378.303H850.654L840.124 427.974Z" fill="#DD0000"/>
</g>
<rect x="5" y="5" width="990" height="990" rx="495" stroke="#666666" stroke-width="10"/>
<defs>
<clipPath id="clip0_4_132">
<rect width="1000" height="1000" rx="500" fill="white"/>
</clipPath>
</defs>
</svg>
