<svg width="1000" height="1000" viewBox="0 0 1000 1000" fill="none" xmlns="http://www.w3.org/2000/svg">
<rect x="5" y="5" width="990" height="990" rx="495" fill="white"/>
<rect x="5" y="5" width="990" height="990" rx="495" stroke="#666666" stroke-width="10"/>
<mask id="mask0_4_525" style="mask-type:luminance" maskUnits="userSpaceOnUse" x="123" y="194" width="783" height="776">
<path d="M123.418 969.178H905.997V194.35H123.418V969.178Z" fill="white"/>
</mask>
<g mask="url(#mask0_4_525)">
<path d="M579.913 195.6C582.575 196.641 580.998 199.31 579.944 200.387C491.418 304.855 404.46 406.645 319.665 511.095C303.38 537.291 303.684 575.081 320.916 601.008C323.061 604.723 326.796 607.347 327.377 611.589C277.39 613.592 230.581 612.903 182.708 611.683C157 589.538 147.108 549.713 160.145 516.594C163.822 510.192 166.418 502.723 171.163 496.84C254.948 397.727 340.807 292.741 426.719 195.215C475.642 192.703 528.318 196.543 579.913 195.6Z" fill="#2151A8"/>
</g>
<mask id="mask1_4_525" style="mask-type:luminance" maskUnits="userSpaceOnUse" x="123" y="157" width="783" height="813">
<path d="M123.418 969.178H905.997V157.65H123.418V969.178Z" fill="white"/>
</mask>
<g mask="url(#mask1_4_525)">
<path d="M599.08 199.701C682.321 300.155 766.633 402.719 848.815 504.245C866.038 530.704 864.743 569.027 849.534 596.295C843.208 602.727 838.494 612.343 829.469 613.997L688.526 614.05L687.981 611.927C709.047 586.228 714.051 546.278 699.982 516.051C680.073 485.873 654.857 460.008 632.826 431.44L519.508 292.927L520.004 287.603L595.354 199.201L599.08 199.701Z" fill="#0492D2"/>
<path d="M553.138 443.246C545.396 472.574 520.045 495.663 508.022 521.84C488.551 480.482 445.705 443.035 467.106 392.321C478.096 369.349 494.945 348.46 509.675 327.602C531.764 362.532 568.2 398.432 553.138 443.246Z" fill="#2151A8"/>
<path d="M467.329 487.027C487.118 500.183 500.061 522.963 508.197 544.719C516.516 520.173 531.765 496.633 555.592 483.156C582.551 463.764 621.439 470.921 655.479 470.639C662.65 502.521 648.55 537.2 619.978 555.005C597.268 574.352 561.538 563.453 534.508 574.839C520.189 580.802 512.87 596.832 506.584 608.052C501.634 587.342 483.427 572.05 462.124 569.028C422.807 573.069 385.975 557.392 368.143 521.863C360.048 506.508 358.832 487.894 360.834 470.318L362.402 469.24C398.047 469.495 438.423 464.39 467.329 487.027Z" fill="#2151A8"/>
<path d="M544.955 650.141C546.542 655.134 543.888 660.543 545.465 665.925C549.146 669.161 556.617 664.673 558.395 670.44C558.426 674.092 559.029 677.945 557.135 681.034C553.31 684.726 546.935 681.311 543.512 685.96C542.471 701.168 542.19 714.077 543.276 728.883C544.477 735.23 559.896 738.574 550.138 745.771C539.375 747.005 526.888 749.231 517.795 742.561C511.183 733.755 515.325 722.365 514.851 711.789C515.182 704.475 516.272 695.41 514.664 687.538C512.908 684.275 508.686 685.464 505.79 684.713C497.9 684.977 487.7 683.895 483.335 692.013L482.205 694.717C482.307 707.041 480.484 720.908 482.312 732.45C483.5 736.285 488.518 738.945 486.056 743.388C483.965 746.871 479.345 746.714 475.503 746.942C467.805 747.385 460.679 746.482 453.374 746.343C451.631 745.592 449.312 745.212 448.915 743.111C447.342 738.686 452.328 736.54 453.262 732.87C455.438 716.299 455.304 699.169 453.82 681.66C453.396 676.85 445.684 675.562 448.723 670.153C450.63 668.017 453.517 667.413 456.389 667.011C462.734 666.197 469.851 665.558 476.405 666.475C480.837 668.16 479.917 673.368 479.957 677.409C482.468 679.125 483.969 674.49 485.694 673.52C494.652 662.666 511.666 672.733 521.003 662.653C527.513 657.972 533.813 651.379 540.514 647.476C542.431 647.271 544.553 648.223 544.955 650.141Z" fill="#0492D2"/>
<path d="M203.171 663.052C201.058 663.459 199.146 665.202 198.583 666.937C195.571 675.43 191.599 683.74 191.287 693.172C195.527 694.683 199.758 694.643 204.579 694.804C207.264 694.397 211.307 694.942 213.215 692.421C213.554 686.833 210.82 681.272 210.195 675.506C208.81 670.897 209.52 663.584 203.171 663.052ZM222.597 638.833C224.729 639.785 226.475 642.078 227.454 644.192C235.76 672.422 242.336 701.433 250.258 729.863C251.428 732.344 252.42 735.616 255.123 736.752C256.669 737.319 258.005 736.537 259.153 735.759C261.825 732.648 261.405 728.039 261.95 723.985C262.763 705.51 262.969 682.98 261.28 663.745C262.763 656.803 248.48 650.755 259.596 645.855C267.455 642.717 275.318 638.609 283.767 636.231C285.875 636.41 288.771 636.392 289.749 639.079L290.357 642.15C289.24 671.42 287.747 702.032 289.119 729.55C288.208 735.911 298.618 738.911 293.48 745.491C287.533 748.236 279.835 747.52 272.713 747.775L228.665 748.119C225.39 747.57 221.342 747.601 219.403 744.735C217.035 738.017 226.239 733.703 221.565 726.627C219.984 721.62 220.136 715.661 217.406 711.446C210.467 709.774 201.831 712.34 195.643 709.117L188.472 702.434L186.935 702.64C183.539 711.71 180.926 720.972 178.303 730.234C174.89 736.618 183.571 739.049 181.306 744.651C179.407 747.936 175.171 747.4 171.713 747.806C165.744 747.082 157.286 748.884 155.691 741.776C157.349 732.523 161.902 724.401 164.533 715.523C171.887 697.562 177.901 679.23 185.067 661.076C186.377 656.061 190.366 649.485 185.903 644.711C185.689 642.404 185.675 640.285 187.395 638.918C194.874 635.404 204.699 637.635 212.974 637.559L222.597 638.833Z" fill="#0492D2"/>
<path d="M616.879 670.552C620.583 675.916 617.366 683.059 614.516 688.093C611.665 691.767 608.435 696.608 602.846 695.495C600.723 695.124 598.409 694.378 597.815 692.268C597.976 687.833 603.52 684.329 600.035 679.921C598.668 678.013 596.166 678.804 594.808 677.083C590.188 677.123 584.8 676.774 582.338 681.222C580.632 684.311 582.383 687.378 584.331 689.872C595.956 700.363 618.438 696.917 620.525 717.296C620.967 725.383 619.698 735.204 613.975 741.033C604.235 749.964 588.647 748.735 575.748 747.881C568.993 745.619 557.658 747.828 557.193 737.631C556.76 731.663 553.999 722.446 559.74 719.129C568.001 718.105 566.929 728.315 573.304 730.765C579.492 734.757 588.155 736.616 595.456 733.671C597.359 732.106 597.725 729.804 597.712 727.488C594.951 719.429 584.939 718.351 577.982 714.941C569.118 712.129 559.061 706.622 558.216 696.041C557.935 686.229 556.688 674.115 567.04 668.831C581.999 662.358 600.272 662.604 614.954 669.22L616.879 670.552Z" fill="#0492D2"/>
<path d="M768.273 666.844C771.387 670.868 772.955 675.284 774.148 679.893C779.482 697.376 782.704 715.627 788.99 732.52C790.54 734.241 792.091 735.381 794.217 736.329L794.789 735.752C795.71 730.348 792.194 723.446 797.546 720.129C799.087 719.928 800.044 719.914 801.589 720.102C805.856 724.107 808.792 730.433 814.966 732.315C820.748 733.808 828.066 735.292 833.628 732.552C836.121 731.371 836.479 728.868 836.85 726.561C835.648 720.411 828.718 719.691 823.884 717.612C814.439 714.42 803.452 712.387 797.6 702.811C795.602 693.008 792.801 679.169 800.624 671.02C809.417 663.25 822.115 663.344 833.66 663.639C841.559 664.73 850.794 664.466 855.467 672.124C856.673 679.048 855.002 686.379 850.624 691.417C846.987 694.139 842.774 696.683 837.757 694.989C836.979 694.408 835.634 693.652 835.621 692.499C834.817 688.27 839.034 685.928 838.23 682.083C837.833 679.969 837.046 678.042 835.112 676.911C831.444 675.78 826.641 675.628 823.576 678.15C821.86 679.513 821.869 681.444 821.315 683.371C820.774 688.386 825.412 691.614 829.29 693.701C840.67 698.806 859.153 699.62 861.007 715.967C861.664 726.168 860.212 736.762 851.026 742.422C845.857 746.507 838.932 746.369 832.404 747.191C820.658 746.704 806.629 749.516 796.755 741.702C795.218 741.715 794.852 743.834 793.315 744.415C784.875 747.178 776.208 746.677 767.169 746.168C764.269 745.233 761.187 743.53 760.195 740.647C755.834 724.51 752.631 707.402 747.685 691.649C746.706 689.155 744.767 687.054 742.064 685.928C739.951 685.941 737.628 685.771 736.109 687.515C734.59 689.45 734.027 691.757 734.438 694.644C734.143 706.584 733.866 720.057 735.885 732.172C737.266 735.627 741.707 737.902 740.009 742.337C733.705 748.55 722.334 746.141 713.685 746.601C710.222 745.85 705.205 745.886 704.405 741.273C703.985 737.424 707.814 734.898 708.756 731.228C709.972 715.627 709.257 697.926 707.984 683.304C707.751 678.494 700.616 675.472 703.654 670.443C707.278 666.76 712.474 666.719 717.277 665.714C722.665 665.673 729.563 663.112 733.446 667.519C734.424 669.433 733.303 672.133 735.416 673.268C740.988 671.498 745.764 667.797 751.143 665.638C756.317 663.863 764.001 662.267 768.273 666.844Z" fill="#0492D2"/>
<path d="M653.7 679.303C648.388 689.365 651.391 703.2 651.471 713.973C652.105 720.902 652.927 727.63 657.583 732.797C661.072 736.029 666.831 734.644 670.683 733.843V734.232C671.053 732.878 672.394 732.475 673.153 731.514C677.143 723.584 674.373 713.795 674.494 705.319C673.073 696.482 673.757 685.691 667.734 678.431C663.686 676.344 657.136 676.585 653.7 679.303ZM694.675 678.985C699.223 694.349 701.082 711.081 700.063 727.639C698.978 735.734 693.451 744.053 685.4 746.235C671.768 749.806 655.036 750.522 641.526 746.391C623.775 739.029 624.369 717.268 624.427 700.527C625.486 688.194 626.348 674.712 637.638 667.89C650.68 662.008 668.203 663.988 681.879 666.576C687.866 668.257 692.709 673.219 694.675 678.985Z" fill="#0492D2"/>
<path d="M335.142 685.685C332.832 686.083 330.531 686.678 329.2 688.81C326.76 696.727 327.976 704.608 327.462 712.113C327.9 719.234 326.242 727.718 330.326 733.65C332.841 735.175 335.919 736.109 339.19 735.313C342.264 734.33 344.743 732.577 346.271 729.873C349.082 720.794 345.927 711.201 344.507 702.167C342.34 696.213 342.273 687.938 335.142 685.685ZM328.82 640.304C330.437 650.496 328.793 661.672 328.681 671.877C328.883 672.449 329.459 673.017 329.848 673.017C338.091 670.071 346.879 661.913 356.168 668.189C365.278 676.977 367.105 689.279 370.469 700.419C372.699 714.639 375.138 731.755 363.102 742.439C358.129 746.52 351.588 745.997 345.436 747.392C331.983 748.272 317.74 747.999 304.649 747.132C302.33 746.587 300.02 745.447 299.234 742.944C299.203 739.479 300.914 736.775 302.236 734.061C304.171 710.754 304.184 688.622 302.844 665.534C303.956 659.749 292.974 657.72 299.475 652.083C307.321 646.634 315.559 642.526 324.191 638.99C325.916 638.78 327.462 639.164 328.82 640.304Z" fill="#0492D2"/>
<path d="M423.298 714.44C416.963 716.416 409.845 716.854 404.1 720.555C403.568 726.147 405.73 731.319 409.801 734.757C413.656 737.037 418.084 736.415 422.302 735.235C428.244 731.525 430.688 724.574 429.87 717.658C429.267 714.574 425.796 714.029 423.298 714.44ZM409.533 677.588C403.595 680.516 404.042 688.021 403.313 694.002C403.729 698.043 401.852 703.443 406.101 705.719C411.485 705.294 418.214 705.236 421.261 700.399C423.128 693.068 422.096 684.803 418.397 678.866C416.073 676.761 412.41 676.797 409.533 677.588ZM439.342 675.42C444.216 684.244 446.799 694.615 444.377 704.838C442.684 708.892 438.064 709.317 434.62 711.266L434.628 712.03C438.498 714.891 444.279 716.188 444.516 722.16C445.164 731.203 439.851 740.103 431.617 744.399C420.108 749.687 406.628 748.449 394.297 745.847C389.669 743.97 384.262 741.699 382.104 736.514C376.386 718.468 376.573 694.597 383.552 676.636C392.278 661.173 413.857 664.459 428.686 666.846C433.315 668.156 436.425 671.397 439.342 675.42Z" fill="#0492D2"/>
</g>
<mask id="mask2_4_525" style="mask-type:luminance" maskUnits="userSpaceOnUse" x="123" y="194" width="783" height="776">
<path d="M123.418 969.178H905.997V194.35H123.418V969.178Z" fill="white"/>
</mask>
<g mask="url(#mask2_4_525)">
<path d="M873.381 658.101C875.378 658.088 878.47 658.396 878.452 655.504C878.429 653.314 876.508 653.072 874.739 653.081L870.7 653.112L870.754 658.124L873.381 658.101ZM880.096 665.951L878.045 665.96L873.926 659.465L870.758 659.482L870.803 666.018L869.078 666.04L868.967 651.874L875.137 651.821C876.339 651.816 877.536 651.865 878.586 652.491C879.649 653.072 880.199 654.333 880.217 655.522C880.234 658.311 878.273 659.362 875.753 659.442L880.096 665.951ZM884.841 658.812C884.792 652.683 879.779 647.735 873.64 647.78C867.47 647.829 862.528 652.844 862.582 658.995C862.627 665.191 867.658 670.121 873.814 670.077C879.949 670.028 884.903 665.017 884.841 658.812ZM861.032 659.004C860.974 652.026 866.599 646.309 873.627 646.251C880.637 646.206 886.315 651.825 886.369 658.807C886.418 665.839 880.833 671.552 873.828 671.606C866.795 671.668 861.09 666.04 861.032 659.004Z" fill="#0492D2"/>
</g>
</svg>
