<svg width="1000" height="1000" viewBox="0 0 1000 1000" fill="none" xmlns="http://www.w3.org/2000/svg">
<g clip-path="url(#clip0_224_30)">
<rect width="1000" height="1000" rx="500" fill="white"/>
<path d="M1000 0H0V1000H1000V0Z" fill="white"/>
<path d="M216.255 476.576L222.515 480.254C235.433 488.339 241.163 500.168 239.805 515.178C238.447 530.221 230.564 540.724 216.487 546.456C208.703 549.637 200.555 550.764 192.274 550.764H99.1012C97.445 550.764 95.0934 551.692 94.2653 549.869C93.0729 547.152 96.2195 547.682 97.3788 546.721C99.1674 545.23 99.0018 543.242 99.0018 541.321L98.9687 418.658C98.9687 416.206 99.4324 413.323 96.0208 412.395C94.8284 412.064 93.636 411.534 94.1328 410.043C94.6296 408.519 96.1201 409.115 97.1469 409.115L123.082 409.082H189.724C196.448 409.082 203.072 409.91 209.498 411.733C223.244 415.642 231.889 424.456 234.042 438.836C236.228 453.614 232.717 466.172 219.302 474.588C218.574 475.019 217.779 475.582 216.255 476.576ZM163.292 527.537C173.328 527.04 185.385 528.763 197.243 526.311C207.61 524.157 212.446 517.497 212.214 506.795C211.982 497.252 206.981 491.454 197.011 489.399C194.328 488.836 191.579 488.306 188.863 488.273C169.784 488.173 150.706 488.306 131.627 488.14C127.951 488.107 126.924 489.366 126.99 492.878C127.189 502.719 127.255 512.56 126.957 522.368C126.825 526.642 128.481 527.702 132.455 527.603C142.061 527.371 151.699 527.537 163.292 527.537ZM162.365 432.541C151.964 432.541 141.564 432.607 131.164 432.508C128.282 432.475 126.924 433.17 126.99 436.418C127.189 444.668 127.123 452.918 126.99 461.136C126.957 463.952 128.017 464.913 130.766 464.913L192.572 464.714C202.211 464.549 207.875 457.392 207.577 447.252C207.312 437.246 202.542 432.707 191.778 432.574L162.365 432.541Z" fill="#E93942"/>
<path d="M609 513.724C602.521 541.562 587.349 564.529 568.012 584.811C523.718 631.274 469.64 657.852 405.579 663.42C397.415 664.149 389.085 664.149 380.887 663.652C352.394 661.896 340.593 639.029 355.435 614.505C361.715 604.165 370.078 595.581 379.102 587.628C393.117 575.2 408.62 564.926 424.949 555.846C427.065 554.653 429.941 553.99 429.742 550.61L467.756 550.709L459.756 574.736C454.534 589.981 449.41 605.258 442.865 619.973C441.279 623.519 439.097 626.899 434.8 626.7C430.106 626.468 429.412 622.16 428.42 618.614C426.47 611.754 426.04 604.695 425.941 597.636L425.908 571.952C425.71 572.052 425.016 572.25 424.388 572.648C408.786 582.889 393.812 593.957 380.59 607.214C374.078 613.742 367.863 620.669 364.855 629.683C361.517 639.725 365.153 646.883 375.301 649.501C385.746 652.219 396.357 651.688 406.67 648.805C450.237 636.642 488.812 615.167 522.726 585.275C534.362 575.001 545.138 563.899 553.434 550.61L576.375 550.411C579.019 550.378 582.986 550.941 579.118 546.268C577.465 544.247 578.722 542.126 579.614 540.17L585.63 527.378C592.406 512.365 592.373 512.365 609 513.724ZM460.814 530.99C471.392 491.155 482.697 451.552 498.629 413.441C506.364 394.948 514.892 376.854 526.693 360.549C536.147 347.458 547.385 337.019 564.475 335.13C579.845 333.44 595.877 348.552 595.315 363.896C594.059 398.925 577.102 426.564 555.021 451.917C553.93 453.176 550.922 453.972 552.344 456.258C553.864 458.711 555.847 456.093 557.533 455.728C568.574 453.375 579.548 451.552 590.522 455.927C587.896 463.397 584.679 470.644 580.903 477.601C576.573 468.322 572.177 466.3 562.161 468.786C557.17 470.012 552.575 472.166 548.046 474.453C533.866 481.578 520.313 489.83 506.529 497.684C500.513 501.131 494.365 504.147 487.093 502.224C484.746 501.595 483.556 502.49 482.829 504.809C479.986 513.558 476.548 522.142 474.499 531.156L460.814 530.99ZM488.316 484.096C491.456 484.594 492.283 482.141 493.605 480.683C510.595 461.362 526.428 441.113 540.675 419.671C552.542 401.842 563.252 383.349 570.226 362.935C571.416 359.455 574.887 354.749 571.317 352.164C567.681 349.546 563.847 353.788 560.674 356.141C537.733 373.274 522.726 396.506 510.694 421.991C501.307 441.875 494.894 462.82 488.316 484.096Z" fill="#D6C490"/>
<path d="M581.384 477.825C585.192 470.872 588.37 463.654 591.019 456.17L608.337 418.192C609.297 416.106 609.496 413.92 606.946 412.629C605.82 412.066 604.794 411.338 605.357 409.98C605.92 408.59 607.377 409.086 608.436 409.086H644.396C645.488 409.086 646.945 408.722 647.243 410.311C647.247 410.68 647.162 411.044 646.995 411.373C646.828 411.702 646.584 411.985 646.283 412.199C641.78 414.45 644.164 417.43 645.422 420.145L692.474 520.936L702.176 541.763C703.004 543.518 703.832 545.306 705.421 546.63C706.58 547.591 709.692 546.962 708.567 549.743C707.871 551.465 705.785 550.67 704.295 550.67H673.634C672.508 550.67 671.117 551.001 670.422 549.842C669.627 548.485 670.653 547.756 671.812 547.226C674.13 546.134 673.402 544.445 672.607 542.79L660.19 516.135C659.329 514.248 658.005 513.619 656.018 513.652L609.463 513.983C592.807 512.592 592.841 512.625 586.086 527.658L580.059 540.439C579.165 542.392 577.907 544.511 579.563 546.531C583.404 551.2 579.463 550.637 576.814 550.67L553.835 550.869C552.841 550.836 551.848 550.869 550.888 550.736C549.464 550.538 547.378 551.597 546.782 549.544C546.153 547.26 548.802 547.723 549.762 546.697C550.822 545.571 551.98 544.379 552.61 543.021L581.384 477.825ZM608.635 477.229L605.887 482.328C604.794 484.779 602.112 487.792 603.469 489.745C605.092 491.997 608.834 490.706 611.681 490.275L643.469 490.706C648.071 490.772 646.217 488.222 645.29 486.169L626.449 444.88C625.986 443.886 625.82 442.595 623.668 442.363L608.635 477.229ZM872.239 501.632L902.437 544.511C902.536 544.677 902.735 544.776 902.834 544.942C903.993 547.16 909.059 546.531 907.801 549.511C906.576 552.359 902.536 550.571 899.755 550.637L877.338 550.67C874.987 550.637 871.477 551.465 873.861 546.796C874.755 545.041 873.066 543.485 872.139 542.061L847.007 504.281C845.55 502.096 843.961 501.102 841.246 501.136C832.604 501.301 823.961 501.367 815.319 501.102C811.511 501.003 810.684 502.559 810.75 505.97L810.849 541.333C810.849 542.856 810.783 544.909 811.677 545.869C817.703 552.259 811.313 550.571 808.531 550.637L787.307 550.67C786.015 550.67 784.327 551.2 783.532 549.809C782.505 547.988 784.393 547.624 785.452 546.895C787.406 545.538 787.042 543.452 787.042 541.531L787.141 441.303C787.141 437.86 785.949 435.476 783.3 433.887C783.995 431.867 785.353 432.231 786.413 432.264L861.875 432.562C868.563 432.628 875.152 434.019 881.51 436.105C897.37 441.304 905.152 452.23 904.821 468.819C904.523 483.587 895.086 495.474 880.285 499.745C877.967 500.374 875.649 500.838 872.239 501.632ZM840.12 482.13C848.299 481.633 858.563 483.057 868.696 481.136C876.212 479.713 879.887 476.037 880.55 469.349C881.344 461.402 878.397 456.435 871.179 453.588C867.69 452.201 863.974 451.471 860.219 451.436L814.823 451.27C811.776 451.237 810.651 452.33 810.717 455.376C810.849 462.826 810.882 470.309 810.717 477.792C810.651 481.103 811.71 482.295 815.121 482.229C822.769 481.997 830.418 482.13 840.12 482.13ZM261.225 432.231H268.212L360.197 432.198C362.746 432.198 365.561 432.529 367.779 431.569C373.64 429.019 374.633 431.337 374.269 436.668C373.905 441.568 374.236 446.502 374.17 451.402C374.137 454.217 373.441 456.038 370.594 453.058C368.938 451.303 366.753 451.303 364.567 451.303C340.793 451.303 316.986 451.369 293.211 451.237C289.47 451.204 287.946 452.197 288.112 456.17C288.377 462.826 288.311 469.547 288.145 476.203C288.046 479.613 288.907 481.103 292.715 481.07L337.515 480.971C338.674 480.971 340.164 481.136 340.959 480.507C347.879 475.276 346.753 480.739 346.753 484.779V499.513C346.753 502.129 345.793 503.486 343.243 501.732C340.594 499.91 337.68 500.076 334.733 500.076C320.793 500.076 306.82 500.175 292.88 500.01C289.304 499.977 288.013 501.069 288.112 504.678C288.311 511.93 288.311 519.214 288.112 526.499C288.013 529.942 288.973 531.432 292.715 531.399L367.018 531.333C367.812 531.333 368.773 531.499 369.335 531.134C377.117 525.903 375.66 532.028 375.693 536.267V549.842C375.66 552.028 375.296 554.312 372.415 552.094C370.097 550.306 367.547 550.802 365.064 550.802C332.449 550.769 299.8 550.836 267.185 550.67C264.702 550.67 257.318 553.021 263.609 545.736C264.636 544.544 264.172 541.962 264.172 540.008V443.323C264.172 439.681 264.967 435.774 260 433.688C260.382 433.181 260.791 432.694 261.225 432.231Z" fill="#E93942"/>
<path d="M432 532L442.995 429.893L449.637 367.888C450.161 363.213 450.979 358.505 443.649 360.642C442.766 360.909 441.62 360.876 441.097 359.807C440.41 358.438 441.457 357.604 442.307 356.836C446.136 353.129 450.913 351.627 455.952 350.725C474.702 347.319 488.085 356.101 489.721 373.03C490.245 378.539 489.983 384.082 489.329 389.625C485.5 423.215 475.749 455.403 467.307 487.892C463.511 502.45 459.879 517.041 457.589 531.933L432 532Z" fill="#D6C490"/>
<path d="M431.597 531.493L457.465 531.426L460.549 531.359L474.245 531.493H497.261C499.649 531.493 502.004 531.493 503.728 529.353C504.292 528.651 504.491 527.314 505.784 527.648C507.31 528.049 507.111 529.454 507.111 530.557V546.036C507.044 549.914 508.769 555.998 501.141 551.284C500.544 550.917 499.583 551.084 498.82 551.084L467.546 551.251L429.408 551.151L399.892 551.017C398.599 551.017 396.907 551.619 396.211 550.014C395.349 548.008 397.339 547.975 398.4 547.306C400.39 546.069 400.323 544.03 400.323 542.024L400.39 440.224C400.39 436.58 398.665 434.507 396.112 432H429.972C423.571 435.176 424.035 439.823 424.035 444.503L424.069 523.67C424.102 533.098 423.837 531.192 431.597 531.493ZM723.073 432.033H757C751.727 434.507 752.224 438.887 752.224 443.233L752.291 540.185C752.291 542.759 751.13 545.935 754.546 547.507C755.74 548.042 757.564 548.075 756.801 550.081C756.27 551.418 754.811 551.05 753.684 551.05H725.959C724.831 551.05 723.372 551.284 723.073 549.747C722.742 548.142 724.102 547.874 725.262 547.64C728.148 547.005 728.048 544.665 728.048 542.492L728.181 439.589C728.181 435.477 725.461 434.507 723.073 432.033Z" fill="#E93942"/>
<path d="M608.166 477C610.322 481.096 610.384 485.73 611 490.23C608.351 490.666 604.87 491.976 603.361 489.692C602.067 487.745 604.593 484.689 605.609 482.171C606.318 480.358 607.304 478.712 608.166 477Z" fill="#D6C490"/>
</g>
<rect x="5" y="5" width="990" height="990" rx="495" stroke="#666666" stroke-width="10"/>
<defs>
<clipPath id="clip0_224_30">
<rect width="1000" height="1000" rx="500" fill="white"/>
</clipPath>
</defs>
</svg>
