<svg width="1000" height="1000" viewBox="0 0 1000 1000" fill="none" xmlns="http://www.w3.org/2000/svg">
<g clip-path="url(#clip0_1_13)">
<rect width="1000" height="1000" fill="white"/>
<circle cx="500" cy="500" r="500" fill="#633219"/>
<path fill-rule="evenodd" clip-rule="evenodd" d="M369.145 161.956C372.773 157.074 381.138 151 390.149 151H610.392C619.399 151 627.767 157.074 631.396 161.956C633.829 165.221 635.322 167.993 636.46 170.105C637.022 171.148 637.497 172.03 637.956 172.731L667.683 218.25C669.651 221.267 670.744 225.024 670.997 228.689H736.618C752.99 228.689 766.639 242.338 766.639 258.71V304.229C766.639 320.601 752.99 334.264 736.618 334.264H722.12C721.932 335.541 721.714 336.789 721.49 338.071C721.171 339.895 720.841 341.786 720.568 343.921L661.103 808.18C659.756 818.688 656.754 827.722 650.857 834.827C644.96 841.932 636.543 845.881 628.829 847.468C618.386 849.617 608.33 849.054 597.828 848.466C592.819 848.186 587.709 847.9 582.407 847.9H414.877C409.577 847.9 404.468 848.186 399.459 848.466C388.958 849.054 378.9 849.617 368.455 847.468C360.742 845.88 352.34 841.931 346.442 834.827C340.545 827.722 337.543 818.688 336.197 808.18L276.732 343.921C276.306 340.6 275.917 337.434 275.871 334.264H263.944C247.572 334.264 233.923 320.601 233.923 304.229V258.71C233.923 242.338 247.572 228.689 263.944 228.689H329.543C329.795 225.023 330.888 221.267 332.858 218.25L362.585 172.731C363.045 172.029 363.521 171.146 364.084 170.102C365.223 167.991 366.717 165.222 369.145 161.956ZM607.818 181.317H392.729C392.512 181.681 392.263 182.129 391.963 182.668C391.145 184.14 389.946 186.296 387.979 189.309L363.833 226.257H636.714L612.568 189.309C610.601 186.296 609.403 184.141 608.584 182.669C608.284 182.129 608.035 181.681 607.818 181.317ZM315.743 303.951C317.542 303.926 319.403 303.929 321.338 303.951H321.511L321.513 303.948L321.699 303.951H736.319V259.007H264.241V303.951H315.743ZM689.7 334.539C688.352 334.443 687.435 334.377 683.866 334.417L683.86 334.417C681.047 334.449 677.869 334.505 674.301 334.568C665.805 334.718 655.101 334.906 641.865 334.906H355.418C348.168 334.906 341.695 334.882 336.001 334.861H336H335.999C319.993 334.801 310.138 334.765 306.465 335.35C306.46 335.503 306.453 335.63 306.446 335.751L306.446 335.751C306.409 336.391 306.381 336.867 306.792 340.074L320.541 447.412H676.736L690.481 340.074C690.753 337.956 690.864 337.226 691.007 336.282L691.008 336.278L691.008 336.278C691.076 335.834 691.15 335.343 691.252 334.639C690.619 334.604 690.137 334.57 689.7 334.539ZM641.012 726.384H356.274L366.257 804.323C367.153 811.308 368.819 814.328 369.766 815.471C370.714 816.614 371.331 817.114 374.562 817.78C378.49 818.589 385.566 818.346 394.742 818.03C400.67 817.826 407.474 817.592 414.872 817.592H582.402C589.799 817.592 596.606 817.826 602.536 818.029C611.717 818.344 618.799 818.587 622.727 817.78C625.958 817.115 626.575 816.614 627.522 815.471C628.474 814.328 630.136 811.308 631.031 804.323L641.012 726.384Z" fill="white"/>
</g>
<defs>
<clipPath id="clip0_1_13">
<rect width="1000" height="1000" fill="white"/>
</clipPath>
</defs>
</svg>
