<svg width="1000" height="1000" viewBox="0 0 1000 1000" fill="none" xmlns="http://www.w3.org/2000/svg">
<rect x="5" y="5" width="990" height="990" rx="495" fill="white"/>
<rect x="5" y="5" width="990" height="990" rx="495" stroke="#666666" stroke-width="10"/>
<path d="M831.57 284.283L736.039 558.543C728.477 580.234 707.944 594.782 684.876 594.782H315.123C292.056 594.782 271.522 580.234 263.962 558.543L168.44 284.283C166.707 279.318 162.013 276 156.747 276H112.386C103.879 276 97.9056 284.349 100.692 292.353L222.788 642.882C226.561 653.728 236.828 661.002 248.362 661.002H751.639C763.169 661.002 773.437 653.728 777.211 642.882L899.308 292.353C902.094 284.349 896.122 276 887.614 276H843.25C837.984 276 833.307 279.332 831.57 284.283Z" fill="#173F92"/>
<path d="M330.109 562.448H669.915C688.037 562.448 704.169 551.015 710.104 533.971L794.265 292.366C797.051 284.362 791.079 276.013 782.571 276.013H738.212C732.942 276.013 728.25 279.331 726.518 284.296L665.317 459.986C657.754 481.675 637.222 496.224 614.154 496.224H385.857C362.79 496.224 342.256 481.675 334.696 459.986L273.495 284.296C271.761 279.331 267.068 276.013 261.801 276.013H217.44C208.933 276.013 202.96 284.362 205.747 292.366L289.909 533.971C295.855 551.015 311.975 562.448 330.109 562.448Z" fill="#0065CF"/>
<path d="M401.366 463.119H598.649C616.772 463.119 632.904 451.69 638.838 434.647L688.397 292.366C691.183 284.362 685.211 276.013 676.703 276.013H632.344C627.078 276.013 622.382 279.331 620.65 284.296L593.143 363.247C586.131 383.397 567.062 396.896 545.635 396.896H454.353C432.94 396.896 413.873 383.384 406.846 363.247L379.338 284.296C377.605 279.331 372.912 276.013 367.645 276.013H323.284C314.777 276.013 308.804 284.362 311.591 292.366L361.152 434.647C367.112 451.69 383.245 463.119 401.366 463.119Z" fill="#039BE5"/>
</svg>
