<svg width="1000" height="1000" viewBox="0 0 1000 1000" fill="none" xmlns="http://www.w3.org/2000/svg">
<rect width="1000" height="1000" rx="500" fill="#005DAA"/>
<path fill-rule="evenodd" clip-rule="evenodd" d="M568.555 199.894C633.679 196.362 699.499 203.265 762.265 221.107C778.776 225.497 790.834 242.917 788.017 259.973C777.322 324.849 766.536 389.716 755.809 454.592C753.624 469.301 741.372 482.031 726.611 484.315C717.14 485.935 707.034 483.402 699.499 477.432C684.323 464.418 667.693 452.754 649.167 445.022C622.059 433.15 591.111 430.127 562.293 437.01C537.832 442.565 514.572 454.71 497.18 472.956C486.417 484.742 477.852 499.961 478.622 516.377C479.211 528.946 487.168 539.886 497.006 547.16C511.451 557.867 529.475 562.608 547.172 564.121C573.683 565.706 600.372 561.229 625.307 552.237C645.275 544.789 664.169 534.643 681.822 522.727C690.182 517.215 700.977 515.65 710.578 518.519C724.141 522.347 734.588 535.089 735.579 549.183C736.468 557.334 733.699 565.184 731.98 573.035C717.99 632.027 704.118 691.043 690.107 750.028C688.42 757.582 684.702 764.793 678.812 769.913C674.213 774.196 668.322 776.677 662.375 778.404C634.797 786.709 606.121 790.538 577.567 793.659C553.703 795.994 529.788 797.954 505.833 798.55C459.677 800.455 412.964 796.464 368.46 783.679C326.88 772.011 287.105 752.746 253.755 725.117C222.396 699.285 197.133 665.67 182.728 627.559C174.031 605.034 169.215 581.028 168.295 556.899C167.011 533.252 170.045 509.562 175.043 486.468C185.13 444.501 204.968 405.165 231.123 370.937C260.855 331.905 298.314 299.092 339.796 273.055C408.377 230.108 487.864 205.015 568.555 199.894ZM376.789 291.55C321.285 322.601 271.823 366.263 239.069 421.202C223.135 448.167 211.112 477.78 206.145 508.811C199.851 543.821 202.131 580.68 214.786 614.058C223.624 637.934 237.591 659.763 254.822 678.455C280.108 705.646 312.218 725.954 346.599 739.633C391.562 757.487 440.238 764.805 488.472 764.204C521.973 763.856 555.434 761.324 588.709 757.42C611.317 754.429 634.07 751.114 655.809 743.951C671.052 679.815 686.129 615.654 701.348 551.518C668.049 574.003 630.459 591.095 590.447 596.761C565.607 600.293 539.843 600.597 515.528 593.738C497.615 588.874 480.428 580.21 467.058 567.187C454.347 555.054 445.631 538.483 444.118 520.87C442.206 500.234 449.219 479.586 460.926 462.778C475.252 442.229 495.766 426.484 518.223 415.745C547.322 401.775 580.349 396.141 612.439 399.673C653.126 403.829 690.728 423.723 721.241 450.309C732.087 385.161 742.818 319.989 753.655 254.833C701.889 239.882 647.844 233.272 594.011 233.707C518.322 234.651 442.87 254.572 376.789 291.55Z" fill="white"/>
<path d="M376.788 291.55C442.869 254.572 518.321 234.651 594.011 233.707C647.843 233.272 701.889 239.882 753.655 254.833C742.817 319.989 732.086 385.161 721.241 450.309C690.727 423.722 653.125 403.829 612.438 399.673C580.348 396.14 547.322 401.775 518.222 415.745C495.765 426.484 475.251 442.229 460.925 462.778C449.218 479.586 442.205 500.234 444.117 520.87C445.631 538.483 454.347 555.054 467.057 567.187C480.427 580.21 497.614 588.874 515.528 593.738C539.842 600.597 565.607 600.293 590.447 596.76C630.459 591.095 668.048 574.003 701.347 551.518C686.128 615.654 671.051 679.814 655.808 743.951C634.07 751.114 611.316 754.429 588.708 757.42C555.433 761.324 521.972 763.856 488.471 764.204C440.238 764.804 391.561 757.487 346.599 739.633C312.217 725.954 280.107 705.646 254.821 678.455C237.591 659.763 223.624 637.934 214.786 614.058C202.13 580.68 199.851 543.821 206.145 508.811C211.111 477.78 223.134 448.167 239.068 421.202C271.822 366.263 321.285 322.6 376.788 291.55Z" fill="#E31837"/>
</svg>
