<svg width="1000" height="1000" viewBox="0 0 1000 1000" fill="none" xmlns="http://www.w3.org/2000/svg">
<g clip-path="url(#clip0_225_100)">
<rect width="1000" height="1000" rx="500" fill="#00367A"/>
<path d="M1000 0H0V1000H1000V0Z" fill="#00367A"/>
<path d="M238.143 510.745C237.173 551.949 269.735 582.746 312.373 582.746C348.361 582.746 378.726 567.839 407.404 543.37L377.602 703.124C350.611 714.937 292.693 720 264.577 720C145.649 720 66.3628 628.873 81.8262 510.745H238.143ZM599.236 510.464C592.77 556.871 614.981 599.622 664.745 599.622C688.924 599.622 722.1 588.372 733.347 562.496H663.34L671.774 510.464H909.631C899.228 559.402 883.203 602.716 838.78 643.779C785.361 692.999 711.698 719.719 645.627 719.719C517.983 719.719 426.888 642.654 443.757 510.464H599.236ZM238.711 510.745H238.143C238.145 510.651 238.146 510.558 238.148 510.464L238.711 510.745ZM86.3252 487.682V487.4H86.3906C86.3688 487.494 86.3469 487.588 86.3252 487.682ZM341.052 280.114C375.567 280.045 409.827 286.043 442.268 297.834L421.181 460.119C400.094 436.775 371.978 417.086 336.834 417.086C315.794 417.626 295.438 424.677 278.57 437.27C261.703 449.862 249.152 467.377 242.647 487.4H86.3906C113.49 370.814 221.657 280.114 341.052 280.114ZM914.692 487.119H676.272L680.209 461.806H919.19L914.692 487.119ZM716.478 279.271C790.14 279.271 886.577 315.834 908.226 388.961L754.996 442.399C746.561 421.024 726.88 409.773 701.576 409.773V409.492C654.061 409.492 619.48 444.65 605.422 486.838H447.975C475.809 356.897 587.709 279.271 716.478 279.271Z" fill="#FFD140"/>
</g>
<defs>
<clipPath id="clip0_225_100">
<rect width="1000" height="1000" rx="500" fill="white"/>
</clipPath>
</defs>
</svg>
