<svg width="1000" height="1000" viewBox="0 0 1000 1000" fill="none" xmlns="http://www.w3.org/2000/svg">
<rect width="1000" height="1000" rx="500" fill="#FF00FF"/>
<path d="M296 361.176C296 335.24 304.316 309.031 320.949 282.55C337.582 255.795 361.849 233.681 393.751 216.209C425.653 198.736 462.872 190 505.408 190C544.945 190 579.846 197.371 610.112 212.114C640.378 226.583 663.691 246.376 680.051 271.493C696.684 296.609 705 323.91 705 353.395C705 376.601 700.228 396.94 690.685 414.412C681.414 431.885 670.235 447.037 657.147 459.868C644.332 472.426 621.155 493.721 587.617 523.752C578.346 532.215 570.848 539.723 565.122 546.275C559.669 552.554 555.579 558.424 552.852 563.884C550.125 569.071 547.944 574.395 546.308 579.855C544.945 585.042 542.763 594.324 539.764 607.701C534.583 636.094 518.36 650.291 491.093 650.291C476.914 650.291 464.917 645.65 455.101 636.367C445.558 627.085 440.786 613.298 440.786 595.007C440.786 572.074 444.331 552.281 451.42 535.628C458.509 518.701 467.916 503.959 479.641 491.4C491.366 478.569 507.18 463.417 527.085 445.945C544.536 430.656 557.078 419.19 564.713 411.546C572.62 403.628 579.164 394.892 584.345 385.337C589.798 375.782 592.525 365.407 592.525 354.214C592.525 332.373 584.345 313.945 567.985 298.93C551.898 283.915 531.039 276.407 505.408 276.407C475.415 276.407 453.329 284.051 439.15 299.34C424.971 314.355 412.974 336.605 403.158 366.09C393.887 396.94 376.3 412.365 350.397 412.365C335.128 412.365 322.176 407.041 311.542 396.394C301.181 385.473 296 373.734 296 361.176ZM495.592 810C478.959 810 464.372 804.676 451.829 794.029C439.559 783.109 433.424 767.957 433.424 748.573C433.424 731.374 439.423 716.904 451.42 705.165C463.417 693.426 478.141 687.556 495.592 687.556C512.77 687.556 527.221 693.426 538.946 705.165C550.671 716.904 556.533 731.374 556.533 748.573C556.533 767.684 550.398 782.699 538.128 793.62C525.858 804.54 511.679 810 495.592 810Z" fill="white"/>
</svg>
