<svg width="1000" height="1000" viewBox="0 0 1000 1000" fill="none" xmlns="http://www.w3.org/2000/svg">
<path d="M899.999 100H100.461V900H899.999V100Z" fill="#FF671D"/>
<path d="M836.258 860.716C836.258 847.776 846.881 838.07 858.891 838.07C870.9 838.07 881.523 847.776 881.523 860.716C881.523 873.657 870.9 883.362 858.891 883.362C846.881 883.362 836.258 873.657 836.258 860.716ZM859.353 879.203C869.514 879.203 877.366 871.346 877.366 860.254C877.366 849.162 869.514 841.768 859.353 841.768C849.191 841.768 840.877 849.624 840.877 860.254C840.877 870.884 848.729 879.203 859.353 879.203ZM854.272 873.657H850.115V847.776H859.814C865.819 847.776 869.052 850.086 869.052 855.17C869.052 859.792 866.281 861.64 862.586 862.103L869.976 873.657H865.819L858.891 862.565H854.272V873.657ZM859.353 858.867C862.586 858.867 865.819 858.405 865.819 854.708C865.819 851.473 863.048 851.011 860.276 851.011H854.734V858.867H859.353Z" fill="white"/>
<path d="M277.829 733.16L257.044 753.957L243.187 740.092L263.972 719.295L210.393 665.685C201.617 656.904 200.693 655.517 189.607 661.063C185.45 663.374 181.293 663.374 178.06 659.677C171.132 652.744 178.522 644.887 179.446 643.501L245.958 576.95C246.882 576.025 255.196 568.631 262.125 575.563C265.358 578.798 265.358 582.958 263.51 587.117C257.968 597.747 259.353 599.133 268.129 607.915L391.917 731.774C400.693 740.555 401.617 742.403 412.702 736.395C416.859 734.547 421.016 734.547 424.249 737.782C431.178 744.714 423.788 753.033 422.864 753.957L356.351 820.508C355.427 821.433 347.113 828.827 340.185 821.895C336.952 818.66 336.952 814.5 338.799 810.341C344.342 799.249 342.956 798.325 334.18 789.544L277.829 733.16ZM100.462 722.993L157.275 666.147C158.199 665.222 166.513 657.828 173.441 664.76C176.674 667.995 176.674 672.155 174.827 676.314C169.284 687.406 170.67 688.33 179.446 697.112L303.233 820.971C312.009 829.752 313.395 831.6 324.019 825.592C328.176 823.281 332.333 823.281 335.566 826.517C342.494 833.449 335.104 841.768 334.18 842.692L277.367 899.538H250.115V899.076C255.658 888.446 254.273 887.06 245.497 878.278L121.247 754.882C112.471 746.101 111.547 744.714 100.462 750.26C100.462 750.26 100.462 750.26 100 750.26L100.462 722.993Z" fill="white"/>
<path d="M341.11 502.542C334.181 517.793 340.186 525.65 346.191 531.658L468.593 654.13C474.597 660.139 482.449 666.147 497.692 659.214L511.549 673.079C457.045 718.371 393.304 701.271 346.653 654.593C299.539 607.452 282.449 543.674 328.177 489.601L341.11 502.542ZM507.854 648.122C514.782 632.871 508.777 625.014 502.773 619.006L380.833 496.534C374.828 490.526 366.976 484.517 351.733 491.45L337.877 477.585C392.38 432.293 456.121 448.931 502.773 496.072C549.424 543.212 566.976 606.528 521.248 661.063L507.854 648.122Z" fill="white"/>
<path d="M768.361 393.472C765.127 390.237 760.97 390.237 756.813 392.085C746.19 397.631 744.804 396.245 736.028 387.464L612.24 263.605C603.464 254.824 601.617 253.899 607.622 242.808C609.469 238.648 609.469 234.489 606.236 231.254C599.307 224.321 590.993 231.716 590.531 232.64L528.176 295.032L578.984 389.313L578.522 389.775L480.601 342.172L421.016 402.253C418.245 405.026 410.855 411.958 418.245 419.353C423.788 424.899 430.716 419.353 433.949 416.58C438.106 412.883 441.802 414.731 447.806 416.118C452.887 417.042 457.506 419.815 462.125 422.126L657.506 519.18L664.435 512.247L568.822 335.702L678.291 445.234C687.067 454.015 688.453 455.401 682.91 466.031C680.601 470.191 680.601 474.35 684.296 477.585C691.224 484.518 699.538 477.123 700.462 476.199L766.975 409.648C767.899 408.261 775.289 399.942 768.361 393.472Z" fill="white"/>
<path d="M583.603 517.793L542.957 477.123L490.763 451.242L490.301 451.704L569.747 531.196C595.613 564.471 571.132 570.479 581.294 580.647C588.684 588.042 597.922 577.874 600.231 575.101L627.021 548.296C629.793 545.523 639.954 536.28 632.564 529.347C622.864 519.18 616.86 543.674 583.603 517.793Z" fill="white"/>
<path d="M616.397 206.759L678.291 144.367L854.734 320.913L792.378 383.304C791.454 384.229 783.14 391.623 776.212 384.691C772.979 381.456 772.979 377.296 775.288 373.137C780.831 362.507 779.445 361.121 770.669 352.34L646.882 228.481C638.106 219.7 636.72 218.313 626.097 223.859C621.939 226.17 617.782 226.17 614.549 222.473C608.083 216.002 615.473 207.683 616.397 206.759ZM760.046 100L789.607 129.578C790.993 130.503 795.15 135.586 787.759 142.519C783.602 146.678 780.369 145.292 775.288 142.981C749.884 130.04 726.327 130.503 702.309 148.065L688.452 134.2L722.632 100H760.046ZM900 276.083L865.819 310.283L851.963 296.418C868.591 275.159 870.438 247.429 857.967 222.01C856.12 216.927 853.81 211.843 857.967 207.221C865.357 199.827 871.824 207.221 872.748 208.608L900 236.337V276.083ZM767.898 212.767C775.288 200.289 770.669 186.424 763.741 175.332C760.97 170.248 758.66 165.165 763.741 160.081C771.131 152.686 778.522 162.392 780.369 164.24L831.177 215.078C833.025 216.927 842.725 224.321 835.334 231.716C830.254 236.8 825.173 234.027 820.092 231.254C809.006 224.321 795.15 219.7 782.679 227.094L767.898 212.767Z" fill="white"/>
<path d="M455.658 765.049C477.829 742.403 512.471 739.168 548.037 771.519C580.831 801.098 576.674 842.23 554.503 864.414L546.651 856.557C553.58 847.314 546.651 839.457 541.57 834.373L485.219 777.99C480.139 772.906 472.286 765.973 463.048 772.906L455.658 765.049Z" fill="white"/>
<path d="M504.157 899.538C504.619 898.614 505.081 897.689 505.543 896.765C507.39 893.53 503.233 890.295 501.386 887.984L432.102 818.66C430.254 816.811 426.559 812.652 423.326 814.5C419.631 816.349 416.859 818.198 413.626 814.963C409.931 811.265 413.164 807.568 415.935 805.257L450.116 771.057L549.423 870.422L520.324 899.538H504.157Z" fill="white"/>
<path d="M505.082 715.598L540.186 680.474L639.493 779.838L604.389 814.962C603.927 815.425 599.308 819.584 595.613 815.887C593.765 814.038 593.765 811.727 595.151 809.416C598.384 803.408 597.461 802.484 592.38 797.862L522.634 728.076C517.553 722.992 517.091 722.068 511.087 725.303C508.777 726.69 506.468 726.69 504.62 724.841C500.463 721.144 504.62 716.522 505.082 715.598ZM546.19 674.466L575.752 644.887L602.541 671.693C603.465 672.617 605.775 674.928 601.618 679.087C599.308 681.398 597.461 680.474 594.689 679.549C580.371 672.155 567.438 672.617 553.581 682.322L546.19 674.466ZM637.645 766.435C646.883 754.419 647.807 738.706 640.879 724.379C639.955 721.606 638.569 718.833 640.879 716.06C645.036 711.901 648.731 716.06 649.193 716.522L675.521 743.327L645.036 773.83L637.645 766.435ZM590.532 718.833C594.689 711.901 591.918 704.044 588.223 698.036C586.837 695.263 585.451 692.028 588.223 689.255C592.38 685.095 596.537 690.641 597.461 691.565L626.098 720.219C627.022 721.144 632.565 725.303 628.408 729.463C625.636 732.236 622.865 730.849 619.632 729.463C613.627 725.765 605.775 722.992 598.846 727.152L590.532 718.833Z" fill="white"/>
<path d="M627.021 594.05C639.493 581.571 648.269 575.101 658.43 572.79C674.135 568.631 686.606 573.715 697.691 584.806C708.777 595.898 713.858 608.839 709.7 624.09C706.929 633.795 700.924 642.576 688.453 655.517L680.601 647.66C687.068 638.417 681.987 632.409 675.52 625.939L655.197 606.066C649.192 600.058 642.726 595.898 634.412 601.906L627.021 594.05ZM603.465 647.198C598.384 642.114 597.922 641.19 591.918 644.425C589.608 645.812 587.299 645.349 585.451 643.501C581.756 639.804 585.913 635.182 586.375 634.72L621.479 599.596L706.005 684.171C711.086 689.255 711.548 690.179 717.553 686.944C719.862 685.557 722.172 685.557 724.019 687.406C727.714 691.103 723.557 695.725 723.095 696.187L685.682 733.622C685.22 734.084 681.525 737.319 677.83 733.16C675.982 731.311 675.52 729.001 676.906 726.69C680.139 720.682 678.292 720.682 673.673 715.598L603.465 647.198Z" fill="white"/>
<path d="M711.085 521.028C706.928 529.347 710.623 533.969 713.856 537.204L782.679 606.066C785.912 609.301 790.531 612.998 798.845 608.839L806.697 616.696C776.212 642.577 740.184 632.871 713.856 606.528C687.528 580.185 677.829 544.136 703.695 513.634L711.085 521.028ZM804.849 602.831C809.006 594.512 805.311 589.89 802.078 586.655L733.256 517.793C730.023 514.558 725.404 510.861 717.09 515.02L709.237 507.163C739.722 481.282 775.75 490.988 802.078 517.331C828.406 543.674 838.106 579.723 812.24 610.225L804.849 602.831Z" fill="white"/>
<path d="M900 519.18L868.129 551.069C867.668 551.531 863.049 555.69 858.892 551.993C857.044 550.144 857.044 547.834 858.43 545.523C861.663 539.515 860.739 538.59 855.658 533.969L771.132 449.393L803.464 417.042L887.991 501.618C893.072 506.701 893.534 507.626 899.538 504.39V519.18H900ZM859.815 422.588C860.277 423.05 863.049 426.748 859.353 430.907C855.658 434.604 851.501 431.831 848.268 429.52C839.954 423.512 829.33 416.58 817.783 418.891L809.931 411.034L828.868 392.085L859.815 422.588ZM746.189 474.35L765.127 455.401L772.979 463.258C771.132 475.274 778.06 485.442 783.603 493.761C786.374 496.996 788.684 501.155 784.989 504.853C780.832 509.012 777.136 505.777 776.674 505.315L746.189 474.35Z" fill="white"/>
<path d="M196.074 402.715L226.559 372.213L306.005 451.704C310.624 456.326 311.086 457.25 317.09 454.015C319.4 453.091 321.709 453.091 323.095 454.477C326.79 458.174 323.095 462.334 322.171 462.796L286.605 497.92C286.143 498.382 281.986 502.08 278.291 498.845C276.444 496.996 276.444 494.685 277.829 492.837C281.063 487.291 280.139 486.366 275.52 481.745L196.074 402.715ZM279.215 377.759C279.677 378.221 282.448 381.918 278.753 385.615C275.058 389.313 271.363 386.54 268.13 384.229C260.277 378.683 250.578 372.213 239.492 374.061L232.102 366.667L250.116 348.642L279.215 377.759ZM172.518 426.285L190.531 408.261L197.922 415.656C196.074 426.748 202.541 436.915 208.083 444.31C210.393 447.545 213.164 451.242 209.469 454.939C205.774 458.637 202.079 455.864 201.617 455.402L172.518 426.285Z" fill="white"/>
<path d="M371.131 386.54C375.75 391.161 376.211 392.086 382.216 388.85C384.526 387.926 386.373 387.926 388.221 389.313C391.916 393.01 387.759 397.169 387.297 397.631L352.193 432.756C351.731 433.218 347.574 436.915 343.879 433.68C342.031 431.831 342.031 429.521 343.417 427.672C346.65 422.126 345.726 421.202 341.108 416.58L275.057 351.878C270.438 347.256 269.976 346.332 263.971 349.567C261.662 350.491 259.352 350.491 257.967 349.105C254.271 345.407 258.429 341.248 258.89 340.786L293.994 305.661C294.456 305.199 298.613 301.04 302.308 304.737C304.156 305.661 304.156 307.972 303.232 310.283C299.999 315.829 300.923 316.753 305.542 321.375L371.131 386.54ZM357.736 340.324L346.65 351.415L339.26 344.021L350.345 332.929L322.17 304.737C317.551 300.116 317.089 299.191 311.084 302.426C308.775 303.351 306.465 303.351 305.08 301.964C301.385 298.267 305.08 294.107 306.004 293.645L341.108 258.521C341.569 258.059 345.726 253.899 349.422 257.597C351.269 259.445 351.269 261.756 349.884 263.605C346.65 269.151 347.574 270.075 352.193 274.697L417.782 339.861C422.401 344.483 422.863 345.407 428.867 342.172C431.177 341.248 433.024 341.248 434.872 342.634C438.567 346.332 434.41 350.491 433.948 350.953L398.844 386.077C398.382 386.54 393.763 390.237 390.53 387.002C388.683 385.153 388.683 382.842 390.068 380.994C393.302 375.448 392.378 374.523 387.759 369.902L357.736 340.324Z" fill="white"/>
<path d="M359.585 239.11L392.379 206.297L485.682 299.653L452.887 332.467C452.425 332.929 447.806 337.088 444.573 333.391C442.726 331.543 442.726 329.232 444.111 327.383C446.883 321.837 446.421 320.913 441.802 316.291L375.751 251.127C371.132 246.505 370.67 245.581 364.665 248.816C362.356 249.74 360.508 249.74 358.661 248.354C354.966 244.194 358.661 240.035 359.585 239.11ZM397.922 200.751L425.635 173.021L451.04 198.44C451.501 198.902 453.811 201.675 450.116 205.373C447.806 207.684 445.959 206.759 443.649 205.373C430.254 198.44 417.783 198.902 405.312 208.146L397.922 200.751ZM483.834 286.713C492.61 275.159 493.534 260.832 487.067 247.429C486.144 244.656 484.758 241.883 487.067 239.573C491.224 235.413 494.458 239.573 494.92 240.035L519.862 264.991L491.224 293.645L483.834 286.713ZM439.492 242.346C443.187 235.875 440.878 228.481 437.183 222.473C435.797 219.7 434.411 216.927 437.183 214.154C440.878 210.456 445.035 215.54 445.959 216.465L472.749 243.27C473.672 244.194 478.753 247.892 475.058 252.051C472.287 254.824 469.515 253.437 466.744 252.051C461.201 248.816 453.811 246.505 447.344 250.202L439.492 242.346Z" fill="white"/>
</svg>
