<svg width="1000" height="1000" viewBox="0 0 1000 1000" fill="none" xmlns="http://www.w3.org/2000/svg">
<rect width="1000" height="1000" rx="500" fill="#0078A8"/>
<path fill-rule="evenodd" clip-rule="evenodd" d="M574.083 250.345C574.083 283.273 554.875 318.946 508.226 316.202C456.089 313.458 442.369 277.785 442.369 250.345C442.369 200.952 472.554 179 508.226 179C543.899 179 574.083 200.952 574.083 250.345ZM368.291 299.731C371.035 217.41 247.553 222.898 253.041 299.731C244.809 382.052 376.523 382.052 368.291 299.731ZM752.453 340.896C755.197 258.575 637.203 258.575 637.203 340.896C634.459 414.985 755.197 420.473 752.453 340.896ZM508.226 596.087L469.81 332.66C494.506 321.684 521.947 324.428 543.899 332.66L508.226 596.087ZM570.06 344.295C572.173 345.86 574.386 347.498 576.843 349.136C598.795 365.6 612.515 390.296 607.027 414.993L541.17 598.843L554.89 335.416C560.666 337.341 565.09 340.616 570.06 344.295ZM436.889 349.125C414.937 365.589 401.217 390.286 406.705 417.726L472.562 601.576L458.842 338.149C450.609 338.149 442.377 343.637 436.889 349.125ZM355.119 467.781L355.116 467.775L355.115 467.773L355.114 467.772L355.113 467.771L355.113 467.77L355.112 467.768L355.111 467.767L355.11 467.766L355.11 467.765L355.109 467.763L355.108 467.762L355.107 467.761L355.107 467.759L355.106 467.758C337.549 436.154 319.991 404.551 302.433 373.825C302.433 373.825 357.314 368.337 382.011 404.01C397 424.619 408.151 481.05 418.958 535.74C423.978 561.147 428.925 586.178 434.147 607.068C407.805 562.615 381.462 515.198 355.119 467.781ZM225.605 412.239L403.968 620.786L294.206 376.567C266.766 373.823 242.069 390.287 225.605 412.239ZM571.343 612.558L601.527 469.868C612.503 428.707 650.92 414.987 683.848 412.243C672.008 433.386 660.429 454.268 648.95 474.97C623.182 521.438 597.919 566.998 571.343 612.558ZM697.559 412.243L601.518 623.534L766.16 442.428C749.696 420.475 725 412.243 697.559 412.243ZM379.266 640.003C318.898 596.099 261.273 552.194 203.648 505.546C200.904 472.617 206.392 442.433 220.112 417.736L379.266 640.003ZM788.128 467.119C785.384 458.886 779.896 453.398 774.407 447.91L631.717 645.481C656.932 626.27 681.621 607.059 706.015 588.078L706.022 588.072C737.374 563.676 768.239 539.66 799.104 516.511C799.104 500.047 796.36 480.839 788.128 467.119ZM354.565 667.436L203.642 596.091L200.898 519.258C253.035 565.907 302.428 615.3 354.565 667.436ZM799.099 601.576V530.231L653.665 670.177C687.481 655.147 718.725 640.118 751.799 624.208L751.8 624.207L751.804 624.206L751.841 624.188L751.865 624.176C767.079 616.858 782.681 609.353 799.099 601.576ZM340.834 697.625C299.674 689.393 250.281 678.417 203.632 667.441V607.072L340.834 697.625ZM799.087 670.18V615.299C766.025 635.963 732.963 658.183 701.073 679.616C690.614 686.644 680.282 693.588 670.117 700.365L799.087 670.18ZM338.09 736.045H203.632V678.421L338.09 736.045ZM799.104 736.037V683.9C755.2 703.109 716.783 719.573 672.878 736.037H799.104Z" fill="white"/>
</svg>
