<svg width="1000" height="1000" viewBox="0 0 1000 1000" fill="none" xmlns="http://www.w3.org/2000/svg">
<rect width="1000" height="1000" rx="500" fill="#01216A"/>
<path d="M500 262L706.667 355.187H835.467V393.147H900V648.667H100V393.147H164.533V355.187H293.467L500 262ZM761.067 455.6C741.867 455.6 727.4 462.507 717.933 476.107C713.99 482.35 711.728 489.506 711.366 496.882C711.004 504.257 712.554 511.601 715.867 518.2C724.533 533.08 738.4 539.307 751.867 545.4C757.467 547.907 763.2 550.467 768.533 553.667C774.667 557.307 777.8 562.8 776.533 567.733C775.2 572.8 769.333 576.267 761.867 576.267C760.867 576.267 759.867 576.187 758.467 576C745.6 574.227 720.867 565.36 715.8 563.533L714 562.867V596.227L714.467 596.36C715.133 596.56 742.933 605.693 767.667 605.693C781.267 605.693 791.533 602.987 798.133 597.573C802.875 593.461 806.741 588.436 809.501 582.799C812.261 577.162 813.859 571.027 814.2 564.76C814.307 558.585 812.912 552.476 810.133 546.96L809.467 545.6C803.467 533.693 790.133 523.813 768.533 515.227L767.8 514.96C763.467 513.253 750.533 508.187 749.133 500.067C748.96 498.577 749.148 497.067 749.682 495.665C750.215 494.263 751.079 493.01 752.2 492.013C754.933 489.307 759.067 487.88 764.6 487.88C773.333 487.88 783.333 491.4 788.533 493.573L809.067 502.093L810 502.493V472.053L809.667 471.84C796.875 464.056 782.782 458.649 768.067 455.88C765.738 455.697 763.403 455.595 761.067 455.6ZM227.867 565.773V420.827H191.8V600.347H283.6V565.84H227.867V565.773ZM683.6 489.373V455.333H598.333V600.347H683.667V566.307H634.333V544.267H683.667V511.587H634.333V489.32H683.667L683.6 489.373ZM408.2 473.813C408.344 469.066 406.6 464.456 403.351 460.992C400.102 457.528 395.613 455.493 390.867 455.333H320.667C318.322 455.401 316.014 455.933 313.876 456.899C311.739 457.865 309.814 459.245 308.213 460.96C304.96 464.427 303.213 469.093 303.333 473.88V581.813C303.333 592.027 311.067 600.347 320.667 600.347H390.933C400.533 600.347 408.267 592.027 408.267 581.813V473.867L408.2 473.8V473.813ZM464.867 566.453V455.333H427.867V581.867C427.867 592.027 435.733 600.347 445.4 600.347H489.067C496.4 600.347 503.267 594.933 503.267 587.227C503.267 595 510.133 600.347 517.467 600.347H561.133C565.913 600.204 570.441 598.173 573.726 594.7C577.012 591.227 578.789 586.593 578.667 581.813V455.333H541.733V566.453H519.467V455.333H487.067V566.453H464.8H464.867ZM339.667 489.373H371.667V566.307H339.667V489.373ZM717.2 462.307L722.867 420.827H690.133V462.16L717.2 462.24V462.307Z" fill="white"/>
</svg>
