<svg width="1000" height="1000" viewBox="0 0 1000 1000" fill="none" xmlns="http://www.w3.org/2000/svg">
<circle cx="500" cy="500" r="352" fill="white" stroke="#666666" stroke-width="10"/>
<path fill-rule="evenodd" clip-rule="evenodd" d="M552.895 321.746C552.895 345.257 539.18 370.728 505.873 368.768C468.648 366.809 458.852 341.339 458.852 321.746C458.852 286.48 480.403 270.806 505.873 270.806C531.343 270.806 552.895 286.48 552.895 321.746ZM405.96 357.008C407.919 298.231 319.753 302.15 323.671 357.008C317.794 415.786 411.837 415.786 405.96 357.008ZM680.251 386.399C682.211 327.622 597.963 327.622 597.963 386.399C596.004 439.299 682.211 443.217 680.251 386.399ZM505.874 568.606L478.444 380.519C496.078 372.682 515.67 374.641 531.344 380.519L505.874 568.606ZM550.023 388.827C551.532 389.944 553.112 391.113 554.866 392.283C570.54 404.038 580.336 421.672 576.417 439.305L529.396 570.574L539.192 382.487C543.315 383.861 546.475 386.2 550.023 388.827ZM454.939 392.275C439.265 404.031 429.468 421.664 433.387 441.256L480.409 572.526L470.613 384.438C464.735 384.438 458.857 388.357 454.939 392.275ZM396.556 476.996C384.016 454.426 371.477 431.855 358.938 409.912C358.938 409.912 398.123 405.993 415.756 431.463C426.458 446.179 434.42 486.47 442.137 525.519C445.721 543.659 449.253 561.532 452.982 576.447C434.173 544.707 415.364 510.852 396.556 476.996ZM304.082 437.338L431.432 586.241L353.063 411.868C333.47 409.909 315.837 421.665 304.082 437.338ZM550.939 580.367L572.49 478.486C580.327 449.098 607.757 439.301 631.268 437.342C622.815 452.435 614.549 467.342 606.355 482.12L606.351 482.128L606.35 482.129C587.952 515.307 569.914 547.837 550.939 580.367ZM641.058 437.342L572.484 588.204L690.039 458.894C678.283 443.22 660.65 437.342 641.058 437.342ZM413.796 599.963C370.693 568.615 329.549 537.267 288.405 503.96C286.446 480.449 290.364 458.897 300.16 441.264L413.796 599.963ZM705.723 476.523C703.764 470.645 699.845 466.726 695.927 462.808L594.046 603.873C612.05 590.156 629.678 576.439 647.096 562.887L647.096 562.886L647.097 562.886L647.097 562.885L647.098 562.885L647.098 562.885L647.099 562.884L647.099 562.884L647.1 562.884C669.485 545.465 691.523 528.317 713.56 511.789C713.56 500.034 711.601 486.319 705.723 476.523ZM396.159 619.549L288.401 568.609L286.441 513.75C323.667 547.058 358.933 582.324 396.159 619.549ZM713.557 572.525V521.585L609.718 621.507C633.863 610.775 656.171 600.044 679.787 588.684C690.664 583.452 701.818 578.086 713.557 572.525ZM386.355 641.105C356.967 635.227 321.7 627.39 288.393 619.553V576.45L386.355 641.105ZM713.547 621.509V582.324C689.941 597.078 666.335 612.943 643.566 628.245L643.565 628.246L643.549 628.257L643.499 628.291L643.432 628.335C636.01 633.323 628.678 638.251 621.463 643.061L713.547 621.509ZM384.396 668.536H288.393V627.392L384.396 668.536ZM713.56 668.531V631.305C682.212 645.02 654.782 656.775 623.435 668.531H713.56Z" fill="#0078A8"/>
</svg>
