<svg width="1000" height="1000" viewBox="0 0 1000 1000" fill="none" xmlns="http://www.w3.org/2000/svg">
<g clip-path="url(#clip0_224_14)">
<rect width="1000" height="1000" rx="500" fill="white"/>
<path d="M1000 0H0V1000H1000V0Z" fill="white"/>
<path d="M318.893 710.531H281.074C276.992 710.531 272.002 712.288 271.548 705.261C271.151 699.537 274.667 699.084 278.919 698.631C291.337 697.384 296.78 689.79 296.893 677.89L297.12 624.677C297.234 618.33 294.739 616.573 288.785 616.63C267.882 616.903 246.976 616.866 226.075 616.516C219.554 616.403 218.08 619.066 218.137 624.903L218.42 676.926C218.477 689.11 223.24 697.554 236.564 698.687C241.1 699.084 244.162 700.217 243.538 705.658C242.915 710.701 239.456 710.815 235.77 710.588C209.802 708.945 183.776 708.718 157.808 710.588C154.292 710.815 150.663 710.985 150.21 705.658C149.756 700.161 152.648 699.197 157.184 698.687C169.544 697.441 175.328 689.563 175.385 677.89V543.072C175.328 530.832 169.318 522.841 156.333 521.878C152.024 521.538 149.87 520.348 150.096 515.531C150.38 510.43 153.555 509.92 157.354 510.204C183.776 512.074 210.142 511.734 236.507 510.147C240.703 509.92 243.255 511.167 243.595 515.871C243.935 520.858 240.987 521.198 237.075 521.934C222.956 524.541 218.93 528.961 218.477 543.186C217.967 559.733 218.477 576.281 218.08 592.828C217.91 599.289 220.688 600.932 226.471 600.875L287.991 600.819C295.533 600.932 297.347 597.872 297.177 590.958C296.78 575.601 297.29 560.186 296.95 544.829C296.61 529.301 292.981 524.938 277.502 521.821C273.022 520.914 271.378 519.498 271.662 515.077C271.945 510.77 274.553 509.864 278.069 510.147C304.831 512.074 331.651 511.451 358.413 510.034C362.212 509.864 365.387 510.147 365.444 515.417C365.501 519.951 363.856 521.028 359.434 521.821C344.578 524.485 340.156 528.848 339.986 543.696L339.929 677.323C339.986 689.393 345.656 697.837 358.867 698.574C363.913 698.857 365.727 700.614 365.387 705.714C365.047 711.381 361.191 710.418 357.789 710.418H318.78C318.893 710.645 318.893 710.588 318.893 710.531ZM766.315 710.078C744.542 708.094 720.558 709.511 696.517 710.588C692.945 710.758 688.295 712.118 687.785 705.771C687.332 700.387 690.053 699.141 694.646 698.801C707.177 697.781 712.733 689.79 712.847 678.173L712.903 542.222C712.847 530.548 706.496 522.954 694.192 521.934C690.053 521.594 687.729 520.688 687.842 515.814C687.955 510.544 691.131 510.09 694.873 510.374C721.238 512.357 747.604 511.677 774.026 510.26C777.882 510.034 781.057 510.487 781.341 515.531C781.567 520.121 779.413 521.141 775.16 522.048C760.475 525.051 756.222 529.528 756.109 544.262L756.166 667.236C756.449 687.07 765.068 694.947 784.799 695.514C807.99 696.137 828.005 694.154 836.964 659.245C838.154 654.485 840.196 651.821 845.866 652.218C852.386 652.671 850.969 657.148 850.912 660.719L850.005 702.031C849.948 709.455 846.376 711.211 839.572 710.871C827.778 710.248 815.928 710.248 804.078 710.135L766.315 710.078ZM593.946 710.701C565.936 707.868 542.349 709.795 518.705 710.531C515.246 710.645 510.653 712.515 509.803 705.998C508.952 699.594 512.525 699.027 517.287 698.631C530.045 697.611 535.148 689.053 535.261 677.719V542.959C535.148 530.945 529.194 522.671 516.097 521.878C512.014 521.651 509.576 520.914 509.69 515.927C509.803 509.864 513.659 509.92 517.684 510.26C543.653 512.301 569.678 511.621 595.647 510.204C599.956 509.977 603.529 510.374 603.699 516.097C603.869 521.254 600.58 521.254 596.895 521.991C582.89 524.825 578.524 529.415 578.41 543.469L578.524 667.632C578.751 686.9 586.632 694.097 606.25 695.514C636.188 697.724 650.25 688.43 659.038 660.039C660.626 654.882 662.27 651.651 668.45 652.105C675.935 652.728 673.27 658.282 673.27 661.852C673.213 674.433 672.419 687.07 672.249 699.651C672.136 707.641 669.811 711.268 660.569 710.985C636.925 710.191 613.224 710.701 593.946 710.701ZM438.984 710.588H401.222C397.763 710.588 393.964 711.438 393.454 705.941C392.944 700.784 395.042 699.197 399.975 698.744C412.959 697.554 418.175 689.507 418.175 677.096L418.289 544.716C418.289 531.455 412.675 522.728 398.387 521.878C393.964 521.594 393.397 519.214 393.454 515.644C393.511 511.564 395.609 509.977 399.407 510.26C426.567 512.017 453.726 511.677 480.886 510.26C485.025 510.034 486.216 512.244 486.329 516.041C486.499 519.951 484.968 521.141 481.169 522.048C464.499 526.241 460.984 529.812 460.757 546.982L460.814 673.469C461.041 691.66 464.273 695.06 480.659 698.631C485.025 699.594 486.499 701.011 486.386 705.374C486.216 710.701 482.927 710.588 479.185 710.588C465.804 710.531 452.422 710.588 439.041 710.588H438.984Z" fill="#E6232B"/>
<path d="M786.332 330.32C792.196 335.706 799.715 335.222 806.268 337.087C832.481 344.544 848.967 364.086 850.899 390.74C852.83 417.255 839.241 439.283 813.925 449.917C790.402 459.791 765.5 461.586 740.46 460.62C713.143 459.515 685.826 458.341 658.51 460.482C653.888 460.827 648.714 462.001 648.162 454.405C647.68 447.5 651.611 446.671 656.923 446.119C672.996 444.531 679.135 433.966 679.204 419.327V259.266C679.066 239.793 674.996 235.788 654.233 230.678C649.197 229.435 648.231 227.157 648.231 222.875C648.231 217.766 651.129 215.901 655.543 216.385C696.656 221.425 738.114 212.518 779.089 219.009C793.299 221.287 807.165 225.223 818.754 234.752C846.07 257.332 843.035 300.006 812.407 317.89C804.267 322.724 795.369 326.107 786.332 330.32ZM730.94 381.072H731.492C731.492 392.121 730.802 403.169 731.63 414.148C732.941 431.756 739.77 439.973 753.152 442.114C768.949 444.669 782.193 436.866 788.402 421.329C793.368 408.969 793.023 396.057 792.127 383.075C790.195 356.421 775.364 342.68 748.668 341.161C735.976 340.47 728.526 343.025 730.802 358.078C731.837 365.605 730.94 373.408 730.94 381.072ZM730.94 278.6V314.576C730.94 319.34 731.492 322.448 737.631 323.207C757.015 325.624 773.571 316.509 778.882 299.661C786.815 274.388 779.089 245.455 761.706 238.136C755.704 235.581 748.737 234.545 742.115 234.269C735.148 233.924 730.457 237.1 730.802 245.524C731.285 256.504 730.94 267.552 730.94 278.6ZM520.271 464.348C448.944 464.279 398.174 412.215 398.45 339.296C398.656 264.859 448.668 213.277 520.823 213.001C593.391 212.725 644.299 264.928 644.437 339.642C644.644 412.146 592.563 464.418 520.271 464.348ZM456.049 336.12C456.739 347.168 456.877 358.216 458.187 369.196C459.291 378.241 461.292 387.218 463.706 395.988C472.398 427.613 492.54 445.981 518.822 446.602C546.967 447.293 568.558 432.447 577.525 402.824C590.77 358.976 590.563 314.576 574.904 271.211C565.454 245.11 545.311 230.885 520.961 230.885C496.334 230.816 477.364 244.765 466.879 271.073C458.532 291.927 456.463 313.885 456.049 336.12ZM347.817 379.208L347.61 271.073C347.265 252.568 343.747 234.959 320.983 230.954C315.258 229.919 316.569 225.707 316.5 222.116C316.431 216.385 320.569 216.316 324.501 216.661C345.127 218.594 365.683 218.387 386.309 216.661C390.241 216.316 394.38 216.247 394.242 222.047C394.173 225.707 395.621 230.264 390.103 231.3C365.338 235.857 365.821 255.399 365.683 273.697L365.269 449.571C365.269 454.888 369.753 462.967 360.579 465.384C352.232 467.594 346.575 463.658 341.195 456.753L210.958 291.651L201.921 280.741C200.611 281.569 199.231 282.053 199.231 282.467C199.369 326.176 197.024 369.886 200.473 413.527C201.714 429.132 207.578 441.631 224.409 445.359C229.997 446.602 230.963 449.779 230.618 454.681C230.135 461.241 225.582 460.62 221.236 460.205C201.576 458.617 181.986 458.272 162.326 460.205C158.118 460.62 153.565 461.517 152.738 454.888C151.91 448.812 154.669 445.912 160.05 444.738C176.26 441.285 181.296 429.892 181.296 414.977L181.227 262.166C181.089 247.113 171.708 237.722 158.118 232.543C153.083 230.609 148.185 229.712 149.22 222.254C150.461 212.932 156.876 217.282 161.291 217.282C168.948 217.213 177.088 219.699 184.193 217.904C210.82 210.999 225.789 223.704 240.62 244.281C271.248 286.679 304.566 327.074 336.849 368.298C339.746 371.958 341.678 376.515 347.817 379.208Z" fill="#E6232B"/>
<path d="M256.355 775.347H156.017C154.267 775.347 152.549 775.347 150.8 775.223C148.957 775.099 149.082 773.67 149.082 772.366C149.082 771.186 149.457 770.254 150.831 770.192C152.569 770.13 154.309 770.099 156.048 770.099L357.381 770.068L361.941 770.161C363.597 770.223 364.097 771.217 364.128 772.707C364.159 774.26 363.472 775.161 361.91 775.223L356.693 775.316L256.355 775.347ZM747.019 775.347H649.961C648.222 775.347 646.482 775.316 644.744 775.254C643.088 775.192 642.589 774.167 642.589 772.676C642.589 771.155 643.088 770.161 644.744 770.13L649.305 770.099L844.733 770.13H848.638C850.138 770.13 851.012 770.751 851.075 772.397C851.137 774.167 850.669 775.347 848.638 775.316L844.077 775.347H747.019ZM523.57 773.701C523.351 784.695 515.167 792.272 503.764 791.993C492.831 791.713 485.334 784.011 485.709 773.391C486.052 763.391 494.143 755.969 504.608 756.062C516.197 756.186 523.788 763.236 523.57 773.701ZM518.322 773.111C518.228 764.23 512.667 758.205 504.608 758.329C496.58 758.422 490.925 765.348 491.082 774.912C491.207 783.794 496.861 789.912 504.764 789.819C512.605 789.726 518.415 782.552 518.322 773.111ZM429.292 774.012C429.292 763.546 437.32 755.721 448.16 756.093C458 756.435 467.528 763.018 467.028 773.825C466.559 783.701 458.219 791.961 447.91 791.961C436.602 791.993 429.292 784.943 429.292 774.012ZM461.561 773.266C461.436 764.385 455.907 758.267 448.035 758.329C439.819 758.391 434.509 764.975 434.634 774.85C434.79 784.105 439.913 789.819 448.066 789.726C455.845 789.632 461.686 782.49 461.561 773.266ZM545.53 773.919C545.53 773.701 545.499 773.484 545.53 773.266C545.968 767.987 543.125 759.882 546.78 758.081C551.966 755.503 559.463 756.901 565.867 757.522C572.052 758.143 576.207 763.919 576.831 770.999C577.55 779.012 573.177 787.179 566.585 789.601C560.556 791.806 554.184 791.123 547.905 791.123C545.187 791.123 545.53 789.198 545.499 787.521L545.53 773.919ZM549.935 773.639L549.873 783.297C549.342 787.831 551.747 788.763 555.558 788.856C567.46 789.198 574.176 780.067 570.834 767.925C569.022 761.341 563.055 758.174 554.246 759.105C546.78 759.882 550.935 765.627 549.998 769.136C549.623 770.565 549.935 772.148 549.935 773.639ZM608.664 756C609.976 756.342 611.694 756.621 613.287 757.242C614.693 757.77 616.098 758.515 615.192 760.565C614.037 763.174 613.037 761.466 611.85 760.596C608.289 757.925 604.665 757.894 602.478 761.9C600.198 766.093 602.916 768.764 606.696 770.472L609.663 771.776C616.879 774.943 619.035 779.508 616.192 785.347C613.256 791.34 604.696 793.794 598.761 790.533C596.824 789.477 596.106 788.018 597.074 786.372C598.855 783.235 599.761 786.651 600.729 787.272C605.384 790.284 609.726 789.912 611.85 785.626C614.224 780.813 611.6 777.894 607.289 775.999L604.29 774.788C599.23 772.832 596.449 769.416 597.574 763.795C598.73 758.019 603.291 756.745 608.664 756ZM407.518 773.018C397.022 775.533 397.054 775.533 396.46 786.558C396.366 788.328 397.116 790.812 394.117 790.999C390.712 791.216 391.806 788.514 391.774 786.868L391.649 761.621C391.524 757.801 392.993 756.714 396.554 757.087C400.833 757.522 405.176 756.497 409.861 757.832C407.487 761.31 404.176 759.758 401.646 759.571C396.96 759.23 396.273 761.435 396.366 765.285C396.46 768.981 396.148 772.304 401.583 771.683C403.301 771.496 405.425 770.72 407.518 773.018Z" fill="#E6232B"/>
</g>
<rect x="5" y="5" width="990" height="990" rx="495" stroke="#666666" stroke-width="10"/>
<defs>
<clipPath id="clip0_224_14">
<rect width="1000" height="1000" rx="500" fill="white"/>
</clipPath>
</defs>
</svg>
