<svg width="1000" height="1000" viewBox="0 0 1000 1000" fill="none" xmlns="http://www.w3.org/2000/svg">
<rect width="1000" height="1000" rx="500" fill="#4F3D1F"/>
<path fill-rule="evenodd" clip-rule="evenodd" d="M626.611 516.307H621.783C618.771 516.307 613.513 513.869 613.513 506.125C613.513 493.122 614.182 468.216 614.182 444.075C614.182 412.333 613.513 381.93 613.513 381.93C613.513 376.337 617.863 371.795 623.265 371.795H638.849C659.454 371.795 673.27 378.153 680.393 383.412C696.79 395.554 708.455 416.397 708.455 444.362C708.455 465.874 701.475 516.307 626.611 516.307ZM466.462 310.224L465.936 310.845C463.307 313.953 460.773 317.155 457.905 320.741L457.571 321.123C454.463 325.043 451.165 329.059 447.866 332.931C441.173 340.818 434.146 349.28 426.258 358.793C423.15 362.569 418.944 364.864 413.446 365.868C412.251 366.107 411.056 366.202 409.908 366.202C404.984 366.202 400.825 364.147 397.431 360.131C395.519 357.884 393.75 355.494 392.029 353.152C390.595 351.192 389.113 349.232 387.679 347.415C382.994 341.535 377.974 335.703 373.241 330.063L373.098 329.823C369.465 325.521 365.688 321.123 361.959 316.582C360.382 314.67 358.804 312.853 357.179 310.941C354.645 308.025 352.063 305.013 349.673 301.906C346.47 297.651 346.9 293.11 350.773 289.716C352.828 287.947 354.502 287.421 357.035 287.756C357.848 287.899 360.621 288.855 362.676 290.672C363.967 291.771 369.895 298.034 372.285 300.95C374.723 303.962 377.4 307.547 379.982 310.941C382.516 314.335 385.097 317.872 387.583 320.884C389.352 323.035 391.264 325.186 392.937 327.146L393.129 327.29C394.754 329.154 396.475 331.114 398.1 333.074C399.487 334.747 406.801 342.97 408.57 344.738C408.952 345.073 409.382 345.169 409.813 345.169C410.243 345.169 410.721 344.93 410.96 344.595C412.538 342.731 414.211 341.01 415.836 339.336L416.075 339.097C417.748 337.377 419.565 335.512 421.19 333.504C424.632 329.345 428.361 325.473 431.947 321.745C435.436 318.064 439.022 314.335 442.416 310.319C444.806 307.451 447.005 304.487 449.013 301.858C451.021 299.086 453.125 296.265 455.371 293.588C457.714 290.768 461.347 287.326 465.124 287.087C467.084 286.943 468.9 287.66 470.717 289.238L470.86 289.381L471.052 289.525C477.601 295.644 472.821 302.48 466.462 310.128V310.224ZM466.893 410.947L466.319 411.616L453.316 427.535L452.599 428.443C441.317 442.258 428.505 457.938 425.063 461.571C421.382 465.921 415.597 469.602 409.813 469.602C407.948 469.602 406.084 469.22 404.219 468.312C398.722 466.543 393.846 460.185 389.495 454.64C387.344 451.819 385.241 449.142 383.424 447.421C376.827 439.534 370.038 431.311 363.537 423.376L362.676 422.372C348.956 405.688 334.806 388.479 321.803 373.612C316.831 367.636 311.62 361.518 306.552 355.542L306.218 355.16C295.94 343.065 285.375 330.541 276.148 318.924C274.857 317.347 273.423 315.817 271.989 314.239C269.264 311.323 266.396 308.264 264.531 304.965C262.38 302.384 261.233 299.755 261.615 294.257C261.902 290.194 264.149 287.852 265.966 286.609C268.977 284.553 273.184 284.027 276.674 285.27C280.068 286.513 284.371 291.963 287.813 296.313C288.625 297.365 289.342 298.273 290.012 299.086C290.968 300.233 390.165 421.607 409 445.605C409.287 445.987 409.765 446.226 410.243 446.226C410.578 446.226 411.151 446.131 411.534 445.653L416.458 439.868C423.82 431.168 437.492 414.867 443.85 407.601L446.432 404.541C448.057 402.581 449.683 400.669 452.216 397.801L453.411 396.319C455.132 394.215 456.328 392.686 460.295 390.63H460.439C464.455 389.865 468.853 392.686 471.195 395.697C474.207 401.243 471.482 405.306 466.94 410.947H466.845H466.893ZM468.614 613.492C464.837 616.695 458.861 617.843 454.654 612.775C443.802 599.725 433.333 585.766 423.246 572.19C419.23 566.836 415.31 561.577 411.295 556.319C411.008 555.889 410.578 555.697 410.052 555.697C409.669 555.602 409.096 555.936 408.809 556.271C407.996 557.275 403.694 562.246 397.718 569.082C382.324 586.77 353.784 619.659 339.491 636.821C329.021 649.441 307.509 676.833 294.649 693.182C289.247 700.065 285.327 704.941 284.944 705.372C281.837 708.575 278.156 710.343 274.666 710.343H273.806C270.889 710.009 268.451 708.479 266.491 705.658C262.906 700.4 264.579 693.564 268.069 689.453C270.077 687.063 277.534 678.697 286.139 669.088C301.246 652.166 321.85 629.124 331.65 617.508C352.637 592.506 398.005 541.308 401.686 538.775C405.606 536.193 410.291 534.711 414.45 534.711C418.991 534.711 422.72 536.385 425.254 539.54C427.501 542.456 438.257 556.988 448.583 571.09L448.87 571.473C456.997 582.515 465.458 593.988 470.287 600.49C474.207 605.7 471.817 610.815 468.566 613.54L468.614 613.492ZM468.183 710.535C464.55 713.642 458.574 714.693 454.415 709.722C446.097 699.922 438.496 688.784 431.23 678.076C425.445 669.662 419.517 660.914 413.207 652.883C412.872 652.5 412.442 652.214 411.964 652.214C411.295 652.261 410.96 652.548 410.673 652.883C398.005 669.375 366.74 707.81 365.019 709.913C361.911 713.594 357.179 716.032 353.067 716.032H352.542C349.578 715.889 347.235 714.598 345.562 712.208C339.921 704.177 345.705 696.098 353.306 687.111L355.362 684.673C360.86 677.98 366.357 671.335 371.807 664.69L372.476 663.926C378.261 656.851 384.189 649.776 389.926 642.748L390.212 642.366C393.033 638.972 396.188 635.148 399.726 632.757C403.072 630.511 407.327 629.268 411.438 629.268C416.458 629.268 420.904 631.132 423.915 634.574C427.644 638.924 431.421 644.23 435.054 649.393L435.436 650.015C436.727 651.783 437.97 653.6 439.165 655.225C443.85 661.631 448.487 668.085 453.125 674.538L454.75 676.833C459.77 683.812 464.837 690.791 469.904 697.771C473.681 703.029 471.386 707.953 468.231 710.678H468.183V710.535ZM274.14 582.515C274.857 581.607 275.527 580.842 276.148 580.125C282.937 571.712 298.282 553.69 310.664 539.157L310.903 538.87C319.699 528.497 327.348 519.558 329.738 516.546C331.316 514.634 341.785 501.296 342.359 498.619C342.741 496.946 341.164 495.082 337.674 491.592L337.578 491.401C337.148 490.923 336.766 490.541 336.527 490.301C331.029 483.752 326.487 477.777 322.185 471.993C317.739 466.113 313.197 460.137 307.7 453.492C302.776 447.565 295.223 439.486 287.908 431.646C276.626 419.504 263.958 405.88 262.332 401.768C259.129 393.737 263.002 389.387 264.723 387.858C266.587 386.28 268.834 385.467 271.176 385.467C272.85 385.467 274.523 385.898 275.813 386.854C281.598 390.869 313.628 429.304 328.208 447.278C331.077 450.768 333.802 454.64 336.335 458.273C338.965 462.002 341.69 465.874 344.606 469.507C346.088 471.276 347.665 472.901 349.243 474.478C350.868 476.056 352.302 477.538 353.689 479.211C354.597 480.31 355.649 481.506 356.796 482.796C359.521 485.808 362.581 489.202 363.871 492.453C366.262 498.715 361.72 504.069 357.322 509.232L356.079 510.762C340.686 529.166 314.345 562.055 296.896 583.806L296.752 584.045C287.478 595.566 280.164 604.649 279.447 605.461C277.869 607.134 275.383 608.043 272.754 608.043C271.989 608.043 271.176 607.995 270.411 607.804C267.304 607.087 265.057 605.127 264.149 602.497C262.141 596.474 269.599 587.678 274.045 582.468L274.14 582.515ZM759.893 276.809C740.58 262.515 702.957 245.306 647.072 245.306C630.723 245.306 587.984 243.968 575.794 244.35C575.794 244.35 366.979 243.107 262.284 245.306C246.27 245.641 226 255.823 226 280.06C226 280.06 226.382 438.052 226.382 492.214C226.382 551.825 226 730.708 226 730.708C226 757 247.656 757 257.504 757H582.917C592.956 757 613.513 757 613.513 738.165L613.943 637.442C816.973 637.442 836 500.627 836 442.163C836 366.394 804.353 309.698 759.846 276.809H759.893Z" fill="white"/>
</svg>
