<svg width="1000" height="1000" viewBox="0 0 1000 1000" fill="none" xmlns="http://www.w3.org/2000/svg">
<rect width="1000" height="1000" rx="100" fill="#D0D0D0"/>
<path d="M159.754 396C187.184 396 207.784 399.788 223.055 409.919C224.879 411.15 226.631 412.485 228.301 413.917C233.811 418.745 238.219 424.697 241.23 431.372C244.241 438.047 245.784 445.291 245.755 452.612C245.755 482.595 232.35 503.608 209.368 511.487C208.417 511.804 207.455 512.12 206.48 512.39L208.171 515.216L228.195 548.364L245.18 576.506C253.701 590.834 256.882 593.262 260.039 594.528C262.727 595.595 263.936 598.563 259.582 600.485C259.101 600.696 258.619 600.884 258.126 601.071C254.441 602.655 248.677 605 242.703 605H240.145C237.707 604.995 235.273 604.839 232.855 604.531C216.271 602.643 207.925 593.767 198.405 577.75L190.858 565.016L175.482 538.831L163.216 518.019H145.763V588.197H107.346C103.977 588.233 103.39 586.227 104.728 584.48C105.901 582.921 107.274 580.775 107.861 574.044V408.605C107.274 403.317 105.901 401.229 104.728 399.658C103.402 397.911 103.719 396 107.099 396H159.754ZM454.622 423.509C479.742 423.73 498.748 427.413 512.973 436.784C522.571 443.232 529.903 452.525 533.937 463.354C538.491 474.846 540.696 489.116 540.696 506.563C540.696 526.755 537.071 542.597 530.134 554.792C523.196 566.987 512.903 575.57 499.897 580.765C486.892 585.959 471.328 588.304 453.217 588.304H402.357V423.499H452.172L454.622 423.509ZM730.787 588.304H693.074C692.793 588.267 693.074 423.48 693.074 423.475H730.787V588.304ZM376.676 423.499V450.526H309.443V491.203H353.083V518.044H309.443V560.948H376.699V588.269H271.695V423.499H376.676ZM669.235 450.608L601.967 450.597V491.18H645.513V518.02H601.967V588.245H564.301V423.475H669.235V450.608ZM858.679 518.02V423.475H896.544V588.245H865.616L796.282 491.202V588.245H758.393V423.475H788.594L858.679 518.02ZM439.977 561.194H457.807C470.318 561.194 480.448 558.579 487.15 553.89C493.254 549.528 497.186 543.242 499.639 535.034C502.092 526.802 503.008 516.612 503.008 504.711C503.008 492.81 501.928 483.182 499.486 475.572C497.045 467.963 493.313 462.393 487.937 458.395C480.601 452.942 469.696 450.597 454.954 450.597H439.977V561.194ZM145.763 491.178H170.165C205.987 491.178 206.821 464.725 206.821 455.731C206.939 450.419 206.051 445.131 204.204 440.147C202.92 436.806 200.916 433.789 198.335 431.307C191.456 425.045 182.243 423.485 170.165 423.485H145.763V491.178Z" fill="white"/>
</svg>
