<svg width="1000" height="1000" viewBox="0 0 1000 1000" fill="none" xmlns="http://www.w3.org/2000/svg">
<g clip-path="url(#clip0_14_9)">
<path d="M500 200C665.685 200 800 334.315 800 500C800 665.685 665.685 800 500 800C334.315 800 200 665.685 200 500C200 334.315 334.315 200 500 200ZM512.713 271.082C505.594 264.976 494.917 264.976 487.798 271.082L265.604 453.781C251.366 465.487 259.503 488.896 278.314 488.896H326.618V655.819C326.618 670.07 338.313 681.773 352.549 681.773H647.452C661.69 681.773 673.383 670.068 673.383 655.819V488.388H721.686C740.499 488.388 748.635 465.486 734.397 453.78L734.396 453.782L652.535 386.097V327.062C652.535 319.429 646.434 313.323 638.808 313.323H617.453C609.827 313.323 603.726 319.429 603.726 327.062V345.892L512.713 271.082Z" fill="black"/>
<g clip-path="url(#clip1_14_9)">
<rect x="50" y="50" width="900" height="900" rx="450" stroke="#FF0000" stroke-width="100"/>
<path d="M202.941 203.192L796.558 796.808" stroke="#FF0000" stroke-width="100"/>
</g>
</g>
<defs>
<clipPath id="clip0_14_9">
<rect width="1000" height="1000" rx="500" fill="white"/>
</clipPath>
<clipPath id="clip1_14_9">
<rect width="1000" height="1000" fill="white"/>
</clipPath>
</defs>
</svg>
