<svg width="1000" height="1000" viewBox="0 0 1000 1000" fill="none" xmlns="http://www.w3.org/2000/svg">
<g clip-path="url(#clip0_227_33)">
<path d="M500 0C776.142 0 1000 223.858 1000 500C1000 776.142 776.142 1000 500 1000C223.858 1000 0 776.142 0 500C0 223.858 223.858 0 500 0ZM521.187 118.47C509.322 108.293 491.527 108.293 479.662 118.47L109.338 422.969C85.6089 442.478 99.1704 481.494 130.523 481.494H211.029V759.699C211.029 783.45 230.521 802.956 254.247 802.956H745.753C769.482 802.956 788.971 783.446 788.971 759.699V480.646H869.476C900.832 480.646 914.39 442.477 890.661 422.968L890.659 422.97L754.224 310.161V211.771C754.223 199.049 744.056 188.872 731.345 188.872H695.755C683.044 188.872 672.876 199.049 672.876 211.771V243.153L521.187 118.47Z" fill="black" fill-opacity="0.15"/>
</g>
<defs>
<clipPath id="clip0_227_33">
<rect width="1000" height="1000" rx="500" fill="white"/>
</clipPath>
</defs>
</svg>
