<svg width="1000" height="1000" viewBox="0 0 1000 1000" fill="none" xmlns="http://www.w3.org/2000/svg">
<g clip-path="url(#clip0_224_24)">
<rect width="1000" height="1000" rx="500" fill="white"/>
<path d="M1000 0H0V1000H1000V0Z" fill="white"/>
<path d="M252.317 370.865C261.963 357.586 356.231 323.787 356.231 323.787L324.852 799.616C374.391 776.623 406.966 736.799 406.966 736.799L428.741 345.514C426.318 344.31 394.897 314.112 394.897 314.112C463.763 285.107 559.238 280.287 559.238 280.287C707.895 282.723 643.853 362.394 643.853 362.394C635.351 381.722 477.051 469.879 477.051 469.879C382.807 555.602 445.657 607.6 445.657 607.6C525.409 655.899 593.106 802 593.106 802C659.537 694.503 619.68 658.32 619.68 658.32C608.78 642.593 523.011 570.136 523.011 570.136C490.363 545.988 521.779 531.454 521.779 531.454C523.011 524.261 628.14 474.736 628.14 474.736C672.844 456.612 721.193 403.459 721.193 403.459C805.779 288.782 670.409 222.337 670.409 222.337C556.865 148.651 281.316 265.786 281.316 265.786C237.827 321.339 252.317 370.865 252.317 370.865Z" fill="#FF0000"/>
</g>
<rect x="5" y="5" width="990" height="990" rx="495" stroke="#666666" stroke-width="10"/>
<defs>
<clipPath id="clip0_224_24">
<rect width="1000" height="1000" rx="500" fill="white"/>
</clipPath>
</defs>
</svg>
