<svg width="1000" height="1000" viewBox="0 0 1000 1000" fill="none" xmlns="http://www.w3.org/2000/svg">
<g clip-path="url(#clip0_4_159)">
<rect width="1000" height="1000" rx="500" fill="white"/>
<path fill-rule="evenodd" clip-rule="evenodd" d="M439.191 573.29C480.503 609.229 518.463 642.252 518.463 698.492C518.463 783.211 458.101 804.391 431.626 809.156C257.422 796.448 164.231 699.551 158.936 553.41C157.877 543.35 156.818 526.406 156.818 499.931C156.818 472.927 157.877 456.513 158.936 446.452C164.231 295.546 261.658 198.119 445.393 188.588C452.704 188.396 458.827 188.134 464.802 187.878C475.272 187.429 485.291 187 500.46 187C507.361 187 513.324 187.312 518.775 187.598C523.363 187.838 527.587 188.059 531.701 188.059C434.274 198.119 335.788 260.6 335.788 387.679C335.788 483.335 389.877 530.39 439.191 573.29ZM583.062 191.765C747.735 209.239 835.101 305.077 841.455 447.511C841.455 450.848 841.601 455.276 841.784 460.849C842.095 470.311 842.514 483.074 842.514 499.402C842.514 516.171 842.106 528.856 841.796 538.472C841.607 544.342 841.455 549.068 841.455 552.881C835.101 703.787 737.674 801.743 554.469 810.745C547.158 810.937 541.035 811.2 535.06 811.456C524.59 811.904 514.571 812.333 499.402 812.333H471.868C597.358 803.332 679.959 723.378 679.959 613.773C679.959 518.302 625.924 471.401 576.546 428.541C535.002 392.482 496.754 359.284 496.754 302.43C496.754 220.358 553.41 197.06 583.062 191.765Z" fill="#E03B40"/>
</g>
<rect x="5" y="5" width="990" height="990" rx="495" stroke="#666666" stroke-width="10"/>
<defs>
<clipPath id="clip0_4_159">
<rect width="1000" height="1000" rx="500" fill="white"/>
</clipPath>
</defs>
</svg>
