<svg width="1000" height="1000" viewBox="0 0 1000 1000" fill="none" xmlns="http://www.w3.org/2000/svg">
<g clip-path="url(#clip0_4_152)">
<path d="M1011.94 500C1011.94 776.327 785.17 1000 505.97 1000C226.344 1000 0 775.906 0 500C0 223.673 226.77 0 505.97 0C785.17 0 1011.94 223.673 1011.94 500Z" fill="white"/>
<path d="M556.696 216.091C552.433 215.249 531.12 211.879 505.971 211.879C480.821 211.879 459.508 215.249 455.246 216.091C452.688 216.512 451.836 213.985 453.541 212.721C455.246 211.457 505.971 173.126 505.971 173.126C505.971 173.126 556.696 211.457 558.401 212.721C560.106 213.985 559.253 216.512 556.696 216.091ZM468.886 463.774C468.886 463.774 466.329 464.617 465.476 467.144C476.132 475.147 483.379 493.682 505.544 493.682C527.71 493.682 534.956 475.147 545.613 467.144C544.76 464.617 542.203 463.774 542.203 463.774C542.203 463.774 528.136 467.144 505.544 467.144C482.953 467.144 468.886 463.774 468.886 463.774ZM505.544 433.024C499.577 433.024 497.872 430.918 494.035 430.918C490.199 430.918 482.1 434.288 480.395 436.815C480.395 438.079 481.248 439.343 482.1 440.607C491.052 441.87 495.314 446.925 505.544 446.925C515.775 446.925 520.037 441.87 528.989 440.607C530.267 439.343 530.694 438.079 530.694 436.815C528.989 433.867 521.316 430.918 517.053 430.918C513.217 430.497 511.938 433.024 505.544 433.024ZM1011.09 527.38C1010.24 539.174 1009.38 551.39 1008.1 562.763C950.986 572.03 930.525 521.904 871.701 524.01C875.111 536.226 878.095 548.863 880.227 561.5C928.82 561.5 948.002 606.15 1002.14 599.41C999.153 612.89 995.743 626.369 991.907 639.848C949.281 644.061 934.362 602.359 884.915 603.201C885.342 610.362 885.342 617.102 885.342 624.263C885.342 628.054 885.342 632.266 884.915 636.057C927.115 635.636 940.755 673.968 980.824 672.283C975.709 685.762 970.167 698.821 964.2 711.879C935.214 710.194 925.41 673.968 881.932 676.917C880.653 686.184 878.948 695.451 876.817 704.718C914.754 702.19 922.853 736.731 950.133 739.259C943.313 751.896 935.64 764.111 927.968 775.906C911.77 767.481 897.703 741.786 867.439 740.101C870.423 730.413 873.406 720.725 875.538 711.036C848.257 711.036 817.566 700.505 791.565 677.338C800.09 629.739 725.494 581.719 725.494 546.757C725.494 509.267 744.676 488.206 744.676 437.237C744.676 399.326 725.921 358.467 698.214 330.666C692.672 325.19 687.131 320.977 680.737 316.765C706.313 348.357 726.347 385.425 726.347 428.812C726.347 476.832 703.755 502.106 703.755 546.335C703.755 590.564 769.399 628.896 769.399 674.389C769.399 692.502 763.431 709.773 744.676 744.313C774.088 773.378 812.451 788.964 837.174 788.964C845.273 788.964 849.536 786.436 852.52 780.539C855.077 775.063 857.209 769.587 859.34 764.111C885.768 764.954 898.13 788.964 912.622 798.652C904.523 809.183 895.998 819.714 887.047 829.823C877.243 818.871 864.029 800.758 844.421 795.703C841.011 802.443 837.174 808.762 833.338 815.501C849.962 820.135 861.471 836.563 870.423 847.515C861.045 857.203 850.815 866.47 840.584 875.737C834.191 866.049 823.96 853.412 812.878 846.251C808.615 851.727 804.352 857.203 800.09 862.679C809.894 868.997 817.993 880.792 823.534 890.059C811.599 899.747 799.237 908.593 786.449 917.018C780.056 866.049 710.149 831.508 728.904 772.536C722.511 783.067 715.264 796.125 715.264 811.71C715.264 854.254 761.3 888.374 764.71 930.497C755.333 935.973 745.529 941.449 735.298 946.504C733.593 899.747 685 848.778 685 810.868C685 768.323 741.692 725.358 741.692 674.81C741.692 624.263 676.474 589.301 676.474 545.072C676.474 500.842 704.181 475.569 704.181 418.703C704.181 377.001 684.147 335.299 653.457 308.34C647.915 303.707 642.8 299.916 635.98 296.546C664.965 331.087 682.016 362.258 682.016 409.857C682.016 463.353 650.046 492.839 650.046 545.072C650.046 597.304 713.985 626.369 713.985 674.81C713.985 723.252 654.309 764.532 654.309 814.659C654.309 860.152 706.739 905.644 707.591 959.562C696.082 964.617 684.573 969.25 672.638 973.041C679.458 918.703 620.208 862.258 620.208 817.607C620.208 769.166 682.016 727.043 682.016 674.81C682.016 622.578 619.356 598.147 619.356 544.229C619.356 490.312 658.145 460.404 658.145 401.011C658.145 354.676 635.127 312.974 601.027 287.279C600.174 286.858 599.748 286.015 598.895 285.594C595.911 283.067 592.928 286.015 595.485 288.964C619.356 318.45 632.144 348.357 632.144 392.586C632.144 446.925 587.812 491.154 587.812 543.808C587.812 606.15 647.489 623.842 647.489 674.81C647.489 725.779 583.55 766.639 583.55 820.977C583.55 871.104 644.079 927.127 633.422 984.836C621.487 987.784 609.125 990.733 596.764 992.839C608.273 920.809 549.023 868.576 549.023 821.398C549.023 770.43 615.093 724.516 615.093 674.81C615.093 627.633 567.778 612.468 561.384 564.027C560.532 557.287 554.991 552.654 547.744 553.917C537.94 555.602 525.579 561.921 506.397 561.921C486.789 561.921 474.854 555.602 465.05 553.917C457.803 552.654 452.262 557.708 451.409 564.027C445.016 612.468 397.701 627.633 397.701 674.81C397.701 724.937 463.771 770.43 463.771 821.398C463.771 868.576 404.521 920.387 416.03 992.839C403.668 990.733 391.307 987.784 379.372 984.836C369.141 926.706 429.244 871.104 429.244 820.977C429.244 766.639 365.305 725.779 365.305 674.81C365.305 623.842 424.981 606.15 424.981 543.808C424.981 491.154 380.65 446.925 380.65 392.586C380.65 348.357 393.438 318.45 417.309 288.964C419.44 286.015 416.882 283.488 413.899 285.594C413.046 286.015 412.62 286.858 411.767 287.279C378.093 312.974 354.648 354.676 354.648 401.011C354.648 460.404 393.438 490.312 393.438 544.229C393.438 598.147 330.778 622.578 330.778 674.81C330.778 727.043 392.586 769.166 392.586 817.607C392.586 862.258 333.336 918.281 340.156 973.041C328.22 968.829 316.711 964.617 305.202 959.562C306.055 905.644 358.485 860.152 358.485 814.659C358.485 764.532 298.808 723.673 298.808 674.81C298.808 625.948 362.747 597.304 362.747 545.072C362.747 492.839 330.778 463.353 330.778 409.857C330.778 362.258 347.828 331.087 376.814 296.546C370.42 299.916 364.879 303.707 359.337 308.34C328.647 335.299 308.612 377.422 308.612 418.703C308.612 475.569 336.319 500.842 336.319 545.072C336.319 589.301 271.102 624.263 271.102 674.81C271.102 725.358 327.794 767.902 327.794 810.868C327.794 849.2 279.201 900.168 277.496 946.504C267.692 941.449 257.888 936.394 248.084 930.497C251.92 887.953 297.956 854.254 297.956 811.71C297.956 796.125 290.71 783.067 284.316 772.536C303.071 831.508 233.165 866.47 226.771 917.018C213.983 908.593 201.621 899.747 189.686 890.059C195.227 880.792 203.753 868.997 213.13 862.679C208.868 857.203 204.179 852.148 200.343 846.251C188.834 852.991 179.03 865.628 172.636 875.737C162.405 866.891 152.175 857.203 142.797 847.515C151.749 836.563 163.258 819.714 179.882 815.501C176.046 809.183 172.209 802.443 168.799 795.703C149.191 800.758 135.977 818.871 126.173 829.823C117.222 819.714 108.697 809.604 100.598 798.652C115.517 788.964 127.452 765.375 154.307 764.111C156.438 769.587 158.995 775.063 161.127 780.539C164.11 786.858 168.373 788.964 176.472 788.964C201.195 788.964 239.558 772.957 268.97 744.313C249.789 709.773 244.247 692.502 244.247 674.389C244.247 628.896 309.891 590.564 309.891 546.335C309.891 502.106 287.299 476.832 287.299 428.812C287.299 385.425 306.907 348.357 332.909 316.765C326.515 320.556 320.974 325.19 315.433 330.666C287.299 358.467 268.97 399.747 268.97 437.237C268.97 488.206 288.152 508.846 288.152 546.757C288.152 581.719 213.557 629.739 222.082 677.338C196.08 700.927 164.963 711.036 137.682 711.036C140.24 720.725 142.797 730.413 145.781 740.101C115.091 741.786 101.024 767.481 85.2524 775.906C77.1535 764.111 69.9071 751.896 63.0869 739.259C90.3676 736.31 98.4665 701.769 136.404 704.718C134.272 695.451 132.567 686.184 131.288 676.917C87.3837 673.968 77.5798 710.615 49.0204 711.879C43.0527 698.821 37.5114 685.762 32.3962 672.283C72.4646 673.968 86.105 635.636 127.878 636.057C127.878 632.266 127.878 628.475 127.878 624.263C127.878 617.102 128.305 610.362 128.305 603.201C78.8585 601.938 63.9395 644.061 21.3135 639.848C17.4772 626.79 14.0671 613.311 11.0833 599.41C64.792 606.15 84.3999 561.078 132.994 561.5C135.125 548.863 138.109 536.226 141.519 524.01C82.6949 521.483 62.2344 572.03 5.11563 562.763C3.4106 550.969 2.55808 539.174 1.70556 527.38C68.2021 534.541 93.3514 480.623 153.88 487.363C159.422 473.041 166.242 459.141 173.914 445.661C98.0402 432.603 72.0384 495.366 1.2793 485.678C7.24693 216.091 231.033 0 505.544 0C780.482 0 1003.84 216.091 1011.51 486.099C940.755 495.788 914.754 433.024 838.879 446.083C846.552 459.562 852.946 473.463 858.914 487.784C919.442 480.623 944.166 534.962 1011.09 527.38ZM288.152 317.607C251.067 302.443 205.884 306.234 167.094 330.666C161.127 295.282 141.519 263.69 113.812 244.735C109.976 242.207 106.139 244.735 106.139 248.947C112.107 323.926 67.7758 388.795 13.2146 446.083C69.4808 462.932 117.222 391.323 189.686 416.175C216.54 377.843 249.789 344.145 288.152 317.607ZM505.544 272.536C458.656 272.536 419.014 298.652 408.783 332.772C407.931 335.299 409.21 336.984 412.194 335.72C420.719 331.929 430.096 330.244 440.753 330.244C459.935 330.244 476.985 337.405 486.789 349.2C491.052 363.521 491.478 384.583 486.363 396.377C478.69 394.692 475.706 388.795 468.034 388.795C460.361 388.795 454.393 394.271 441.179 394.271C427.965 394.271 426.686 387.953 418.161 387.953C407.931 387.953 406.226 398.062 406.226 409.857C406.226 461.668 454.393 532.856 505.544 532.856C556.696 532.856 604.863 461.668 604.863 409.857C604.863 398.062 602.305 388.374 592.075 387.11C586.96 390.901 581.845 394.271 569.91 394.271C556.696 394.271 553.285 388.795 545.613 388.795C536.235 388.795 537.088 408.172 526.005 409.436C518.758 392.165 518.332 369.419 524.3 349.621C534.104 337.405 551.154 330.666 570.336 330.666C580.566 330.666 590.37 332.35 598.895 336.142C601.879 337.405 603.158 335.72 602.305 333.193C592.075 298.652 552.433 272.536 505.544 272.536ZM580.566 346.672C569.057 346.672 556.269 350.042 547.744 359.309C546.892 361.837 546.892 365.628 548.17 367.734C568.631 360.994 586.534 360.573 595.485 370.261C600.174 366.049 601.453 362.258 601.453 358.045C601.453 351.306 594.206 346.672 580.566 346.672ZM416.03 370.261C425.834 360.573 446.721 360.994 468.034 368.576C468.886 358.045 449.704 346.251 430.523 346.251C416.456 346.251 409.636 350.885 409.636 357.624C410.062 362.258 411.341 366.049 416.03 370.261ZM739.987 195.029C702.903 197.557 670.507 210.194 644.505 231.255C655.588 200.084 669.654 173.126 687.557 147.009C640.242 152.064 601.027 168.913 572.041 198.399L549.449 139.848L599.322 96.0404L532.399 91.4069L505.544 29.9073L478.69 91.4069L411.767 96.0404L461.64 139.848L439.048 198.399C410.062 169.334 370.846 152.064 323.532 147.009C341.434 173.126 355.501 200.505 366.584 231.255C340.582 210.194 308.186 197.557 271.102 195.029C293.267 223.252 312.875 253.58 327.794 286.015C329.499 289.806 332.909 291.07 336.746 288.964C387.47 264.111 444.589 249.789 505.544 249.789C566.073 249.789 623.192 263.69 674.343 288.964C678.18 291.07 681.59 289.806 683.295 286.015C697.788 253.58 717.822 223.252 739.987 195.029ZM820.977 416.175C893.867 391.323 941.608 462.511 997.874 446.083C943.313 388.795 898.982 323.926 904.95 248.947C905.376 244.735 901.113 242.207 897.703 244.735C869.996 263.69 850.388 295.282 844.421 330.666C806.057 306.234 760.874 302.864 723.363 317.607C761.726 344.145 794.548 377.843 820.977 416.175Z" fill="#00643C"/>
</g>
<defs>
<clipPath id="clip0_4_152">
<rect width="1000" height="1000" fill="white"/>
</clipPath>
</defs>
</svg>
