<svg width="1000" height="1000" viewBox="0 0 1000 1000" fill="none" xmlns="http://www.w3.org/2000/svg">
<g clip-path="url(#clip0_203_25)">
<g filter="url(#filter0_d_203_25)">
<path d="M809.085 975.036L499.335 791.602L191.062 975.101L288.648 617.735L0 387.332L364.08 360.144L499.963 24L642.57 352.848L1000 387.212L719.562 618.381L809.085 975.036Z" fill="#FFBE51"/>
<g style="mix-blend-mode:multiply">
<path d="M809.085 975.036L499.335 791.602L191.062 975.101L288.648 617.735L0 387.332L364.08 360.144L499.963 24L642.57 352.848L1000 387.212L719.562 618.381L809.085 975.036Z" fill="#F9ED42"/>
</g>
<path style="mix-blend-mode:multiply" opacity="0.5" d="M500.01 549.729L719.562 618.381L1000 387.211L500.01 549.729Z" fill="url(#paint0_linear_203_25)"/>
<g style="mix-blend-mode:multiply" opacity="0.1">
<path d="M500.01 549.729L719.562 618.381L1000 387.211L500.01 549.729Z" fill="#603913"/>
</g>
<path style="mix-blend-mode:screen" opacity="0.3" d="M1000 387.211L642.57 352.848L500.01 549.729L1000 387.211Z" fill="url(#paint1_linear_203_25)"/>
<g style="mix-blend-mode:screen" opacity="0.2">
<path d="M1000 387.211L642.57 352.848L500.01 549.729L1000 387.211Z" fill="#FDE594"/>
</g>
<path style="mix-blend-mode:multiply" opacity="0.52" d="M500.009 549.729L0 387.332L288.648 617.735L500.009 549.729Z" fill="url(#paint2_linear_203_25)"/>
<g style="mix-blend-mode:multiply" opacity="0.2">
<path d="M500.009 549.729L0 387.332L288.648 617.735L500.009 549.729Z" fill="#603913"/>
</g>
<path style="mix-blend-mode:multiply" opacity="0.52" d="M500.01 549.729L499.336 791.602L809.086 975.036L500.01 549.729Z" fill="url(#paint3_linear_203_25)"/>
<path style="mix-blend-mode:multiply" opacity="0.45" d="M191.062 975.101L499.335 791.602L500.009 549.729L191.062 975.101Z" fill="url(#paint4_linear_203_25)"/>
<g style="mix-blend-mode:multiply" opacity="0.4">
<path d="M191.062 975.101L499.335 791.602L500.009 549.729L191.062 975.101Z" fill="#603913"/>
</g>
<path style="mix-blend-mode:screen" opacity="0.3" d="M500.009 549.729L642.569 352.848L499.963 24L500.009 549.729Z" fill="url(#paint5_linear_203_25)"/>
<g style="mix-blend-mode:screen" opacity="0.3">
<path d="M500.009 549.729L642.569 352.848L499.963 24L500.009 549.729Z" fill="#FDE594"/>
</g>
<path style="mix-blend-mode:screen" opacity="0.52" d="M500.01 549.729L809.086 975.036L719.562 618.381L500.01 549.729Z" fill="url(#paint6_linear_203_25)"/>
<path style="mix-blend-mode:multiply" opacity="0.52" d="M500.01 549.729L499.964 24L364.08 360.144L500.01 549.729Z" fill="url(#paint7_linear_203_25)"/>
<path style="mix-blend-mode:screen" opacity="0.3" d="M364.08 360.144L0 387.332L500.009 549.729L364.08 360.144Z" fill="url(#paint8_linear_203_25)"/>
<path style="mix-blend-mode:multiply" opacity="0.45" d="M500.009 549.729L288.648 617.735L191.062 975.101L500.009 549.729Z" fill="url(#paint9_linear_203_25)"/>
<path style="mix-blend-mode:screen" d="M643.198 352.968L642.57 352.848L642.219 352.202L498.984 549.47L501.053 550.209L643.198 352.968Z" fill="url(#paint10_linear_203_25)"/>
<path style="mix-blend-mode:screen" d="M499.224 549.202L191.395 972.552L191.062 975.101L192.716 974.288L500.85 550.015L499.224 549.202Z" fill="url(#paint11_linear_203_25)"/>
<path style="mix-blend-mode:screen" d="M287.947 617.024L288.649 617.735L288.492 618.843L500.028 550.652L499.964 549.036L287.947 617.024Z" fill="url(#paint12_linear_203_25)"/>
<path style="mix-blend-mode:screen" d="M998.43 386.953L499.963 548.704L500.037 550.458L999.058 388.209L1000 387.212L998.43 386.953Z" fill="url(#paint13_linear_203_25)"/>
<path style="mix-blend-mode:screen" d="M2.56732 386.879L0 387.331L1.49607 388.901L499.584 550.375L500.453 549.165L2.56732 386.879Z" fill="url(#paint14_linear_203_25)"/>
<path style="mix-blend-mode:screen" d="M720.051 617.864L500.452 549.165L499.584 550.375L719.672 619.175L719.561 618.381L720.051 617.864Z" fill="url(#paint15_linear_203_25)"/>
<path style="mix-blend-mode:screen" d="M499.575 549.895L498.504 791.999L499.335 791.602L500.139 791.971L500.85 550.015L499.575 549.895Z" fill="url(#paint16_linear_203_25)"/>
<path style="mix-blend-mode:screen" d="M500.563 25.1359L499.945 24L499.391 25.1359L499.585 550.375L500.877 549.47L500.563 25.1359Z" fill="url(#paint17_linear_203_25)"/>
<path style="mix-blend-mode:screen" d="M364.513 359.35L364.079 360.144L363.146 360.301L499.584 550.375L500.812 548.51L364.513 359.35Z" fill="url(#paint18_linear_203_25)"/>
<path style="mix-blend-mode:screen" d="M809.067 973.162L500.812 548.51L499.584 550.375L807.349 974.187L809.085 975.036L809.067 973.162Z" fill="url(#paint19_linear_203_25)"/>
<path style="mix-blend-mode:color-dodge" opacity="0.15" d="M513.344 550.458C513.409 701.81 506.787 791.408 499.427 791.408C492.067 791.408 486.738 701.81 486.655 550.486C486.581 399.134 492.473 276.419 499.852 276.41C507.212 276.41 513.261 399.106 513.353 550.458H513.344Z" fill="url(#paint20_radial_203_25)"/>
<path style="mix-blend-mode:color-dodge" opacity="0.15" d="M510.795 542.618C599.691 665.12 666.931 767.923 660.974 772.264C655.009 776.577 578.1 680.791 489.213 558.299C400.29 435.815 358.751 365.833 364.726 361.511C370.682 357.179 421.881 420.153 510.795 542.627V542.618Z" fill="url(#paint21_radial_203_25)"/>
<path style="mix-blend-mode:color-dodge" opacity="0.15" d="M510.778 558.326C421.605 680.616 344.512 776.244 338.564 771.913C332.599 767.563 400.06 664.907 489.224 542.599C578.387 420.291 636.448 350.281 642.404 354.612C648.37 358.953 599.942 436.028 510.787 558.326H510.778Z" fill="url(#paint22_radial_203_25)"/>
<path style="mix-blend-mode:color-dodge" opacity="0.15" d="M504.137 563.156C360.275 610.181 291.908 625.64 289.627 618.649C287.337 611.64 351.982 584.84 495.835 537.797C639.697 490.735 758.173 458.321 760.481 465.302C762.763 472.302 647.99 516.122 504.137 563.156Z" fill="url(#paint23_radial_203_25)"/>
<path style="mix-blend-mode:color-dodge" opacity="0.15" d="M495.891 563.175C351.871 516.668 236.942 473.272 239.205 466.254C241.467 459.254 360.063 491.271 504.101 537.76C648.111 584.286 721.067 611.372 718.805 618.382C716.542 625.391 639.91 609.682 495.882 563.175H495.891Z" fill="url(#paint24_radial_203_25)"/>
</g>
</g>
<defs>
<filter id="filter0_d_203_25" x="-100" y="-26" width="1200" height="1151.1" filterUnits="userSpaceOnUse" color-interpolation-filters="sRGB">
<feFlood flood-opacity="0" result="BackgroundImageFix"/>
<feColorMatrix in="SourceAlpha" type="matrix" values="0 0 0 0 0 0 0 0 0 0 0 0 0 0 0 0 0 0 127 0" result="hardAlpha"/>
<feOffset dy="50"/>
<feGaussianBlur stdDeviation="50"/>
<feComposite in2="hardAlpha" operator="out"/>
<feColorMatrix type="matrix" values="0 0 0 0 0 0 0 0 0 0 0 0 0 0 0 0 0 0 0.25 0"/>
<feBlend mode="normal" in2="BackgroundImageFix" result="effect1_dropShadow_203_25"/>
<feBlend mode="normal" in="SourceGraphic" in2="effect1_dropShadow_203_25" result="shape"/>
</filter>
<linearGradient id="paint0_linear_203_25" x1="1006.71" y1="355.98" x2="571.653" y2="605.951" gradientUnits="userSpaceOnUse">
<stop stop-color="white"/>
<stop offset="0.27" stop-color="#AAAAAA"/>
<stop offset="0.54" stop-color="#616161"/>
<stop offset="0.75" stop-color="#2C2C2C"/>
<stop offset="0.91" stop-color="#0C0C0C"/>
<stop offset="1"/>
</linearGradient>
<linearGradient id="paint1_linear_203_25" x1="814.654" y1="373.79" x2="540.175" y2="528.809" gradientUnits="userSpaceOnUse">
<stop stop-color="white"/>
<stop offset="0.09" stop-color="#F2F2F2"/>
<stop offset="0.26" stop-color="#CFCFCF"/>
<stop offset="0.48" stop-color="#989898"/>
<stop offset="0.75" stop-color="#4C4C4C"/>
<stop offset="1"/>
</linearGradient>
<linearGradient id="paint2_linear_203_25" x1="2.54186" y1="505.595" x2="498.778" y2="494.854" gradientUnits="userSpaceOnUse">
<stop stop-color="white"/>
<stop offset="1"/>
</linearGradient>
<linearGradient id="paint3_linear_203_25" x1="607.742" y1="654.533" x2="649.468" y2="860.32" gradientUnits="userSpaceOnUse">
<stop stop-color="white"/>
<stop offset="1"/>
</linearGradient>
<linearGradient id="paint4_linear_203_25" x1="487.115" y1="620.075" x2="281.9" y2="1000.61" gradientUnits="userSpaceOnUse">
<stop stop-color="white"/>
<stop offset="1"/>
</linearGradient>
<linearGradient id="paint5_linear_203_25" x1="592.135" y1="415.786" x2="494.308" y2="278.996" gradientUnits="userSpaceOnUse">
<stop/>
<stop offset="0.25" stop-color="#4C4C4C"/>
<stop offset="0.52" stop-color="#989898"/>
<stop offset="0.74" stop-color="#CFCFCF"/>
<stop offset="0.91" stop-color="#F2F2F2"/>
<stop offset="1" stop-color="white"/>
</linearGradient>
<linearGradient id="paint6_linear_203_25" x1="646.874" y1="766.13" x2="763.083" y2="709.189" gradientUnits="userSpaceOnUse">
<stop stop-color="white"/>
<stop offset="1"/>
</linearGradient>
<linearGradient id="paint7_linear_203_25" x1="362.527" y1="289.866" x2="505.636" y2="286.768" gradientUnits="userSpaceOnUse">
<stop stop-color="white"/>
<stop offset="1"/>
</linearGradient>
<linearGradient id="paint8_linear_203_25" x1="1.64734" y1="464.269" x2="497.883" y2="453.528" gradientUnits="userSpaceOnUse">
<stop/>
<stop offset="0.25" stop-color="#4C4C4C"/>
<stop offset="0.52" stop-color="#989898"/>
<stop offset="0.74" stop-color="#CFCFCF"/>
<stop offset="0.91" stop-color="#F2F2F2"/>
<stop offset="1" stop-color="white"/>
</linearGradient>
<linearGradient id="paint9_linear_203_25" x1="401.425" y1="565.981" x2="259.958" y2="918.031" gradientUnits="userSpaceOnUse">
<stop stop-color="white"/>
<stop offset="1"/>
</linearGradient>
<linearGradient id="paint10_linear_203_25" x1="499.939" y1="550.196" x2="641.035" y2="353.846" gradientUnits="userSpaceOnUse">
<stop/>
<stop offset="1" stop-color="white"/>
</linearGradient>
<linearGradient id="paint11_linear_203_25" x1="197.563" y1="967.627" x2="498.528" y2="549.451" gradientUnits="userSpaceOnUse">
<stop/>
<stop offset="1" stop-color="white"/>
</linearGradient>
<linearGradient id="paint12_linear_203_25" x1="291.809" y1="616.821" x2="503.725" y2="548.396" gradientUnits="userSpaceOnUse">
<stop stop-color="white"/>
<stop offset="1"/>
</linearGradient>
<linearGradient id="paint13_linear_203_25" x1="494.279" y1="548.185" x2="1002.46" y2="389.797" gradientUnits="userSpaceOnUse">
<stop stop-color="white"/>
<stop offset="1"/>
</linearGradient>
<linearGradient id="paint14_linear_203_25" x1="-31.2505" y1="474.735" x2="756.659" y2="457.681" gradientUnits="userSpaceOnUse">
<stop stop-color="white"/>
<stop offset="1"/>
</linearGradient>
<linearGradient id="paint15_linear_203_25" x1="504.755" y1="549.51" x2="719.862" y2="620.45" gradientUnits="userSpaceOnUse">
<stop stop-color="white"/>
<stop offset="1"/>
</linearGradient>
<linearGradient id="paint16_linear_203_25" x1="495.82" y1="671.024" x2="512.006" y2="670.674" gradientUnits="userSpaceOnUse">
<stop stop-color="white"/>
<stop offset="1"/>
</linearGradient>
<linearGradient id="paint17_linear_203_25" x1="495.661" y1="547.573" x2="504.622" y2="22.294" gradientUnits="userSpaceOnUse">
<stop stop-color="white"/>
<stop offset="1"/>
</linearGradient>
<linearGradient id="paint18_linear_203_25" x1="365.187" y1="456.326" x2="749.586" y2="448.006" gradientUnits="userSpaceOnUse">
<stop stop-color="white"/>
<stop offset="1"/>
</linearGradient>
<linearGradient id="paint19_linear_203_25" x1="348.37" y1="768.425" x2="804.332" y2="758.556" gradientUnits="userSpaceOnUse">
<stop stop-color="white"/>
<stop offset="1"/>
</linearGradient>
<radialGradient id="paint20_radial_203_25" cx="0" cy="0" r="1" gradientUnits="userSpaceOnUse" gradientTransform="translate(497.478 536.762) scale(13.7542 266.488)">
<stop stop-color="white"/>
<stop offset="0.08" stop-color="#E3E3E3"/>
<stop offset="0.34" stop-color="#949494"/>
<stop offset="0.57" stop-color="#545454"/>
<stop offset="0.77" stop-color="#262626"/>
<stop offset="0.91" stop-color="#0A0A0A"/>
<stop offset="1"/>
</radialGradient>
<radialGradient id="paint21_radial_203_25" cx="0" cy="0" r="1" gradientUnits="userSpaceOnUse" gradientTransform="translate(553.103 541.706) rotate(-35.93) scale(13.6397 264.269)">
<stop stop-color="white"/>
<stop offset="0.08" stop-color="#E3E3E3"/>
<stop offset="0.34" stop-color="#949494"/>
<stop offset="0.57" stop-color="#545454"/>
<stop offset="0.77" stop-color="#262626"/>
<stop offset="0.91" stop-color="#0A0A0A"/>
<stop offset="1"/>
</radialGradient>
<radialGradient id="paint22_radial_203_25" cx="0" cy="0" r="1" gradientUnits="userSpaceOnUse" gradientTransform="translate(447.31 536.129) rotate(36.09) scale(13.7609 266.616)">
<stop stop-color="white"/>
<stop offset="0.08" stop-color="#E3E3E3"/>
<stop offset="0.34" stop-color="#949494"/>
<stop offset="0.57" stop-color="#545454"/>
<stop offset="0.77" stop-color="#262626"/>
<stop offset="0.91" stop-color="#0A0A0A"/>
<stop offset="1"/>
</radialGradient>
<radialGradient id="paint23_radial_203_25" cx="0" cy="0" r="1" gradientUnits="userSpaceOnUse" gradientTransform="translate(495.558 467.102) rotate(71.9) scale(13.5045 261.649)">
<stop stop-color="white"/>
<stop offset="0.08" stop-color="#E3E3E3"/>
<stop offset="0.34" stop-color="#949494"/>
<stop offset="0.57" stop-color="#545454"/>
<stop offset="0.77" stop-color="#262626"/>
<stop offset="0.91" stop-color="#0A0A0A"/>
<stop offset="1"/>
</radialGradient>
<radialGradient id="paint24_radial_203_25" cx="0" cy="0" r="1" gradientUnits="userSpaceOnUse" gradientTransform="translate(496.961 466.227) rotate(107.93) scale(13.605 263.596)">
<stop stop-color="white"/>
<stop offset="0.08" stop-color="#E3E3E3"/>
<stop offset="0.34" stop-color="#949494"/>
<stop offset="0.57" stop-color="#545454"/>
<stop offset="0.77" stop-color="#262626"/>
<stop offset="0.91" stop-color="#0A0A0A"/>
<stop offset="1"/>
</radialGradient>
<clipPath id="clip0_203_25">
<rect width="1000" height="1000" fill="white"/>
</clipPath>
</defs>
</svg>
