<svg width="1000" height="1000" viewBox="0 0 1000 1000" fill="none" xmlns="http://www.w3.org/2000/svg">
<g clip-path="url(#clip0_4_516)">
<path d="M496.667 83.3335C386.453 84.2152 281.077 128.73 203.61 207.132C126.143 285.534 82.8964 391.436 83.3373 501.654C83.7782 611.871 127.871 717.423 205.963 795.203C284.054 872.983 389.783 916.654 500.001 916.654C610.219 916.654 715.947 872.983 794.039 795.203C872.13 717.423 916.223 611.871 916.664 501.654C917.105 391.436 873.858 285.534 796.391 207.132C718.924 128.73 613.549 84.2152 503.334 83.3335H496.667ZM503.334 416.667C525.129 417.539 545.713 426.923 560.668 442.802C575.622 458.682 583.754 479.792 583.317 501.6C582.881 523.409 573.911 544.177 558.334 559.445C542.756 574.714 521.813 583.267 500.001 583.267C478.188 583.267 457.245 574.714 441.667 559.445C426.09 544.177 417.12 523.409 416.684 501.6C416.248 479.792 424.379 458.682 439.334 442.802C454.288 426.923 474.872 417.539 496.667 416.667H503.334Z" fill="white"/>
<path fill-rule="evenodd" clip-rule="evenodd" d="M496.333 0H503.667L504 0.00266397C636.258 1.06077 762.708 54.4791 855.668 148.563C948.629 242.647 1000.52 369.731 999.996 501.993C999.467 634.256 946.556 760.921 852.846 854.258C759.135 947.595 632.262 1000 500 1000C367.738 1000 240.864 947.595 147.154 854.258C53.4444 760.921 0.533053 634.256 0.00400569 501.993C-0.525048 369.731 51.3713 242.647 144.332 148.563C237.292 54.4791 363.742 1.06077 496 0.00266397L496.333 0ZM497.019 166.669C408.961 167.456 324.788 203.058 262.888 265.706C200.914 328.429 166.317 413.152 166.669 501.327C167.022 589.502 202.296 673.945 264.77 736.17C327.243 798.394 411.826 833.331 500 833.331C588.174 833.331 672.757 798.394 735.23 736.17C797.704 673.945 832.978 589.502 833.331 501.327C833.683 413.152 799.086 328.429 737.112 265.706C675.212 203.058 591.039 167.456 502.981 166.669H497.019ZM494.999 333.338H505.001L506.667 333.404C550.257 335.15 591.426 353.916 621.334 385.676C651.242 417.436 667.506 459.657 666.633 503.274C665.761 546.891 647.821 588.427 616.666 618.966C585.512 649.504 543.625 666.609 500 666.609C456.375 666.609 414.488 649.504 383.334 618.966C352.179 588.427 334.239 546.891 333.367 503.274C332.494 459.657 348.758 417.436 378.666 385.676C408.574 353.916 449.743 335.15 493.333 333.404L494.999 333.338Z" fill="#E50024"/>
</g>
<defs>
<clipPath id="clip0_4_516">
<rect width="1000" height="1000" fill="white"/>
</clipPath>
</defs>
</svg>
