<svg width="1000" height="1000" viewBox="0 0 1000 1000" fill="none" xmlns="http://www.w3.org/2000/svg">
<rect x="30" y="30" width="940" height="940" rx="470" fill="white"/>
<rect x="30" y="30" width="940" height="940" rx="470" stroke="#EA2D2E" stroke-width="60"/>
<path d="M490.285 362.363L466.956 368.218L418.606 393.514L378.879 408.655L340.912 409.501L328.813 423.842L322.775 475.211L317.583 510.57L315.868 540.051L316.737 572.048L309.83 618.386L310.676 651.206L283.916 684.073L280.463 721.971L282.201 772.517L291.693 812.907L332.267 827.271L374.579 808.699L410.853 800.282L470.433 764.923L482.486 739.65C518.44 737.912 544.353 731.462 560.203 720.278C576.076 709.117 586.437 690.019 591.308 663.008L641.374 630.142L656.012 602.376L670.741 564.478L704.385 534.997L716.484 490.352L711.315 443.214L671.587 403.646L490.285 362.363Z" fill="#9461A8"/>
<path d="M673.53 172.737L710.422 190.691L748.846 234.055L762.683 262.507L788.779 292.4L841.064 358.247L808.769 389.649L765.748 416.569L754.998 447.583L710.422 427.067L702.737 443.534L658.206 427.067L632.064 447.994H609.01L585.956 425.535L558.281 421.052L526.032 427.067L510.663 415.082L507.575 358.247L499.913 305.871L510.663 266.99L521.413 263.994L605.922 192.178L673.53 172.737ZM485.299 292.217L494.539 316.164L498.381 364.056L468.419 370.026L439.19 393.972L405.409 416.409L366.985 419.382L334.713 413.436L336.245 404.447L317.834 393.972L320.876 376.041L354.703 356.577L350.083 334.14L333.181 314.7L386.974 298.232L459.179 299.719L485.299 292.217Z" fill="#54B847"/>
<path d="M727.303 183.303C732.243 191.857 731.877 199.656 727.989 205.809L726.571 207.798L754.931 221.864L759.505 224.289C767.602 228.634 770.735 231.15 772.405 236.182L772.931 240.299L772.634 244.187L771.902 255.394L772.771 255.668L782.034 258.344C796.443 263.147 801.726 272.456 797.701 290.73C809.708 298.644 820.069 309.553 829.035 322.704C836.308 333.317 841.362 343.151 846.417 354.77L847.286 358.978C847.286 389.718 808.542 411.697 776.019 417.438C783.658 441.155 774.806 456.228 752.804 457.234C744.433 457.6 733.615 455.427 724.512 452.294C737.549 485.846 733.912 515.442 717.125 539.846C706.169 555.741 688.787 569.052 675.956 574.473L674.813 580.625L671.748 597.733C662.874 643.682 647.458 662.162 601.533 664.564C599.703 726.98 545.406 758.405 492.71 751.018C480.657 790.951 433.405 818.214 390.109 810.346C366.048 842 317.218 849.227 291.007 825.35C270.514 806.732 269.211 774.186 281.859 756.118L283.849 753.533L278.062 743.653C260.085 711.633 264.408 680.757 305.668 646.198C297.617 629.753 299.081 616.053 307.2 597.161L312.506 585.36L314.336 580.557C316.212 574.93 316.417 570.974 315.411 567.978C302.946 546.09 304.273 527.953 314.176 504.669L320.123 490.603C320.273 490.202 320.481 489.825 320.74 489.483C306.24 475.074 305.691 454.97 313.993 432.419C316.289 426.26 319.041 420.282 322.227 414.533L320.397 413.71L318.613 412.795C305.302 405.888 298.303 394.635 305.874 381.118C309.808 374.096 316.463 367.875 326.161 361.174L332.702 356.851L344.343 349.693L338.122 344.432L328.905 336.999L320.832 330.252C317.561 327.302 316.715 325.815 316.029 322.476C311.409 300.336 396.239 283.137 467.026 286.247L472.286 286.522L473.544 285.31C475.349 283.426 476.524 281.029 476.906 278.448C477.135 276.733 477.478 275.04 477.958 273.233L482.304 258.641C484.957 248.487 485.483 239.498 483.402 226.507C480.657 209.239 480.543 195.654 483.173 187.168C487.679 172.531 502.294 169.992 512.174 181.794L514.049 184.035L514.507 186.894C517.16 203.316 521.62 214.866 527.155 222.39C529.236 225.226 531.111 227.148 532.667 228.405C601.235 157.39 703.356 141.586 727.303 183.303ZM305.576 761.836L305.256 762.43C304.832 763.069 304.358 763.673 303.838 764.237L300.476 767.485C293.271 776.107 293.226 798.064 305.965 809.614C323.325 825.441 360.628 818.534 375.632 792.826L375.906 792.392C373.683 790.588 371.617 788.598 369.731 786.445C364.241 780.133 360.742 772.974 360.193 765.175C340.387 771.007 321.952 769.955 305.576 761.836ZM464.693 705.298C458.854 708.959 452.411 711.553 445.664 712.959C431.346 716.001 416.297 714.195 401.705 709.392L396.948 707.699C395.621 716.505 392.19 725.127 386.884 734.39L384.071 739.102L374.694 753.419L372.978 756.392C372.656 756.987 372.403 757.616 372.224 758.268C370.508 765.861 373.047 772.814 378.536 779.081C379.588 780.293 380.663 781.368 381.67 782.283L383.11 783.541L385.489 785.302C386.399 785.872 387.129 786.689 387.593 787.658L388.279 787.886C424.805 798.453 468.947 772.151 473.315 737.157L474.413 728.558C473.633 725.624 472.663 722.743 471.509 719.935L469.496 715.338L464.693 705.298ZM345.007 654.935L338.717 655.026L328.997 655.301L326.481 657.268C288.606 686.406 283.711 706.967 295.833 730.593L298.395 735.236L301.437 740.382L304.593 745.963C305.096 746.969 305.531 747.976 305.896 748.936L304.661 748.204C320.443 758.542 338.831 760.326 359.644 753.51L362.023 752.641C362.758 751.033 363.599 749.474 364.539 747.976L373.413 734.436L376.935 728.604C382.081 719.569 385.1 711.45 385.855 703.331L385.878 702.644L384.666 701.958C371.835 693.908 359.118 674.741 357.014 656.444L356.099 655.941C354.475 655.346 350.702 654.98 345.007 654.935ZM578.867 652.762C557.002 674.558 524.021 675.633 500.601 661.75L498.977 664.998L494.769 673.621L492.916 677.006C489.051 683.593 483.768 689.585 474.07 698.047L474.596 699.42L475.328 701.021L480.04 710.649C482.784 716.573 484.797 722.039 486.123 727.803L486.901 728.032C533.055 739.467 583.304 712.365 579.439 654.82L579.279 653.151C579.135 653.028 578.998 652.898 578.867 652.762ZM415.039 587.578L413.872 588.745L407.972 594.188L404.747 597.001L393.082 606.882C379.748 618.478 373.436 627.695 369.045 644.963C364.768 661.796 379.451 686.131 392.305 693.221L397.794 695.806C399.784 696.652 402.368 697.659 405.41 698.665C418.172 702.873 431.255 704.451 443.194 701.913C450.756 700.355 457.803 696.917 463.686 691.918C474.322 682.906 479.399 677.303 482.899 671.379L484.477 668.475L491.201 654.866C486.609 650.795 482.708 646.006 479.651 640.686C473.658 629.982 472.446 618.272 478.324 606.356C456.139 608.849 431.667 601.507 415.039 587.578ZM540.923 567.223L539.094 568.183L536.418 569.807L535.183 570.653C533.88 572.359 532.522 574.022 531.111 575.639C520.591 587.67 497.125 601.896 495.386 601.987L495.295 601.85L493.236 604.274C485.048 614.475 484.431 623.875 488.548 632.841L489.806 635.265C490.835 637.095 491.681 638.33 493.122 640.205C511.236 663.9 552.336 667.903 574.521 640.526L576.305 638.124C576.466 633.39 577.678 628.129 580.628 619.392L583.533 611.136L597.644 574.153C574.316 560.476 555.492 559.995 540.923 567.223ZM397.062 561.596C377.484 572.392 355.894 577.927 337.757 573.97C337.619 578.315 336.681 582.752 335.126 587.464L333.251 592.427L327.464 605.372C320.511 621.428 320.443 629.799 328.974 643.11L329.523 643.956L342.331 643.636C348.895 643.522 353.698 643.751 357.357 644.551L357.815 642.241C362.412 624.173 369.182 613.354 381.83 601.644L386.633 597.367L397.108 588.516L401.636 584.536L406.942 579.505L404.427 576.211C401.191 571.769 398.711 566.823 397.085 561.573L397.062 561.596ZM623.855 560.796L614.02 569.03L613.105 569.944C612.542 570.535 612.037 571.179 611.596 571.866L610.292 574.221C609.812 575.182 609.286 576.303 608.691 577.721L606.61 582.821L594.717 614.155L592.178 621.337C588.519 632.086 587.673 637.003 588.084 642.264L588.199 643.362H590.394C634.284 643.362 643.25 633.207 651.004 589.294L654.892 568.092L654.937 567.863C651.345 568.154 647.735 568.154 644.142 567.863C636.183 567.223 629.276 564.981 623.855 560.796ZM503.323 478.504C497.605 484.543 491.544 489.277 486.238 491.13C476.174 494.675 464.579 496.161 453.715 495.178C450.101 516.677 431.072 539.548 407.423 555.352C413.209 583.05 453.006 601.027 483.653 594.005L487.153 593.09C487.496 592.982 487.848 592.906 488.205 592.862L488.731 592.473L492.299 590.3L502.065 584.948L506.433 582.249C510.71 579.413 514.667 576.211 518.532 572.346L522.329 568.275L523.564 566.834L526.514 563.22C527.925 561.919 529.457 560.755 531.089 559.744L532.987 558.6C538.865 552.562 536.875 540.989 532.53 526.672C518.944 517.569 508.537 501.284 503.323 478.504ZM601.898 523.012C593.665 528.845 584.082 533.007 573.881 534.837C570.427 535.454 567.02 535.797 563.703 535.866C557.002 545.632 561.073 549.635 563.886 551.602L563.658 551.373C574.156 551.83 585.614 554.964 597.965 561.345L602.996 564.089L604.529 562.351L606.541 560.407L616.262 552.265L615.278 550.893C607.639 539.983 603.843 532.092 601.898 523.012ZM343.68 487.607L342.033 488.819C342.011 491.152 341.667 493.554 341.027 496.047C340.57 497.785 339.998 499.546 339.243 501.536L336.338 508.535L335.652 510.09L332.793 516.951C326.778 532.573 326.71 543.711 335.263 559.035L336.178 561.757L337.368 562.168C374.602 573.512 436.675 529.279 442.347 493.142C434.8 491.084 428.167 487.584 423.296 482.461L418.813 477.658C414.353 472.741 412.409 470.088 410.991 467.046C410.363 465.707 409.858 464.313 409.481 462.883L407.88 455.427C395.85 453.872 376.935 463.318 343.68 487.607ZM649.7 433.494L649.014 434.568L647.733 437.244C646.109 440.263 643.616 444.792 640.826 449.641L634.467 460.55L630.328 467.137L628.452 467.824C628.864 468.51 629.138 469.287 629.184 470.111C630.373 486.464 623.604 502.176 612.191 514.138C613.494 526.077 616.833 533.739 627.697 548.514C631.265 553.34 637.166 555.947 645.103 556.61C650.912 557.068 657.293 556.473 663.583 555.147L667.334 554.277L669.781 553.569L670.147 553.546C678.312 549.314 690.96 539.388 698.919 527.861C713.488 506.682 715.181 480.563 698.805 448.314C686.843 450.578 675.384 447.125 661.25 439.532L654 435.598C652.6 434.829 651.165 434.127 649.7 433.494ZM565.304 429.468C556.796 433.837 544.194 436.856 531.18 438.114C528.935 438.34 526.685 438.523 524.433 438.662C524.652 439.231 524.761 439.837 524.753 440.446C524.753 446.965 519.79 457.257 512.86 466.954L512.974 467.297C519.607 510.25 543.005 528.89 571.777 523.721C583.212 521.663 593.665 516.082 601.738 508.443C601.98 508.062 602.29 507.728 602.653 507.46C612.534 497.694 618.48 484.725 617.68 471.46C616.468 471.689 616.033 471.552 615.804 471.117L615.553 470.431C614.729 469.928 614.729 469.928 614.409 469.653L598.697 455.976L588.862 447.537L577.243 438.045C575.569 436.725 573.877 435.428 572.166 434.157L567.82 431.092L565.304 429.468ZM493.168 369.248L490.995 369.682L487.061 370.346L477.592 371.718L472.858 372.564C469.564 373.25 467.826 373.845 467.277 374.44L459.501 382.399L455.842 385.967L448.294 393.057L422.747 415.951C420.623 417.847 418.154 419.315 415.473 420.274L416.205 439.715L418.47 449.549L420.62 459.796C420.83 460.66 421.121 461.502 421.489 462.312C422.378 464.051 423.493 465.666 424.805 467.115L426.292 468.83L431.781 474.776C441.616 485.16 464.944 486.578 482.327 480.494C492.87 476.812 510.756 452.843 512.974 442.345L513.34 439.143L513.5 438.685C501.584 437.885 494.815 433.654 495.661 422.675C496.644 410.393 495.432 390.289 493.168 369.248ZM345.99 417.095L347.683 414.67C333.457 434.568 323.508 461.648 336.864 474.959L338.603 477.178C370.211 454.238 389.995 443.854 405.296 443.9L404.678 440.538L404.541 437.793L403.992 422.332C397.265 422.516 390.534 422.157 383.865 421.257L379.108 420.663L362.046 418.284L356.305 417.598C354.269 417.362 352.224 417.209 350.176 417.14H348.575L346.036 417.278L345.99 417.095ZM583.304 302.372L582.755 300.267C588.564 320.715 591.675 341.39 590.531 360.854C589.456 379.494 584.516 395.916 575.025 409.433C577.906 411.148 581.268 413.55 585.34 416.729L591.927 421.966L599.223 427.959L606.884 434.408L618.686 444.678C620.356 441.842 621.888 439.143 623.306 436.467L629.481 424.757C631.243 421.669 633.004 419.199 635.268 416.82C636.281 415.752 637.417 414.807 638.653 414.007L640.62 417.964C637.669 412.246 634.856 406.299 632.203 400.124C622.988 378.543 615.679 356.196 610.361 333.34L607.799 321.835L606.244 313.945C598.469 310.347 590.818 306.487 583.304 302.372ZM677.649 340.933L677.877 341.482C682.772 354.976 688.17 368.47 693.887 381.049C702.533 399.918 711.087 414.968 719.183 424.619L719.915 425.694C721.059 426.449 722.202 427.295 723.3 428.279C726.273 430.886 742.741 436.192 751.798 435.781C759.46 435.438 760.535 432.464 750.448 413.046L745.279 403.052L740.499 396.991L731.762 385.258L724.672 375.171C716.782 363.553 712.55 355.593 712.413 350.447C700.736 347.609 689.144 344.436 677.649 340.933ZM620.516 320.303L622.826 330.504C628.086 352.597 635.039 374.691 643.959 395.23C646.452 400.947 649.036 406.46 651.758 411.766C653.382 412.04 655.052 412.52 656.721 413.138C659.054 413.984 661.433 415.105 664.498 416.729L675.384 422.561C685.676 427.638 692.538 428.736 699.491 425.786L699.788 425.626C700.63 424.83 701.576 424.153 702.601 423.613C695.831 413.733 689.039 401.039 682.246 386.127C676.239 372.852 670.753 359.348 665.801 345.644L662.416 336.107C648.25 331.383 634.273 326.111 620.516 320.303ZM539.734 270.695L539.345 271.061C538.362 271.976 537.287 273.119 536.052 274.537L531.615 279.592C529.974 281.407 528.192 283.09 526.286 284.623L523.244 286.842L513.638 292.789C509.566 295.579 507.051 298.14 505.29 301.64C511.465 332.287 518.555 386.882 517.892 417.14C520.934 417.301 524.799 417.163 529.03 416.752C541.106 415.608 553.022 412.36 556.842 409.433C558.065 408.46 559.401 407.638 560.821 406.986L559.678 408.404C570.862 396.007 576.626 379.654 577.769 360.145C578.798 342.237 575.917 322.864 570.427 303.652C569.378 299.972 568.234 296.319 566.997 292.697C555.332 285.172 546.046 277.739 539.734 270.695ZM404.655 381.209L403.123 382.422C387.09 394.772 372.978 402.686 358.981 406.528L360.125 406.62L385.283 410.027C399.12 411.628 407.972 411.4 412.798 409.021L411.997 401.474C410.716 389.832 408.955 384.48 404.655 381.209ZM453.715 337.479L428.83 360.579C423.593 365.382 418.607 369.774 413.804 373.822C419.59 378.991 421.946 386.676 423.456 399.941L441.776 383.542L451.244 374.462L458.7 366.846C458.495 360.396 456.276 348.458 454.538 340.864L453.715 337.479ZM374.694 314.471C364.79 316.369 355.893 318.519 348.803 320.669L344.755 321.972L355.024 330.298L359.782 334.415C361.2 335.672 362.435 336.839 363.555 337.96C369.959 344.364 372.475 348.046 370.097 354.953C368.679 359.184 366.574 361.174 360.628 365.016L343.84 375.377L339.335 378.351C331.947 383.451 327.121 387.842 325.063 391.547C325.063 391.685 325.154 391.822 325.703 392.142L328.905 393.834C332.771 395.847 337.253 397.219 340.455 397.928C364.516 397.128 387.57 382.81 421.146 352.117L422.404 350.951L416.343 350.859C409.024 350.859 404.061 351.134 399.646 351.682L395.324 352.369L382.996 354.564C381.496 354.809 379.959 354.452 378.721 353.569C377.483 352.687 376.644 351.351 376.386 349.853C376.188 348.583 376.43 347.283 377.07 346.169C377.71 345.055 378.712 344.192 379.908 343.723L381.212 343.38L395.621 340.819C400.173 340.132 404.861 339.721 411.357 339.606L415.473 339.561H420.116L429.654 339.744C430.926 339.77 432.155 340.212 433.153 341.001L452.548 323.002V322.613H452.96L461.079 315.408C464.67 312.275 467.575 309.873 470.159 307.929L474.596 308.181C441.163 306.09 407.6 308.203 374.694 314.471ZM726.525 353.764C727.668 356.097 729.59 359.39 732.128 363.347L736.085 369.316L742.192 378.007L750.769 389.512L756.875 397.425H760.237C766.985 397.425 784.801 393.125 798.318 387.019C810.829 381.347 819.314 374.737 823.088 367.624L824.003 367.692C791.196 365.607 758.603 360.949 726.525 353.764ZM484.957 311.909L483.516 312.755C478.255 315.99 473.315 319.72 468.764 323.894L462.017 329.886C466.591 337.708 469.29 350.516 470.068 361.563L475.191 360.648L488.868 358.59L491.887 357.995C490.041 342.567 487.73 327.198 484.957 311.909ZM778.878 304.705L776.064 306.557C770.667 310.171 765.292 314.105 760.283 318.29C750.151 326.753 742.992 334.986 740.111 342.168L739.379 344.272C765.772 349.533 793.584 353.215 822.493 355.067C811.698 332.539 798.478 315.042 779.792 305.208L778.878 304.705ZM759.46 273.439L758.842 273.668L748.962 277.671C736.397 282.919 724.168 288.938 712.345 295.693C697.387 304.339 685.059 313.396 676.231 322.681L672.663 326.661C689.931 332.47 708.022 337.479 726.868 341.642C727.211 340.292 727.669 338.943 728.217 337.594C732.037 328.079 740.408 318.45 751.981 308.776C755.572 305.802 759.323 302.898 763.142 300.176L771.307 294.618L774.532 292.606L777.208 284.28C778.374 280.484 778.214 279.637 776.225 278.974L768.494 276.87L764.606 275.658C764.083 275.48 763.564 275.289 763.051 275.086L760.535 273.988L759.46 273.439ZM750.174 251.094H750.06L745.462 251.551L739.31 252.306L735.719 252.809L727.6 254.044C710.675 256.812 693.75 260.723 677.992 265.915C651.758 274.56 631.7 285.904 620.081 299.924L617.36 303.492L617.588 304.819C630.968 311.154 645.08 317.032 659.901 322.361L660.426 321.652C670.444 308.547 686.088 296.334 705.849 284.921C717.971 277.922 730.939 271.655 743.907 266.166L749.922 263.742L750.014 263.376L749.854 261.363C749.816 257.937 749.923 254.511 750.174 251.094ZM692.378 212.03L689.222 212.693L682.932 214.202L675.476 216.215C659.923 220.629 644.348 226.393 629.87 233.689C607.456 244.987 589.914 258.802 578.775 275.269L575.894 279.82L576.717 282.13C585.111 287.551 594.74 293.2 605.306 298.666C617.817 279.157 641.832 264.634 673.921 254.044C690.388 248.601 707.953 244.553 725.519 241.694C729.613 241.008 733.524 240.436 737.183 239.956L741.689 239.384L716.782 227.01L710.423 223.58C706.522 221.467 702.728 219.162 699.056 216.672L692.378 212.03ZM651.735 184.675C614.889 190.805 576.648 211.961 543.782 248.372L542.25 250.088C542.333 250.244 542.409 250.405 542.479 250.568L542.89 252.009L554.783 265.732L554.395 265.777C557.345 268.293 560.776 271.038 564.664 273.874L563.177 276.481C575.185 254.296 596.364 236.525 624.015 222.573C641.42 213.908 659.709 207.145 678.563 202.401L678.243 202.218L682.863 201.326L687.712 200.205L693.842 198.97C694.362 198.876 694.892 198.845 695.42 198.878L703.265 197.369C704.147 197.176 705.012 196.908 705.849 196.568L708.8 195.196C709.028 195.105 709.028 195.036 708.914 194.853L707.176 192.406C700.657 184.927 678.312 180.238 651.735 184.675Z" fill="black"/>
</svg>
