<svg width="1000" height="1000" viewBox="0 0 1000 1000" fill="none" xmlns="http://www.w3.org/2000/svg">
<g clip-path="url(#clip0_220_19)">
<path d="M500 1000C776.142 1000 1000 776.142 1000 500C1000 223.858 776.142 0 500 0C223.858 0 0 223.858 0 500C0 776.142 223.858 1000 500 1000Z" fill="#CC1030"/>
<path d="M866.849 297.076C793.098 351.281 773.431 425.197 773.431 508.968C773.431 540.96 771.011 573.029 766.094 605.021C756.261 671.507 672.677 730.64 616.172 725.712C586.672 723.286 559.668 713.355 537.505 691.218C532.588 683.865 525.175 678.937 522.755 671.507C500.667 632.086 471.091 600.093 422 587.736C478.504 558.17 532.588 531.105 584.251 503.965C584.251 503.965 584.251 506.391 586.748 506.391C581.831 513.82 574.418 521.174 571.997 531.029C569.577 545.812 567.081 560.596 571.997 572.877C589.168 609.797 648.169 612.299 670.332 577.805C707.245 523.6 704.749 466.969 680.165 407.836C662.994 368.414 640.831 333.92 606.414 301.928C694.915 297 778.499 297 867 297L866.849 297.076Z" fill="white"/>
<path d="M409.577 721H196.547C198.958 713.584 201.445 708.666 201.445 703.823C230.834 632.541 252.838 558.762 262.634 482.485C265.121 460.39 262.634 438.218 252.838 418.544C245.528 403.788 233.245 396.448 218.551 403.788C203.856 408.706 191.649 416.047 179.366 425.884C159.774 440.64 145.079 460.314 123 475.07C125.487 470.151 125.487 465.233 127.898 462.735C147.491 413.549 167.083 364.363 186.675 315.177C191.574 302.919 196.472 298 208.679 298H402.117C409.426 298 416.811 298 421.709 307.837C441.302 364.363 460.894 420.965 478 477.491C468.204 467.654 458.408 460.238 451.098 450.477C438.89 438.142 426.607 423.462 414.325 411.128C392.321 389.032 362.932 393.875 355.547 423.387C348.238 445.482 348.238 470.076 350.649 492.247C358.034 561.108 380.038 627.471 402.042 693.91C404.453 703.747 406.94 711.163 409.351 721H409.577Z" fill="white"/>
</g>
<defs>
<clipPath id="clip0_220_19">
<rect width="1000" height="1000" fill="white"/>
</clipPath>
</defs>
</svg>
