<svg width="1000" height="1000" viewBox="0 0 1000 1000" fill="none" xmlns="http://www.w3.org/2000/svg">
<rect width="1000" height="1000" rx="500" fill="#0157E9"/>
<path d="M634.8 467.323C650.234 464.188 786.488 401.728 798.787 394.734C826.52 378.818 835.925 343.127 820.008 315.394C804.092 287.661 768.401 278.256 740.668 294.172C728.369 301.166 606.344 387.982 595.733 399.799C583.675 413.303 581.746 432.596 590.427 447.789C599.35 463.223 616.954 470.94 634.559 467.323H634.8Z" fill="#FFC220"/>
<path d="M798.786 605.506C786.487 598.512 650.233 536.053 634.799 532.918C617.195 529.3 599.349 537.017 590.668 552.451C581.986 567.886 583.915 586.937 595.973 600.442C606.343 612.258 728.609 699.075 740.908 706.068C768.641 721.985 804.332 712.58 820.249 684.846C836.165 657.113 826.76 621.422 799.027 605.506H798.786Z" fill="#FFC220"/>
<path d="M499.75 604.783C482.145 604.783 466.47 616.117 460.682 633.239C455.618 648.191 441.631 797.467 441.631 811.454C441.631 843.528 467.676 869.573 499.75 869.573C531.823 869.573 557.868 843.528 557.868 811.454C557.868 779.38 543.64 647.95 538.817 633.239C533.029 616.117 517.354 604.783 499.75 604.783Z" fill="#FFC220"/>
<path d="M364.944 532.918C349.51 536.053 213.257 598.512 200.958 605.506C173.225 621.422 163.82 657.113 179.736 684.846C195.652 712.58 231.344 721.985 259.077 706.068C271.376 699.075 393.401 612.258 404.012 600.442C416.07 586.937 417.999 567.644 409.317 552.451C400.394 537.017 382.79 529.3 365.186 532.918H364.944Z" fill="#FFC220"/>
<path d="M259.077 293.932C231.344 278.015 195.652 287.421 179.736 315.154C163.82 342.887 173.225 378.578 200.958 394.494C213.257 401.488 349.51 463.947 364.944 467.082C382.549 470.7 400.394 462.983 409.076 447.549C417.758 432.115 415.828 413.063 403.771 399.558C393.401 387.742 271.134 300.925 258.835 293.932H259.077Z" fill="#FFC220"/>
<path d="M499.75 130.427C467.676 130.427 441.631 156.472 441.631 188.546C441.631 220.62 455.859 352.05 460.682 366.761C466.47 383.883 482.145 395.217 499.75 395.217C517.354 395.217 533.029 383.883 538.817 366.761C543.881 351.809 557.868 202.533 557.868 188.546C557.868 156.472 531.823 130.427 499.75 130.427Z" fill="#FFC220"/>
</svg>
