<svg width="1000" height="1000" viewBox="0 0 1000 1000" fill="none" xmlns="http://www.w3.org/2000/svg">
<g clip-path="url(#clip0_4_164)">
<rect width="1000" height="1000" rx="500" fill="white"/>
<path d="M672.156 517.969C672.156 517.969 666.639 518.341 663.931 518.77C653.467 520.455 650.354 523.288 650.354 536.171V637.795C650.354 651.652 658.983 652.478 671.157 653.163C700.87 654.848 718.13 628.454 718.13 585.769C718.13 543.056 700.985 517.969 672.156 517.969C672.156 517.969 666.639 518.341 663.931 518.77C653.467 520.455 650.354 523.288 650.354 536.171V637.795C650.354 651.652 658.983 652.478 671.157 653.163C700.87 654.848 718.13 628.454 718.13 585.769C718.13 543.056 700.985 517.969 672.156 517.969ZM360.243 519.459C333.593 519.459 317.134 544.887 317.134 587.032C317.134 628.233 333.328 653.172 360.73 653.172C387.388 653.172 404.103 627.257 404.103 586.576C404.103 545.376 387.132 519.459 360.243 519.459ZM519.305 519.459C492.647 519.459 476.155 544.887 476.155 587.032C476.155 628.233 492.391 653.172 519.785 653.172C546.418 653.172 563.132 627.257 563.132 586.576C563.132 545.376 546.186 519.459 519.305 519.459ZM672.156 517.969C672.156 517.969 666.639 518.341 663.931 518.77C653.467 520.455 650.354 523.288 650.354 536.171V637.795C650.354 651.652 658.983 652.478 671.157 653.163C700.87 654.848 718.13 628.454 718.13 585.769C718.13 543.056 700.985 517.969 672.156 517.969C672.156 517.969 666.639 518.341 663.931 518.77C653.467 520.455 650.354 523.288 650.354 536.171V637.795C650.354 651.652 658.983 652.478 671.157 653.163C700.87 654.848 718.13 628.454 718.13 585.769C718.13 543.056 700.988 517.976 672.158 517.976M519.305 519.459C492.647 519.459 476.155 544.887 476.155 587.032C476.155 628.233 492.391 653.172 519.785 653.172C546.418 653.172 563.132 627.257 563.132 586.576C563.132 545.376 546.186 519.459 519.305 519.459ZM360.243 519.459C333.593 519.459 317.134 544.887 317.134 587.032C317.134 628.233 333.328 653.172 360.73 653.172C387.388 653.172 404.103 627.257 404.103 586.576C404.103 545.376 387.132 519.459 360.243 519.459ZM382.021 758.294C381.616 757.55 375.645 745.205 374.935 743.66C374.275 742.289 372.623 742.206 372.02 743.719C371.335 745.404 365.446 757.238 365.05 758.089C364.389 759.493 365.133 760.41 366.479 760.41H380.559C381.591 760.41 382.616 759.491 382.021 758.294ZM360.243 519.459C333.593 519.459 317.134 544.887 317.134 587.032C317.134 628.233 333.328 653.172 360.73 653.172C387.388 653.172 404.103 627.257 404.103 586.576C404.103 545.376 387.132 519.459 360.243 519.459ZM519.305 519.459C492.647 519.459 476.155 544.887 476.155 587.032C476.155 628.233 492.391 653.172 519.785 653.172C546.418 653.172 563.132 627.257 563.132 586.576C563.132 545.376 546.186 519.459 519.305 519.459ZM672.158 517.976C672.158 517.976 666.642 518.349 663.933 518.779C653.469 520.463 650.356 523.296 650.356 536.179V637.803C650.356 651.661 658.986 652.486 671.159 653.172C700.873 654.856 718.133 628.463 718.133 585.777C718.133 543.065 700.988 517.976 672.158 517.976C672.158 517.976 666.642 518.349 663.933 518.779C653.469 520.463 650.356 523.296 650.356 536.179V637.803C650.356 651.661 658.986 652.486 671.159 653.172C700.873 654.856 718.133 628.463 718.133 585.777C718.133 543.065 700.988 517.976 672.158 517.976ZM519.307 519.467C492.649 519.467 476.158 544.895 476.158 587.04C476.158 628.241 492.394 653.18 519.787 653.18C546.42 653.18 563.135 627.265 563.135 586.585C563.135 545.384 546.189 519.467 519.307 519.467ZM360.245 519.467C333.595 519.467 317.136 544.895 317.136 587.04C317.136 628.241 333.331 653.18 360.733 653.18C387.391 653.18 404.105 627.265 404.105 586.585C404.105 545.384 387.134 519.467 360.245 519.467ZM382.021 758.294C381.616 757.55 375.645 745.205 374.935 743.66C374.275 742.289 372.623 742.206 372.02 743.719C371.335 745.404 365.446 757.238 365.05 758.089C364.389 759.493 365.133 760.41 366.479 760.41H380.559C381.591 760.41 382.616 759.498 382.022 758.3C381.617 757.557 375.646 745.211 374.936 743.667C374.275 742.296 372.624 742.213 372.021 743.726C371.335 745.411 365.447 757.245 365.051 758.096C364.39 759.499 365.133 760.416 366.479 760.416H380.56C381.592 760.416 382.616 759.498 382.022 758.3M360.245 519.467C333.595 519.467 317.136 544.895 317.136 587.04C317.136 628.241 333.331 653.18 360.733 653.18C387.391 653.18 404.105 627.265 404.105 586.585C404.105 545.384 387.134 519.467 360.245 519.467ZM473.707 733.124H455.762C453.904 733.124 451.964 733.776 451.964 736.089V749.178C451.964 751.234 453.904 752.432 455.762 752.432H473.707C479.736 752.432 484.649 749.26 484.649 742.778C484.649 736.295 479.736 733.124 473.707 733.124ZM519.307 519.467C492.649 519.467 476.158 544.895 476.158 587.04C476.158 628.241 492.394 653.18 519.787 653.18C546.42 653.18 563.135 627.265 563.135 586.585C563.135 545.384 546.189 519.467 519.307 519.467ZM672.158 517.976C672.158 517.976 666.642 518.349 663.933 518.779C653.469 520.463 650.356 523.296 650.356 536.179V637.803C650.356 651.661 658.986 652.486 671.159 653.172C700.873 654.856 718.133 628.463 718.133 585.777C718.133 543.065 700.988 517.976 672.158 517.976C672.158 517.976 666.642 518.349 663.933 518.779C653.469 520.463 650.356 523.296 650.356 536.179V637.803C650.356 651.661 658.986 652.486 671.159 653.172C700.873 654.856 718.133 628.463 718.133 585.777C718.133 543.065 700.993 517.981 672.163 517.981M519.307 519.467C492.649 519.467 476.158 544.895 476.158 587.04C476.158 628.241 492.394 653.18 519.787 653.18C546.42 653.18 563.135 627.265 563.135 586.585C563.135 545.384 546.189 519.467 519.307 519.467ZM360.245 519.467C333.595 519.467 317.136 544.895 317.136 587.04C317.136 628.241 333.331 653.18 360.733 653.18C387.391 653.18 404.105 627.265 404.105 586.585C404.105 545.384 387.134 519.467 360.245 519.467ZM473.707 733.124H455.762C453.904 733.124 451.964 733.776 451.964 736.089V749.178C451.964 751.234 453.904 752.432 455.762 752.432H473.707C479.736 752.432 484.649 749.26 484.649 742.778C484.649 736.295 479.736 733.124 473.707 733.124ZM382.022 758.3C381.617 757.557 375.646 745.211 374.936 743.667C374.275 742.296 372.624 742.213 372.021 743.726C371.335 745.411 365.447 757.245 365.051 758.096C364.39 759.499 365.133 760.416 366.479 760.416H380.56C381.592 760.416 382.616 759.498 382.022 758.3C381.617 757.557 375.646 745.211 374.936 743.667C374.275 742.296 372.624 742.213 372.021 743.726C371.335 745.411 365.447 757.245 365.051 758.096C364.39 759.499 365.133 760.416 366.479 760.416H380.56C381.592 760.416 382.616 759.498 382.022 758.3ZM360.245 519.467C333.595 519.467 317.136 544.895 317.136 587.04C317.136 628.241 333.331 653.18 360.733 653.18C387.391 653.18 404.105 627.265 404.105 586.585C404.105 545.384 387.134 519.467 360.245 519.467ZM473.707 733.124H455.762C453.904 733.124 451.964 733.776 451.964 736.089V749.178C451.964 751.234 453.904 752.432 455.762 752.432H473.707C479.736 752.432 484.649 749.26 484.649 742.778C484.649 736.295 479.736 733.124 473.707 733.124ZM519.307 519.467C492.649 519.467 476.158 544.895 476.158 587.04C476.158 628.241 492.394 653.18 519.787 653.18C546.42 653.18 563.135 627.265 563.135 586.585C563.135 545.384 546.189 519.467 519.307 519.467ZM672.163 517.981C672.163 517.981 666.648 518.35 663.939 518.78C653.476 520.464 650.363 523.297 650.363 536.18V637.804C650.363 651.662 658.992 652.487 671.166 653.173C700.879 654.857 718.139 628.464 718.139 585.778C718.139 543.066 700.993 517.981 672.163 517.981C672.163 517.981 666.648 518.35 663.939 518.78C653.476 520.464 650.363 523.297 650.363 536.18V637.804C650.363 651.662 658.992 652.487 671.166 653.173C700.879 654.857 718.139 628.464 718.139 585.778C718.139 543.066 700.993 517.981 672.163 517.981ZM519.314 519.468C492.656 519.468 476.164 544.896 476.164 587.041C476.164 628.242 492.4 653.181 519.794 653.181C546.426 653.181 563.141 627.266 563.141 586.586C563.141 545.385 546.195 519.468 519.314 519.468ZM360.252 519.468C333.602 519.468 317.143 544.896 317.143 587.041C317.143 628.242 333.337 653.181 360.739 653.181C387.397 653.181 404.112 627.266 404.112 586.586C404.112 545.385 387.141 519.468 360.252 519.468ZM473.715 733.128H455.77C453.911 733.128 451.971 733.78 451.971 736.093V749.182C451.971 751.238 453.911 752.436 455.77 752.436H473.715C479.743 752.436 484.657 749.265 484.657 742.782C484.657 736.3 479.743 733.128 473.715 733.128ZM382.022 758.3C381.617 757.557 375.646 745.211 374.936 743.667C374.275 742.296 372.624 742.213 372.021 743.726C371.335 745.411 365.447 757.245 365.051 758.096C364.39 759.499 365.133 760.416 366.479 760.416H380.56C381.592 760.416 382.616 759.498 382.022 758.3ZM875.909 665.696C875.909 664.011 874.224 663.607 872.564 663.607H870.285V667.752H871.995C874.084 667.752 875.909 667.637 875.909 665.696ZM875.909 676.035L871.681 670.065H870.252V676.035H867.733V661.294H873.275C876.735 661.294 878.304 662.665 878.304 665.696C878.304 668.636 876.677 669.776 874.538 670.007L878.816 676.036L875.909 676.035ZM872.507 658.891C866.817 658.891 862.589 663.152 862.589 669.032C862.589 674.92 866.817 679.148 872.507 679.148C878.221 679.148 882.417 674.92 882.417 669.032C882.417 663.152 878.221 658.891 872.507 658.891ZM374.905 743.661C374.244 742.29 372.593 742.208 371.99 743.721C371.304 745.405 365.416 757.239 365.02 758.09C364.359 759.494 365.102 760.411 366.448 760.411H380.529C381.561 760.411 382.585 759.494 381.99 758.297C381.585 757.553 375.615 745.206 374.905 743.661ZM360.213 519.465C333.563 519.465 317.104 544.893 317.104 587.038C317.104 628.239 333.298 653.178 360.7 653.178C387.358 653.178 404.073 627.263 404.073 586.583C404.073 545.382 387.102 519.465 360.213 519.465ZM473.676 733.125H455.731C453.873 733.125 451.932 733.777 451.932 736.09V749.179C451.932 751.235 453.873 752.433 455.731 752.433H473.676C479.704 752.433 484.618 749.262 484.618 742.779C484.618 736.296 479.704 733.125 473.676 733.125ZM519.278 519.465C492.62 519.465 476.129 544.893 476.129 587.038C476.129 628.239 492.365 653.178 519.758 653.178C546.391 653.178 563.106 627.263 563.106 586.582C563.106 545.382 546.16 519.465 519.278 519.465ZM718.106 585.783C718.106 543.071 700.962 517.985 672.132 517.985C672.132 517.985 666.616 518.356 663.907 518.786C653.443 520.471 650.33 523.304 650.33 536.187V637.811C650.33 651.668 658.96 652.494 671.133 653.179C700.847 654.864 718.106 628.469 718.106 585.783ZM885.388 468.186C884.422 472.637 881.647 474.272 876.758 474.272L870.565 474.298H775.442C767.275 474.298 764.5 472.672 764.5 467.27C764.5 463.703 767.275 460.754 770.528 460.754H775.442C777.127 460.754 778.82 459.268 779.332 457.641C780.075 455.667 780.273 454.47 780.273 447.929V339.474C780.273 333.189 780.075 331.926 779.332 329.96C778.82 327.813 776.871 326.36 775.442 326.36H770.528C767.275 326.36 764.302 323.189 764.302 319.588C764.302 314.212 767.275 312.469 775.442 312.469H872.269C877.158 312.469 879.9 314.104 880.899 318.556L884.326 335.419C885.639 341.646 883.442 344.991 879.016 344.991C876.671 344.991 874.416 344.388 872.781 341.217C872.5 340.73 871.501 338.962 870.386 335.989C868.016 329.754 863.127 328.986 851.838 328.986H828.987C815.757 328.986 814.27 330.729 814.27 343.612V372.417C814.27 377.843 815.038 380.213 816.5 381.188C817.615 381.956 819.415 382.129 826.36 382.129H837.641C847.816 382.129 849.269 381.386 850.012 376.53L850.186 375.043C850.929 370.931 853.101 368.99 856.76 368.99C861.839 368.99 863.531 371.872 863.531 380.387V400.76C863.531 409.242 861.839 412.157 856.76 412.157C853.101 412.157 850.929 409.96 850.186 405.847L849.93 404.245C849.212 399.389 847.758 398.671 837.559 398.671H826.361C819.416 398.671 817.615 398.845 816.501 399.612C815.039 400.587 814.271 402.932 814.271 408.391V439.129C814.271 451.962 815.039 454.671 818.871 456.158C821.984 457.33 825.354 457.842 833.298 457.842L857.413 457.783C866.068 457.783 872.187 455.074 875.185 448.79C876.556 445.932 876.985 444.842 877.274 444.355C878.901 441.184 881.469 439.788 883.839 439.788C888.241 439.788 890.413 443.133 889.125 449.36L885.388 468.186ZM872.505 681.674C865.502 681.674 859.903 676.017 859.903 669.039C859.903 662.01 865.502 656.387 872.505 656.387C879.475 656.387 885.107 662.011 885.107 669.039C885.107 676.017 879.475 681.674 872.505 681.674ZM816.018 670.732C807.074 670.732 797.478 669.468 790.557 667.296C787.072 666.355 786.676 666.099 785.305 666.099C783.249 666.099 782.216 666.587 780.135 668.502C777.848 670.245 776.65 670.732 774.503 670.732C770.448 670.732 768.45 668.502 767.021 662.697L760.901 638.442C760.447 636.989 760.274 634.784 760.274 633.586C760.274 629.276 763.618 626.014 767.93 626.014C770.448 626.014 772.529 627.302 774.016 629.276L777.501 634.074C785.899 645.933 799.476 653.274 813.334 653.274C829.075 653.274 839.819 644.471 839.819 631.645C839.819 625.072 837.102 619.274 831.933 613.444C826.68 607.647 820.165 602.304 806.216 592.616C783.25 576.529 781.103 575.068 773.563 566.388C767.452 559.302 764.33 550.615 764.33 540.927C764.33 517.415 782.218 501.874 808.933 501.874C815.787 501.874 822.79 502.526 829.851 504.046C830.586 504.302 832.56 504.756 835.987 505.532C837.102 505.755 838.365 506.011 839.307 506.011C840.909 506.011 842.759 505.218 844.873 503.814C847.276 502.072 848.044 501.874 849.993 501.874C853.561 501.874 855.848 504.302 856.823 508.646L862.62 534.874C863.05 536.014 863.05 537.475 863.05 538.244C863.05 541.415 860.217 544.041 856.08 544.041C853.478 544.041 851.876 543.075 849.647 539.961C844.188 531.703 843.164 530.753 838.101 526.847C831.594 521.76 823.244 519.043 815.308 519.043C804.101 519.043 796.851 525.419 796.851 535.362C796.851 538.929 797.478 542.613 799.477 545.297C801.929 548.955 805.819 552.787 810.617 556.446C813.615 558.584 817.447 561.359 822.616 564.96C841.759 578.298 848.044 583.162 855.847 591.131C864.048 599.612 868.962 611.727 868.962 624.189C868.962 652.218 848.044 670.732 816.018 670.732ZM754.79 733.24H740.677C738.736 733.24 737.332 733.876 737.332 736.213L737.415 778.413C737.415 781.386 735.3 781.733 731.989 781.733C728.793 781.733 726.646 781.412 726.646 778.529V736.271C726.646 734.215 725.902 733.241 723.334 733.241H709.047C706.735 733.241 706.074 731.019 706.074 729.161C706.074 727.105 705.9 723.132 708.965 723.132H754.559C756.615 723.132 757.986 724.272 757.986 728.046C757.986 731.391 757.102 733.24 754.79 733.24ZM637.528 746.297H657.67C660.098 746.297 660.734 748.419 660.734 751.5C660.734 754.183 660.156 756.529 657.902 756.529H637.817C636.215 756.529 634.762 757.644 634.762 759.502V768.041C634.762 770.097 635.876 771.072 637.528 771.072H672.073C674.361 771.072 675.162 772.583 675.162 776.357C675.162 779.074 674.534 781.304 672.106 781.304H627.618C625.042 781.304 623.984 780.073 623.984 777.018V726.898C623.984 724.619 624.901 723.017 627.56 723.017H672.188C674.848 723.017 675.327 724.784 675.327 727.955C675.327 730.904 674.93 733.241 672.048 733.241H637.157C635.761 733.241 634.762 734.331 634.762 735.842V743.729C634.762 745.389 635.959 746.297 637.528 746.297ZM600.878 659.585C600.878 655.926 603.306 652.846 606.642 652.846H611.589C613.249 652.846 614.901 651.558 615.702 649.675C616.189 647.932 616.445 646.471 616.445 640.128V532.162C616.445 525.844 616.189 524.366 615.702 522.615C614.901 520.765 613.249 519.444 611.589 519.444H606.642C603.306 519.444 600.878 516.364 600.878 512.705C600.878 507.42 604.528 506.676 611.589 505.619C618.674 504.587 638.445 501.878 668.703 501.878C698.929 501.878 717.7 508.444 732.557 523.474C746.819 537.794 754.557 559.844 754.557 586.047C754.557 615.389 744.672 639.644 726.677 653.964C712.704 665.278 695.163 670.423 668.703 670.423C638.445 670.423 618.674 667.706 611.589 666.674C604.527 665.65 600.878 664.903 600.878 659.585ZM519.015 670.647C479.903 670.647 451.904 648.564 442.906 612.962C442.79 612.705 442.707 612.45 442.65 612.161C441.849 608.164 438.248 607.875 437.389 612.134C437.389 612.275 437.274 612.415 437.216 612.564C428.132 648.677 399.987 670.645 359.957 670.645C311.985 670.645 280.756 637.446 280.756 586.813C280.756 534.991 311.758 502.016 360.439 502.016C400.41 502.016 428.845 524.306 437.553 560.642C438.469 564.813 442.012 564.499 442.78 560.535C442.78 560.475 442.78 560.419 442.863 560.386C451.749 524.042 479.72 502.016 519.513 502.016C567.973 502.016 599.454 534.727 599.454 585.617C599.454 637.446 568.205 670.645 519.024 670.645M586.175 781.763C581.261 781.763 579.915 780.995 578.66 779.475L560.004 759.564C557.46 757.359 554.917 757.02 551.432 757.02C549.483 757.02 547.971 759.019 547.971 761.331V778.302C547.971 781.531 545.205 781.738 542.174 781.738C538.97 781.738 537.285 780.846 537.285 778.278V726.473C537.285 723.418 539.201 722.906 542.975 722.906C545.948 722.906 547.971 723.591 547.971 726.391V742.023C547.971 744.534 549.119 745.765 550.688 745.765C555.23 745.765 556.205 744.79 557.89 743.337C559.773 741.734 578.915 724.161 578.915 724.161C581.319 722.104 583.746 722.137 586.058 724.359C587.974 726.192 588.825 728.249 586.686 730.363C585.2 731.816 568.402 747.02 568.402 747.02C566.313 748.82 566.833 750.505 568.261 752.074C568.261 752.074 588.428 774.305 590.542 776.593C593.714 780.045 590.799 781.763 586.175 781.763ZM483.651 762.959C484.114 763.652 492.281 775.503 493.479 777.279C495.279 779.963 493.653 781.738 488.086 781.738C484.973 781.738 482.883 781.193 481.537 779.195L472.486 765.13C471.454 763.561 469.967 762.562 467.936 762.562H454.995C453.425 762.562 451.939 763.85 451.939 765.419L452.022 779.451C452.022 782.217 446.654 781.763 444.886 781.763C442.566 781.763 441.286 781.102 441.286 778.509L441.368 725.16C441.368 723.765 442.566 722.93 443.854 722.93H474.542C486.393 722.93 495.312 730.561 495.312 742.792C495.312 753.362 487.681 756.823 484.626 759.415C483.115 760.737 482.743 761.646 483.651 762.959ZM397.401 781.762C395.626 781.762 392.942 781.473 392.108 779.532L388.342 771.736C387.854 770.704 386.855 769.878 385.625 769.878H361.593C360.082 769.878 358.711 771.018 357.852 773.165L354.516 779.532C353.772 781.39 350.139 781.679 348.454 781.679C346.967 781.679 342.087 781.506 343.623 778.244L369.141 725.308C369.851 723.764 371.197 722.591 373.601 722.591C375.996 722.591 377.309 723.392 378.11 725.101C378.11 725.101 402.48 777.046 403.166 778.566C404.429 781.275 399.169 781.762 397.401 781.762ZM305.027 781.762C303.54 781.762 300.774 780.936 300.774 778.987L296.661 747.878C296.397 746.589 295.918 746.02 294.885 746.02C294.06 746.02 293.63 746.416 293.06 747.134L279.087 765.022C278.369 765.988 277.427 766.591 276.312 766.591C274.719 766.591 274.025 766.186 273.116 764.849L260.258 747.506C259.689 746.788 259.061 746.589 258.4 746.589C257.376 746.589 256.856 747.506 256.716 748.703L252.686 778.789C252.314 781.275 249.258 781.762 246.74 781.762C244.997 781.762 242.032 780.936 242.032 778.706L247.945 727.992C248.573 724.961 249.225 723.219 253.602 723.219C254.717 723.219 256.517 723.533 257.913 725.705L273.885 748.159C274.744 749.39 275.718 750.422 276.775 750.389C277.832 750.363 278.914 749.274 279.831 748.077L296.686 725.16C297.718 723.591 299.287 722.93 301.145 722.93C303.168 722.93 304.655 723.392 305.514 726.795L311.427 778.789C311.716 781.762 307.058 781.762 305.027 781.762ZM204.546 640.657C204.546 647.198 204.546 648.37 205.116 650.079C206.14 652.02 208.345 653.284 210.286 653.284H215.769C219.568 653.284 222.202 656.397 222.202 660.055C222.202 665.399 219.229 667.084 210.285 667.084H165.657C157.374 667.084 154.459 665.399 154.459 660.055C154.459 656.397 157.374 653.284 160.71 653.284H165.657C167.309 653.284 168.944 652.02 169.745 650.079C170.257 648.37 170.513 647.197 170.513 640.657V532.188C170.513 525.904 170.315 524.649 169.539 522.708C169.027 520.561 167.086 519.074 165.657 519.074H160.743C157.481 519.074 154.517 515.936 154.517 512.31C154.517 506.967 157.481 505.225 165.657 505.225H270.802C275.683 505.225 278.458 506.852 279.424 511.303L282.859 528.166C284.172 534.36 281.967 537.738 277.566 537.738C275.195 537.738 272.941 537.11 271.314 533.939C271.025 533.477 270.059 531.676 268.911 528.736C266.541 522.51 261.651 521.708 250.371 521.708H219.229C205.974 521.708 204.488 523.476 204.488 536.334V565.164C204.488 570.59 205.256 572.935 206.742 573.935C207.857 574.711 209.625 574.876 216.603 574.876H236.654C246.828 574.876 248.282 574.133 249.025 569.277L249.199 567.766C249.942 563.653 252.114 561.704 255.739 561.704C260.86 561.704 262.544 564.619 262.544 573.109V593.507C262.544 601.996 260.86 604.903 255.739 604.903C252.114 604.903 249.942 602.706 249.199 598.594L248.942 596.992C248.224 592.136 246.77 591.393 236.571 591.393H216.603C209.625 591.393 207.857 591.566 206.742 592.334C205.256 593.333 204.488 595.679 204.488 601.137L204.57 640.653L204.546 640.657ZM124.711 337.965C121.085 327.997 119.937 326.8 112.166 325.115C106.996 324.166 105.394 322.481 105.394 318.566C105.394 314.454 107.971 312.282 113.537 312.282H163.623C169.14 312.282 171.592 314.454 171.592 318.823C171.592 322.91 169.139 324.57 162.855 325.115C157.512 325.594 155.34 327.312 155.34 331.169C155.34 332.829 155.538 334.571 156.223 336.57L158.139 342.111C158.139 342.111 184.913 417.942 189.141 430.138C189.851 432.087 192.056 431.997 192.8 429.825C197.507 416.314 210.307 379.143 210.77 377.632C212.083 373.346 212.653 368.828 211.108 363.882C210.571 362.139 202.371 337.967 202.371 337.967C201.454 335.341 200.909 333.4 200.364 332.401C198.935 328.858 196.97 327.57 191.371 326.084C186.366 324.853 184.45 323.201 184.45 319.601C184.45 314.943 187.25 312.284 192.907 312.284H240.508C246.025 312.284 248.708 314.456 248.708 318.824C248.708 322.681 246.256 324.572 240.854 325.34C234.396 326.084 232.654 327.57 232.654 331.914C232.654 334.111 233.141 336.283 235.14 342.113C235.14 342.113 258.627 416.432 262.343 428.119C263.053 430.316 265.142 429.829 265.737 427.888C269.396 416.004 292.626 337.971 292.626 337.971C293.312 335.543 293.568 333.602 293.568 332.149C293.568 328.515 290.966 326.574 285.078 325.831C279.735 325.344 277.282 322.916 277.282 319.059C277.282 314.203 280.057 312.288 286.506 312.288H370.57C378.572 312.288 381.223 313.914 381.223 319.232C381.223 323.205 378.572 326.087 375.228 326.087H370.57C368.571 326.087 366.68 327.573 365.937 329.175C365.482 330.976 365.285 332.661 365.285 338.714V370.005C365.285 381.203 366.251 382.145 375.228 382.145H408.17C412.993 382.145 415.487 381.376 416.709 379.973C417.824 378.486 417.824 377.545 417.824 368.543V338.714C417.824 332.405 417.824 330.976 417.229 329.175C416.371 327.317 414.455 326.087 412.795 326.087H408.17C404.512 326.087 401.572 323.204 401.572 319.232C401.572 313.914 404.512 312.287 412.795 312.287H456.887C465.137 312.287 468.085 313.914 468.085 319.232C468.085 323.204 465.137 326.087 461.825 326.087H456.887C455.227 326.087 453.286 327.573 452.766 329.175C452.08 330.975 451.915 332.66 451.915 338.714V447.632C451.915 453.941 452.08 455.369 452.766 457.343C453.286 459.028 455.227 460.234 456.887 460.234H461.825C465.426 460.234 468.085 463.405 468.085 466.998C468.085 472.374 465.426 474.034 456.887 474.034H412.795C404.512 474.034 401.886 472.374 401.886 466.998C401.886 463.405 404.826 460.234 408.171 460.234H412.795C414.455 460.234 416.371 459.028 417.23 457.343C417.825 455.37 417.825 453.941 417.825 447.632V412.228C417.825 403.226 417.825 402.285 416.71 400.831C415.488 399.402 412.994 398.626 408.171 398.626H375.229C366.251 398.626 365.285 399.576 365.285 410.775V447.632C365.285 453.941 365.484 455.37 365.938 457.344C366.681 459.028 368.572 460.234 370.57 460.234H375.228C378.573 460.234 381.059 463.405 381.059 467.287C381.059 472.374 378.284 474.033 370.57 474.033H326.372C318.229 474.033 315.281 472.374 315.281 466.997C315.281 463.405 318.229 460.233 321.565 460.233H326.371C328.081 460.233 330.079 459.028 330.542 457.343C331.285 455.369 331.285 454.114 331.285 447.631V338.714C331.285 326.343 325.48 325.517 321.227 326.087C316.94 326.69 314.43 329.407 311.796 337.971L273.139 462.434C269.654 474.293 266.367 477.688 259.116 477.688C251.882 477.688 248.198 474.549 245.283 465.572C245.283 465.572 225.314 405.864 224.653 403.891C223.968 401.917 221.912 401.86 221.342 403.75C220.797 405.658 199.309 465.572 199.309 465.572C196.971 471.378 196.369 473.063 194.395 475.036C192.487 476.465 189.308 477.687 186.136 477.687C179.108 477.687 175.657 474.772 172.312 465.572L124.711 337.965ZM446.628 264.539C454.737 234.42 484.021 204.022 516.394 213.312C543.853 221.141 541.912 243.827 561.881 250.937C569.049 253.48 568.479 260.682 562.228 261.879C551.682 263.877 537.453 256.222 526.824 246.592C514.396 235.311 494.195 235.798 484.335 243.306C480.024 246.592 482.221 249.739 486.169 248.855C495.311 246.881 510.795 246.369 522.711 259.74C534.422 272.879 556.248 284.622 575.565 272.02C580.883 268.568 584.335 261.424 589.736 262.969C595.509 264.596 595.591 272.995 588.027 282.764C570.164 305.796 551.855 303.054 532.225 322.28C512.62 341.505 508.656 363.365 508.656 391.135C508.656 434.194 525.594 460.273 554.226 460.273C582.081 460.273 599.564 433.194 599.564 390.626C599.564 355.536 591.256 332.85 570.421 324.848C560.337 321.107 562.055 311.255 575.053 309.711C585.764 308.456 596.253 312.106 607.764 320.596C627.625 335.222 637.535 358.477 637.535 389.629C637.535 443.829 604.882 478.515 553.485 478.515C503.315 478.515 470.651 443.83 470.651 390.884C470.651 356.827 483.451 330.598 505.592 315.799C514.849 308.879 530.507 300.909 545.852 295.715C549.023 294.625 548.998 288.993 543.366 290.083C536.652 291.429 524.306 292.395 514.107 288.282C491.222 279.256 484.567 263.111 457.627 274.681C449.509 278.166 444.282 273.227 446.628 264.539ZM651.368 312.479H696.169C704.907 312.479 707.88 314.221 707.88 319.597C707.88 323.454 704.907 326.369 701.455 326.369H696.169C693.94 326.369 691.768 327.567 691.082 329.54C690.364 331.167 690.364 332.654 690.364 338.972V440.82C690.364 451.482 690.826 453.967 693.684 455.619C696.169 457.337 699.877 457.791 709.622 457.791H723.282C731.936 457.791 738.055 455.082 741.054 448.798C742.424 445.908 742.854 444.85 743.135 444.363C744.77 441.192 747.338 439.763 749.684 439.763C754.11 439.763 756.282 443.141 754.994 449.368L751.253 468.197C750.278 472.648 747.512 474.284 742.623 474.284H651.372C643.286 474.284 640.628 472.681 640.628 467.28C640.628 463.713 643.287 460.765 646.681 460.765H651.372C652.974 460.765 654.939 459.278 655.427 457.651C656.145 455.851 656.368 454.678 656.368 448.625V338.968C656.368 332.419 656.146 331.452 655.427 329.537C654.939 327.563 652.974 326.365 651.372 326.365H646.681C643.031 326.365 640.083 323.45 640.083 319.594C640.083 314.217 643.027 312.479 651.368 312.479ZM500 0.0185547C223.854 0.0185547 0 223.879 0 500.019C0 776.164 223.861 1000.02 500 1000.02C776.179 1000.02 1000 776.158 1000 500.019C1000 223.873 776.172 0.0185547 500 0.0185547ZM875.887 665.707C875.887 664.023 874.202 663.618 872.542 663.618H870.263V667.764H871.973C874.062 667.764 875.887 667.648 875.887 665.707ZM875.887 676.047L871.659 670.076H870.23V676.047H867.711V661.306H873.253C876.713 661.306 878.282 662.677 878.282 665.708C878.282 668.648 876.655 669.787 874.516 670.019L878.794 676.047L875.887 676.047ZM872.485 658.903C866.794 658.903 862.567 663.164 862.567 669.044C862.567 674.932 866.795 679.16 872.485 679.16C878.199 679.16 882.395 674.932 882.395 669.044C882.395 663.164 878.199 658.903 872.485 658.903ZM381.972 758.307C381.567 757.563 375.596 745.217 374.886 743.673C374.225 742.302 372.574 742.219 371.971 743.732C371.285 745.417 365.397 757.251 365.001 758.102C364.34 759.506 365.083 760.422 366.43 760.422H380.51C381.542 760.422 382.566 759.504 381.972 758.307ZM473.659 733.137H455.714C453.856 733.137 451.915 733.789 451.915 736.102V749.191C451.915 751.247 453.856 752.445 455.714 752.445H473.659C479.687 752.445 484.601 749.273 484.601 742.791C484.601 736.308 479.687 733.137 473.659 733.137ZM360.196 519.477C333.546 519.477 317.087 544.905 317.087 587.05C317.087 628.251 333.282 653.19 360.683 653.19C387.341 653.19 404.056 627.275 404.056 586.594C404.056 545.394 387.085 519.477 360.196 519.477ZM519.258 519.477C492.6 519.477 476.109 544.905 476.109 587.05C476.109 628.251 492.345 653.19 519.738 653.19C546.371 653.19 563.086 627.275 563.086 586.594C563.086 545.394 546.139 519.477 519.258 519.477ZM672.11 517.991C672.11 517.991 666.594 518.362 663.885 518.792C653.421 520.477 650.308 523.309 650.308 536.192V637.816C650.308 651.674 658.938 652.5 671.111 653.185C700.825 654.87 718.085 628.476 718.085 585.79C718.085 543.078 700.94 517.991 672.11 517.991ZM875.854 665.711C875.854 664.026 874.17 663.622 872.51 663.622H870.23V667.767H871.94C874.029 667.767 875.854 667.652 875.854 665.711ZM875.854 676.051L871.626 670.08H870.197V676.051H867.679V661.31H873.22C876.68 661.31 878.249 662.681 878.249 665.711C878.249 668.651 876.622 669.791 874.483 670.022L878.761 676.051L875.854 676.051ZM872.452 658.906C866.762 658.906 862.534 663.168 862.534 669.047C862.534 674.936 866.762 679.164 872.452 679.164C878.167 679.164 882.362 674.935 882.362 669.047C882.362 663.168 878.167 658.906 872.452 658.906ZM672.078 517.992C672.078 517.992 666.561 518.364 663.853 518.793C653.389 520.478 650.276 523.311 650.276 536.194V637.818C650.276 651.676 658.906 652.501 671.079 653.187C700.793 654.871 718.052 628.478 718.052 585.792C718.052 543.08 700.907 517.992 672.078 517.992ZM519.226 519.481C492.569 519.481 476.077 544.908 476.077 587.054C476.077 628.254 492.313 653.193 519.706 653.193C546.339 653.193 563.054 627.278 563.054 586.598C563.054 545.397 546.108 519.481 519.226 519.481ZM473.624 733.141H455.679C453.821 733.141 451.88 733.793 451.88 736.105V749.194C451.88 751.251 453.821 752.448 455.679 752.448H473.624C479.652 752.448 484.566 749.277 484.566 742.794C484.566 736.312 479.652 733.141 473.624 733.141ZM360.161 519.481C333.511 519.481 317.052 544.909 317.052 587.054C317.052 628.255 333.247 653.193 360.648 653.193C387.306 653.193 404.021 627.279 404.021 586.598C404.021 545.398 387.05 519.481 360.161 519.481ZM381.938 758.312C381.533 757.569 375.562 745.223 374.852 743.679C374.191 742.308 372.54 742.225 371.937 743.738C371.251 745.423 365.363 757.257 364.967 758.107C364.306 759.511 365.049 760.428 366.396 760.428H380.476C381.508 760.428 382.532 759.51 381.938 758.312C381.533 757.569 375.562 745.223 374.852 743.679C374.191 742.308 372.54 742.225 371.937 743.738C371.251 745.423 365.363 757.257 364.967 758.107C364.306 759.511 365.049 760.428 366.396 760.428H380.476C381.508 760.428 382.532 759.51 381.938 758.312ZM473.624 733.141H455.679C453.821 733.141 451.88 733.793 451.88 736.105V749.194C451.88 751.251 453.821 752.448 455.679 752.448H473.624C479.652 752.448 484.566 749.277 484.566 742.794C484.566 736.312 479.652 733.141 473.624 733.141ZM360.161 519.481C333.511 519.481 317.052 544.909 317.052 587.054C317.052 628.255 333.247 653.193 360.648 653.193C387.306 653.193 404.021 627.279 404.021 586.598C404.021 545.398 387.05 519.481 360.161 519.481ZM519.226 519.481C492.569 519.481 476.077 544.908 476.077 587.054C476.077 628.254 492.313 653.193 519.706 653.193C546.339 653.193 563.054 627.278 563.054 586.598C563.054 545.397 546.108 519.481 519.226 519.481ZM672.078 517.992C672.078 517.992 666.561 518.364 663.853 518.793C653.389 520.478 650.276 523.311 650.276 536.194V637.818C650.276 651.676 658.906 652.501 671.079 653.187C700.793 654.871 718.052 628.478 718.052 585.792C718.052 543.08 700.907 517.992 672.078 517.992C672.078 517.992 666.561 518.364 663.853 518.793C653.389 520.478 650.276 523.311 650.276 536.194V637.818C650.276 651.676 658.906 652.501 671.079 653.187C700.793 654.871 718.052 628.478 718.052 585.792C718.052 543.08 700.907 517.992 672.078 517.992ZM519.226 519.481C492.569 519.481 476.077 544.908 476.077 587.054C476.077 628.254 492.313 653.193 519.706 653.193C546.339 653.193 563.054 627.278 563.054 586.598C563.054 545.397 546.108 519.481 519.226 519.481ZM473.624 733.141H455.679C453.821 733.141 451.88 733.793 451.88 736.105V749.194C451.88 751.251 453.821 752.448 455.679 752.448H473.624C479.652 752.448 484.566 749.277 484.566 742.794C484.566 736.312 479.652 733.141 473.624 733.141ZM360.161 519.481C333.511 519.481 317.052 544.909 317.052 587.054C317.052 628.255 333.247 653.193 360.648 653.193C387.306 653.193 404.021 627.279 404.021 586.598C404.021 545.398 387.05 519.481 360.161 519.481ZM381.938 758.312C381.533 757.569 375.562 745.223 374.852 743.679C374.191 742.308 372.54 742.225 371.937 743.738C371.251 745.423 365.363 757.257 364.967 758.107C364.306 759.511 365.049 760.428 366.396 760.428H380.476C381.508 760.428 382.532 759.51 381.938 758.312C381.533 757.569 375.562 745.223 374.852 743.679C374.191 742.308 372.54 742.225 371.937 743.738C371.251 745.423 365.363 757.257 364.967 758.107C364.306 759.511 365.049 760.428 366.396 760.428H380.476C381.508 760.428 382.532 759.51 381.938 758.312ZM473.624 733.141H455.679C453.821 733.141 451.88 733.793 451.88 736.105V749.194C451.88 751.251 453.821 752.448 455.679 752.448H473.624C479.652 752.448 484.566 749.277 484.566 742.794C484.566 736.312 479.652 733.141 473.624 733.141ZM360.161 519.481C333.511 519.481 317.052 544.909 317.052 587.054C317.052 628.255 333.247 653.193 360.648 653.193C387.306 653.193 404.021 627.279 404.021 586.598C404.021 545.398 387.05 519.481 360.161 519.481ZM519.226 519.481C492.569 519.481 476.077 544.908 476.077 587.054C476.077 628.254 492.313 653.193 519.706 653.193C546.339 653.193 563.054 627.278 563.054 586.598C563.054 545.397 546.108 519.481 519.226 519.481ZM672.078 517.992C672.078 517.992 666.561 518.364 663.853 518.793C653.389 520.478 650.276 523.311 650.276 536.194V637.818C650.276 651.676 658.906 652.501 671.079 653.187C700.793 654.871 718.052 628.478 718.052 585.792C718.052 543.08 700.907 517.992 672.078 517.992C672.078 517.992 666.561 518.364 663.853 518.793C653.389 520.478 650.276 523.311 650.276 536.194V637.818C650.276 651.676 658.906 652.501 671.079 653.187C700.793 654.871 718.052 628.478 718.052 585.792C718.052 543.08 700.907 517.992 672.078 517.992ZM519.226 519.481C492.569 519.481 476.077 544.908 476.077 587.054C476.077 628.254 492.313 653.193 519.706 653.193C546.339 653.193 563.054 627.278 563.054 586.598C563.054 545.397 546.108 519.481 519.226 519.481ZM473.624 733.141H455.679C453.821 733.141 451.88 733.793 451.88 736.105V749.194C451.88 751.251 453.821 752.448 455.679 752.448H473.624C479.652 752.448 484.566 749.277 484.566 742.794C484.566 736.312 479.652 733.141 473.624 733.141ZM360.161 519.481C333.511 519.481 317.052 544.909 317.052 587.054C317.052 628.255 333.247 653.193 360.648 653.193C387.306 653.193 404.021 627.279 404.021 586.598C404.021 545.398 387.05 519.481 360.161 519.481ZM381.938 758.312C381.533 757.569 375.562 745.223 374.852 743.679C374.191 742.308 372.54 742.225 371.937 743.738C371.251 745.423 365.363 757.257 364.967 758.107C364.306 759.511 365.049 760.428 366.396 760.428H380.476C381.508 760.428 382.532 759.51 381.938 758.312ZM360.161 519.481C333.511 519.481 317.052 544.909 317.052 587.054C317.052 628.255 333.247 653.193 360.648 653.193C387.306 653.193 404.021 627.279 404.021 586.598C404.021 545.398 387.05 519.481 360.161 519.481ZM519.22 519.484C492.562 519.484 476.071 544.912 476.071 587.057C476.071 628.258 492.307 653.196 519.7 653.196C546.333 653.196 563.048 627.282 563.048 586.601C563.048 545.401 546.101 519.484 519.22 519.484ZM672.072 517.997C672.072 517.997 666.556 518.369 663.847 518.798C653.383 520.483 650.27 523.316 650.27 536.199V637.823C650.27 651.681 658.9 652.506 671.073 653.191C700.787 654.876 718.047 628.482 718.047 585.797C718.047 543.085 700.902 517.997 672.072 517.997C672.072 517.997 666.556 518.369 663.847 518.798C653.383 520.483 650.27 523.316 650.27 536.199V637.823C650.27 651.681 658.9 652.506 671.073 653.191C700.787 654.876 718.047 628.482 718.047 585.797C718.047 543.085 700.902 517.997 672.072 517.997ZM519.22 519.484C492.562 519.484 476.071 544.912 476.071 587.057C476.071 628.258 492.307 653.196 519.7 653.196C546.333 653.196 563.048 627.282 563.048 586.601C563.048 545.401 546.101 519.484 519.22 519.484ZM360.161 519.481C333.511 519.481 317.052 544.909 317.052 587.054C317.052 628.255 333.247 653.193 360.648 653.193C387.306 653.193 404.021 627.279 404.021 586.598C404.021 545.398 387.05 519.481 360.161 519.481C333.511 519.481 317.052 544.909 317.052 587.054C317.052 628.255 333.247 653.193 360.648 653.193C387.306 653.193 404.021 627.279 404.021 586.598C404.021 545.398 387.05 519.481 360.161 519.481ZM519.22 519.484C492.562 519.484 476.071 544.912 476.071 587.057C476.071 628.258 492.307 653.196 519.7 653.196C546.333 653.196 563.048 627.282 563.048 586.601C563.048 545.401 546.101 519.484 519.22 519.484ZM672.072 517.997C672.072 517.997 666.556 518.369 663.847 518.798C653.383 520.483 650.27 523.316 650.27 536.199V637.823C650.27 651.681 658.9 652.506 671.073 653.191C700.787 654.876 718.047 628.482 718.047 585.797C718.047 543.085 700.902 517.997 672.072 517.997C672.072 517.997 666.556 518.369 663.847 518.798C653.383 520.483 650.27 523.316 650.27 536.199V637.823C650.27 651.681 658.9 652.506 671.073 653.191C700.787 654.876 718.047 628.482 718.047 585.797C718.047 543.085 700.904 518.004 672.075 518.004M519.223 519.49C492.565 519.49 476.073 544.918 476.073 587.064C476.073 628.264 492.309 653.203 519.703 653.203C546.335 653.203 563.05 627.288 563.05 586.608C563.05 545.407 546.104 519.49 519.223 519.49ZM360.16 519.49C333.51 519.49 317.052 544.918 317.052 587.064C317.052 628.264 333.246 653.203 360.648 653.203C387.306 653.203 404.021 627.288 404.021 586.608C404.021 545.407 387.05 519.49 360.16 519.49Z" fill="#006F46"/>
</g>
<defs>
<clipPath id="clip0_4_164">
<rect width="1000" height="1000" rx="500" fill="white"/>
</clipPath>
</defs>
</svg>
