<svg width="1000" height="1000" viewBox="0 0 1000 1000" fill="none" xmlns="http://www.w3.org/2000/svg">
<g clip-path="url(#clip0_17_19)">
<rect width="1000" height="1000" rx="500" fill="white"/>
<path fill-rule="evenodd" clip-rule="evenodd" d="M500 1000C776.142 1000 1000 776.142 1000 500C1000 223.858 776.142 0 500 0C223.858 0 0 223.858 0 500C0 776.142 223.858 1000 500 1000ZM754.224 310.161L890.659 422.97L890.661 422.968C914.391 442.478 900.832 480.646 869.476 480.646H788.97V759.699C788.97 783.446 769.482 802.956 745.753 802.956H254.247C230.521 802.956 211.029 783.45 211.029 759.699V481.494H130.524C99.1703 481.494 85.6087 442.478 109.338 422.969L479.662 118.47C491.527 108.293 509.322 108.293 521.187 118.47L672.875 243.153V211.772C672.875 199.049 683.043 188.872 695.754 188.872H731.345C744.056 188.872 754.224 199.049 754.224 211.772V310.161Z" fill="#880088"/>
</g>
<defs>
<clipPath id="clip0_17_19">
<rect width="1000" height="1000" rx="500" fill="white"/>
</clipPath>
</defs>
</svg>
