<svg width="244" height="31" viewBox="0 0 244 31" fill="none" xmlns="http://www.w3.org/2000/svg">
<g clip-path="url(#clip0_1135_78)">
<mask id="mask0_1135_78" style="mask-type:luminance" maskUnits="userSpaceOnUse" x="0" y="0" width="100" height="31">
<path d="M100 0.805786H0V30.1943H100V0.805786Z" fill="white"/>
</mask>
<g mask="url(#mask0_1135_78)">
<mask id="mask1_1135_78" style="mask-type:luminance" maskUnits="userSpaceOnUse" x="0" y="0" width="100" height="31">
<path d="M100 0.805786H0V30.1943H100V0.805786Z" fill="white"/>
</mask>
<g mask="url(#mask1_1135_78)">
<path d="M34.5506 1.32565L22.6378 29.7495H14.8643L9.00206 7.06485C8.64607 5.66786 8.33642 5.15684 7.25372 4.5683C5.4881 3.60945 2.56859 2.70958 0 2.15138L0.176101 1.32565H12.6871C14.2812 1.32565 15.7161 2.3873 16.0776 4.22326L19.1744 20.6728L26.8259 1.32565H34.5506ZM65.0071 20.4693C65.0387 12.9671 54.632 12.5538 54.7041 9.20245C54.7256 8.1821 55.6979 7.09855 57.8225 6.82092C58.8778 6.68316 61.7788 6.57784 65.0736 8.0932L66.3632 2.06628C64.5942 1.42339 62.3172 0.805786 59.4853 0.805786C52.2181 0.805786 47.1024 4.66983 47.059 10.2022C47.0135 14.2941 50.7103 16.5767 53.4971 17.9378C56.361 19.3306 57.3237 20.2229 57.3114 21.4691C57.2925 23.3775 55.026 24.2175 52.9124 24.2512C49.2143 24.3098 47.0691 23.2532 45.3587 22.4561L44.0266 28.6836C45.7442 29.4735 48.9148 30.1589 52.2046 30.1943C59.928 30.1943 64.9818 26.3775 65.0071 20.4693ZM84.1967 29.7495H90.9984L85.0633 1.32565H78.7853C77.3748 1.32565 76.1847 2.14632 75.6551 3.41102L64.6237 29.7495H72.3442L73.8777 25.5054H83.3116L84.1967 29.7495ZM75.9934 19.6786L79.8642 9.00529L82.0919 19.6786H75.9934ZM45.0575 1.32565L38.9766 29.7495H31.6239L37.7056 1.32565H45.0575Z" fill="#1434CB"/>
</g>
</g>
</g>
<rect x="105" width="1" height="31" fill="#1434CB"/>
<path d="M122.457 17.6452C123.275 18.0454 124.266 18.2465 125.426 18.2465C126.622 18.2465 127.643 18.0279 128.493 17.5906C129.34 17.1555 130.009 16.5673 130.496 15.8283C130.982 15.0892 131.285 14.2715 131.401 13.375H129.276C129.124 14.3174 128.701 15.0411 128.005 15.5484C127.307 16.0535 126.447 16.3071 125.426 16.3071C124.717 16.3071 124.094 16.1847 123.555 15.9398C123.014 15.6949 122.564 15.3516 122.204 14.9099C121.845 14.4661 121.574 13.9588 121.395 13.3816C121.214 12.8065 121.125 12.1921 121.125 11.5405C121.125 10.854 121.214 10.2243 121.395 9.64702C121.574 9.06978 121.838 8.56689 122.187 8.13614C122.536 7.7054 122.974 7.36868 123.502 7.1238C124.03 6.87891 124.637 6.75646 125.322 6.75646C125.983 6.75646 126.578 6.86798 127.106 7.08881C127.634 7.30965 128.07 7.63762 128.413 8.07492C128.753 8.51222 128.971 9.05666 129.065 9.70824H131.172C131.08 8.71994 130.786 7.86283 130.293 7.13473C129.8 6.40881 129.135 5.84251 128.299 5.43363C127.464 5.02476 126.471 4.82141 125.322 4.82141C124.22 4.82141 123.265 5.01382 122.457 5.39865C121.65 5.78128 120.994 6.28855 120.49 6.91608C119.984 7.5436 119.611 8.24328 119.366 9.01074C119.122 9.77821 119 10.5522 119 11.3328V11.7176C119 12.4282 119.12 13.1651 119.358 13.926C119.596 14.6891 119.966 15.3975 120.472 16.0556C120.979 16.7138 121.639 17.2429 122.457 17.6452Z" fill="#3F4040"/>
<path fill-rule="evenodd" clip-rule="evenodd" d="M133.942 17.818C134.453 18.0563 135.051 18.1766 135.735 18.1766C136.396 18.1766 136.957 18.0563 137.415 17.8158C137.873 17.5775 138.233 17.2342 138.495 16.7859C138.611 16.5856 138.707 16.3638 138.783 16.1207V17.9317H140.401V12.05C140.401 11.1644 140.247 10.4582 139.939 9.92908C139.631 9.39994 139.165 9.01293 138.539 8.76804C137.91 8.52316 137.121 8.40071 136.17 8.40071C135.866 8.40071 135.55 8.40727 135.221 8.4182C134.891 8.42914 134.571 8.44444 134.263 8.46193C133.955 8.47943 133.674 8.49911 133.419 8.52316V10.2855C133.709 10.2614 134.043 10.2417 134.42 10.2243C134.797 10.2068 135.184 10.1915 135.578 10.1805C135.973 10.1696 136.333 10.163 136.658 10.163C137.252 10.163 137.697 10.3161 138 10.6178C138.303 10.9217 138.453 11.3634 138.453 11.945V12.1199H136.309C135.485 12.1199 134.778 12.2315 134.185 12.4523C133.593 12.6731 133.137 13.0055 132.819 13.4472C132.501 13.8888 132.341 14.4464 132.341 15.122C132.341 15.7605 132.479 16.3115 132.758 16.7706C133.037 17.2298 133.432 17.5796 133.942 17.818ZM138.453 13.4625H136.257C135.642 13.4625 135.171 13.6111 134.845 13.9063C134.52 14.2037 134.359 14.5907 134.359 15.0673C134.359 15.544 134.52 15.9266 134.845 16.2109C135.171 16.4973 135.642 16.6394 136.257 16.6394C136.617 16.6394 136.959 16.5738 137.284 16.4383C137.609 16.3049 137.88 16.0797 138.094 15.767C138.31 15.4522 138.427 15.0105 138.451 14.4398L138.453 14.4427V13.4625Z" fill="#3F4040"/>
<path d="M142.197 8.52319H143.815V10.7791C143.866 10.5737 143.927 10.3801 143.999 10.198C144.247 9.5574 144.629 9.072 145.139 8.73965C145.65 8.4073 146.282 8.24113 147.037 8.24113H147.124C148.285 8.24113 149.151 8.60846 149.72 9.34094C150.287 10.0734 150.573 11.1448 150.573 12.5529V17.9295H148.536V12.2774C148.536 11.6258 148.35 11.0989 147.98 10.6988C147.609 10.2964 147.098 10.0975 146.448 10.0975C145.785 10.0975 145.253 10.303 144.845 10.7162C144.439 11.1295 144.236 11.6805 144.236 12.3671V17.9361H142.197V8.52319Z" fill="#3F4040"/>
<path d="M152.366 8.52319V17.9361H154.406V12.3671C154.406 11.6805 154.609 11.1295 155.014 10.7162C155.422 10.303 155.955 10.0975 156.618 10.0975C157.268 10.0975 157.778 10.2964 158.149 10.6988C158.52 11.0989 158.705 11.6258 158.705 12.2774V17.9295H160.743V12.5529C160.743 11.1448 160.457 10.0734 159.89 9.34094C159.32 8.60846 158.454 8.24113 157.294 8.24113H157.207C156.452 8.24113 155.819 8.4073 155.309 8.73965C154.798 9.072 154.417 9.5574 154.168 10.198C154.097 10.3801 154.036 10.5737 153.985 10.7791V8.52319H152.366Z" fill="#3F4040"/>
<path fill-rule="evenodd" clip-rule="evenodd" d="M167.289 18.2466C166.464 18.2466 165.738 18.1088 165.112 17.8355C164.484 17.5622 163.956 17.1992 163.526 16.7444C163.096 16.2896 162.771 15.7758 162.551 15.1986C162.331 14.6235 162.22 14.0266 162.22 13.41V13.0602C162.22 12.4436 162.333 11.8445 162.56 11.2629C162.787 10.6813 163.116 10.1609 163.552 9.69953C163.989 9.24037 164.519 8.87741 165.145 8.60847C165.773 8.34172 166.486 8.20615 167.287 8.20615C168.087 8.20615 168.799 8.33953 169.42 8.60847C170.042 8.87522 170.572 9.24037 171.013 9.69953C171.453 10.1587 171.787 10.6813 172.014 11.2629C172.241 11.8445 172.354 12.4436 172.354 13.0602V13.41C172.354 14.0266 172.243 14.6235 172.023 15.1986C171.802 15.7758 171.477 16.2896 171.048 16.7444C170.618 17.1992 170.09 17.5622 169.462 17.8355C168.84 18.1088 168.114 18.2466 167.289 18.2466ZM167.289 16.4667C167.928 16.4667 168.474 16.3246 168.925 16.0382C169.379 15.754 169.723 15.3669 169.961 14.8772C170.199 14.3896 170.319 13.8408 170.319 13.2373C170.319 12.6207 170.197 12.0675 169.952 11.5799C169.708 11.0923 169.359 10.7053 168.908 10.4189C168.454 10.1346 167.915 9.99034 167.287 9.99034C166.661 9.99034 166.12 10.1325 165.668 10.4189C165.215 10.7031 164.868 11.0901 164.623 11.5799C164.379 12.0697 164.259 12.6207 164.259 13.2373C164.259 13.843 164.379 14.3896 164.617 14.8772C164.855 15.3669 165.201 15.754 165.653 16.0382C166.105 16.3246 166.65 16.4667 167.289 16.4667Z" fill="#3F4040"/>
<path d="M173.646 8.52319V17.9361H175.685V12.3671C175.685 11.6805 175.888 11.1295 176.294 10.7162C176.702 10.303 177.234 10.0975 177.897 10.0975C178.547 10.0975 179.058 10.2964 179.428 10.6988C179.799 11.0989 179.985 11.6258 179.985 12.2774V17.9295H182.022V12.5529C182.022 11.1448 181.736 10.0734 181.169 9.34094C180.6 8.60846 179.734 8.24113 178.573 8.24113H178.486C177.731 8.24113 177.099 8.4073 176.588 8.73965C176.078 9.072 175.696 9.5574 175.447 10.198C175.376 10.3801 175.315 10.5737 175.264 10.7791V8.52319H173.646Z" fill="#3F4040"/>
<path fill-rule="evenodd" clip-rule="evenodd" d="M189.04 18.2466C188.274 18.2466 187.591 18.0782 186.993 17.7393C186.396 17.4026 185.925 16.9128 185.582 16.2722C185.529 16.1727 185.479 16.07 185.434 15.9641V17.9295H183.815V5.18879H185.853V10.0936C186.203 9.47028 186.662 9.00372 187.229 8.69594C187.809 8.38108 188.459 8.22365 189.179 8.22365C189.842 8.22365 190.442 8.3461 190.981 8.59098C191.522 8.83587 191.984 9.17478 192.375 9.61208C192.763 10.0494 193.06 10.5588 193.263 11.1404C193.466 11.7221 193.568 12.3518 193.568 13.0252V13.375C193.568 14.0507 193.463 14.6782 193.254 15.2598C193.045 15.8414 192.739 16.3574 192.34 16.8057C191.941 17.2539 191.461 17.6059 190.902 17.8617C190.346 18.1176 189.724 18.2466 189.04 18.2466ZM188.675 16.4842C189.242 16.4842 189.744 16.3443 190.172 16.0644C190.601 15.7846 190.935 15.3997 191.173 14.9034C191.411 14.4093 191.531 13.8408 191.531 13.2023C191.531 12.5507 191.408 11.9844 191.166 11.5012C190.922 11.018 190.588 10.6441 190.165 10.3752C189.742 10.1062 189.245 9.97285 188.677 9.97285C188.167 9.97285 187.689 10.0887 187.249 10.3227C186.808 10.5566 186.452 10.8912 186.186 11.3263C185.918 11.7636 185.785 12.2884 185.785 12.9049V13.6549C185.785 14.2475 185.92 14.7569 186.193 15.1833C186.465 15.6075 186.823 15.9311 187.264 16.1519C187.704 16.3727 188.176 16.4842 188.675 16.4842Z" fill="#3F4040"/>
<path fill-rule="evenodd" clip-rule="evenodd" d="M196.371 17.818C196.882 18.0563 197.479 18.1766 198.164 18.1766C198.827 18.1766 199.386 18.0563 199.846 17.8158C200.304 17.5775 200.664 17.2342 200.926 16.7859C201.041 16.5875 201.136 16.3681 201.212 16.1276V17.9317H202.83V12.05C202.83 11.1644 202.675 10.4582 202.368 9.92908C202.06 9.39994 201.593 9.01293 200.967 8.76804C200.339 8.52316 199.549 8.40071 198.598 8.40071C198.295 8.40071 197.979 8.40727 197.649 8.4182C197.32 8.42914 196.999 8.44444 196.692 8.46193C196.384 8.47943 196.103 8.49911 195.848 8.52316V10.2855C196.138 10.2614 196.471 10.2417 196.849 10.2243C197.226 10.2068 197.612 10.1915 198.007 10.1805C198.402 10.1696 198.762 10.163 199.087 10.163C199.68 10.163 200.125 10.3161 200.428 10.6178C200.732 10.9217 200.882 11.3634 200.882 11.945V12.1199H198.738C197.913 12.1199 197.207 12.2315 196.613 12.4523C196.022 12.6731 195.566 13.0055 195.248 13.4472C194.929 13.8888 194.77 14.4464 194.77 15.122C194.77 15.7605 194.907 16.3115 195.187 16.7706C195.466 17.2298 195.861 17.5796 196.371 17.818ZM200.882 13.4625H198.688C198.073 13.4625 197.601 13.6111 197.276 13.9063C196.951 14.2037 196.79 14.5907 196.79 15.0673C196.79 15.544 196.951 15.9266 197.276 16.2109C197.601 16.4973 198.073 16.6394 198.688 16.6394C199.048 16.6394 199.39 16.5738 199.715 16.4383C200.04 16.3049 200.311 16.0797 200.524 15.767C200.74 15.4522 200.858 15.0105 200.882 14.4398V13.4625Z" fill="#3F4040"/>
<path d="M203.84 6.76088V5.18879H207.132V17.9317H205.077V6.76088H203.84Z" fill="#3F4040"/>
<path d="M208.648 5.18879V6.76088H209.885V17.9317H211.94V5.18879H208.648Z" fill="#3F4040"/>
<path d="M186.714 25.5211C186.276 25.5211 185.901 25.4446 185.591 25.2937C185.281 25.1428 185.03 24.9417 184.84 24.6924C184.648 24.4432 184.509 24.1764 184.419 23.8878C184.33 23.5992 184.284 23.3215 184.284 23.0526V22.9082C184.284 22.6131 184.33 22.3201 184.422 22.0293C184.513 21.7385 184.655 21.4739 184.847 21.2378C185.039 20.9994 185.285 20.8092 185.591 20.6627C185.896 20.5184 186.256 20.4441 186.673 20.4441C187.109 20.4441 187.484 20.5206 187.798 20.6758C188.115 20.8311 188.365 21.0453 188.553 21.3187C188.741 21.5942 188.85 21.9178 188.887 22.2916H188.091C188.056 22.0446 187.973 21.839 187.844 21.6751C187.713 21.5111 187.55 21.3864 187.349 21.3012C187.148 21.2181 186.924 21.1765 186.673 21.1765C186.413 21.1765 186.184 21.2224 185.986 21.3143C185.785 21.4061 185.621 21.5351 185.488 21.6969C185.357 21.8587 185.257 22.0489 185.189 22.2676C185.122 22.4862 185.087 22.7246 185.087 22.9826C185.087 23.2297 185.122 23.4614 185.189 23.6801C185.257 23.8987 185.36 24.0911 185.495 24.2573C185.63 24.4257 185.8 24.5547 186.005 24.6465C186.21 24.7383 186.446 24.7843 186.714 24.7843C187.1 24.7843 187.425 24.6881 187.689 24.4978C187.953 24.3054 188.112 24.0321 188.171 23.6757H188.974C188.93 24.0146 188.815 24.3229 188.632 24.6028C188.448 24.8826 188.195 25.1035 187.875 25.2697C187.552 25.4402 187.166 25.5211 186.714 25.5211Z" fill="#3F4040"/>
<path d="M189.757 21.8456V25.403H190.527V23.5139C190.527 23.1837 190.617 22.9279 190.793 22.7508C190.972 22.5737 191.227 22.484 191.561 22.484H191.799V21.804H191.675C191.236 21.804 190.905 21.9308 190.68 22.1845C190.518 22.3671 190.415 22.6156 190.37 22.9314V21.8456H189.757Z" fill="#3F4040"/>
<path fill-rule="evenodd" clip-rule="evenodd" d="M193.998 25.5211C193.69 25.5211 193.422 25.4686 193.195 25.3615C192.966 25.2565 192.781 25.1166 192.634 24.9417C192.49 24.7689 192.381 24.5721 192.309 24.3535C192.237 24.1348 192.2 23.9118 192.2 23.6844V23.5598C192.2 23.3258 192.235 23.1006 192.309 22.8842C192.381 22.6655 192.49 22.4709 192.634 22.296C192.778 22.1233 192.962 21.9833 193.184 21.8806C193.407 21.7778 193.664 21.7253 193.958 21.7253C194.34 21.7253 194.659 21.8084 194.914 21.9768C195.169 22.1429 195.359 22.3594 195.488 22.6262C195.614 22.8929 195.68 23.1793 195.68 23.4876V23.7981H192.94C192.954 23.9683 192.989 24.1236 193.044 24.2639C193.119 24.4519 193.236 24.5984 193.394 24.7055C193.553 24.8127 193.753 24.8673 194 24.8673C194.246 24.8673 194.447 24.8127 194.606 24.7055C194.763 24.5984 194.862 24.4716 194.896 24.3251H195.614C195.566 24.5678 195.468 24.7777 195.322 24.9592C195.176 25.1385 194.988 25.2784 194.766 25.3746C194.539 25.473 194.284 25.5211 193.998 25.5211ZM193.044 22.9738C193.007 23.0657 192.98 23.1664 192.961 23.2756H194.932C194.914 23.1461 194.883 23.0287 194.838 22.9235C194.763 22.7508 194.654 22.6152 194.508 22.5212C194.364 22.4272 194.181 22.3791 193.961 22.3791C193.732 22.3791 193.542 22.4316 193.387 22.5387C193.232 22.6437 193.119 22.7902 193.044 22.9738Z" fill="#3F4040"/>
<path fill-rule="evenodd" clip-rule="evenodd" d="M196.818 25.3593C197.01 25.4489 197.237 25.4948 197.497 25.4948C197.745 25.4948 197.957 25.4511 198.131 25.3636C198.304 25.274 198.441 25.145 198.539 24.9745C198.583 24.8993 198.62 24.8159 198.648 24.7242V25.403H199.259V23.1793C199.259 22.8448 199.2 22.578 199.085 22.3769C198.969 22.1757 198.79 22.0292 198.555 21.9374C198.319 21.8456 198.02 21.7997 197.66 21.7997C197.545 21.7997 197.425 21.8018 197.3 21.8062C197.176 21.8084 197.054 21.815 196.938 21.8215C196.823 21.8281 196.716 21.8368 196.62 21.8456V22.5125C196.731 22.5037 196.855 22.495 196.999 22.4884C197.143 22.4818 197.289 22.4775 197.438 22.4731C197.586 22.4687 197.724 22.4665 197.846 22.4665C198.068 22.4665 198.238 22.5234 198.352 22.6371C198.467 22.7508 198.524 22.917 198.524 23.1378V23.2056H197.713C197.401 23.2056 197.135 23.2471 196.91 23.3302C196.687 23.4133 196.515 23.5379 196.393 23.7063C196.273 23.8746 196.212 24.0845 196.212 24.3404C196.212 24.5809 196.266 24.7908 196.371 24.9635C196.476 25.1363 196.624 25.2696 196.818 25.3593ZM198.524 23.715H197.693C197.46 23.715 197.283 23.7719 197.161 23.8834C197.036 23.9949 196.975 24.1414 196.975 24.3229C196.975 24.5044 197.036 24.6465 197.161 24.7558C197.283 24.8629 197.462 24.9176 197.693 24.9176C197.828 24.9176 197.959 24.8914 198.081 24.8411C198.203 24.7908 198.306 24.7055 198.387 24.5874C198.467 24.4694 198.513 24.301 198.522 24.0867L198.524 24.0896V23.715Z" fill="#3F4040"/>
<path d="M199.846 22.4184V21.8433H200.433V20.8091H201.164V21.8433H202.322V22.4184H201.164V24.196C201.164 24.3797 201.214 24.5218 201.312 24.6224C201.41 24.7208 201.55 24.7711 201.731 24.7711H202.324V25.4445H201.79V25.4423C201.495 25.4423 201.249 25.403 201.046 25.3242C200.843 25.2455 200.692 25.1078 200.588 24.9154C200.485 24.7208 200.433 24.4606 200.433 24.1304V22.4184H199.846Z" fill="#3F4040"/>
<path d="M202.811 21.8456V22.4403H203.332V25.403H204.102V21.8456H202.811Z" fill="#3F4040"/>
<path d="M203.229 21.2246C203.306 21.3077 203.423 21.3493 203.581 21.3493C203.744 21.3493 203.864 21.3077 203.94 21.2246C204.019 21.1415 204.056 21.0322 204.056 20.901C204.056 20.7742 204.017 20.6671 203.94 20.5818C203.862 20.4965 203.742 20.4528 203.581 20.4528C203.423 20.4528 203.306 20.4965 203.229 20.5818C203.153 20.6671 203.114 20.7742 203.114 20.901C203.114 21.0322 203.153 21.1415 203.229 21.2246Z" fill="#3F4040"/>
<path d="M205.978 25.403L204.82 21.8456H205.622L206.544 24.7755H206.697L207.5 21.8456H208.251L207.243 25.403H205.978Z" fill="#3F4040"/>
<path fill-rule="evenodd" clip-rule="evenodd" d="M209.688 25.3615C209.915 25.4686 210.184 25.5211 210.491 25.5211C210.775 25.5211 211.03 25.473 211.257 25.3746C211.479 25.2784 211.667 25.1385 211.813 24.9592C211.959 24.7777 212.057 24.5678 212.105 24.3251H211.388C211.353 24.4716 211.255 24.5984 211.098 24.7055C210.938 24.8127 210.738 24.8673 210.491 24.8673C210.245 24.8673 210.044 24.8127 209.885 24.7055C209.728 24.5984 209.61 24.4519 209.536 24.2639C209.48 24.1236 209.445 23.9683 209.431 23.7981H212.173V23.4876C212.173 23.1793 212.108 22.8929 211.981 22.6262C211.852 22.3594 211.663 22.1429 211.407 21.9768C211.152 21.8084 210.834 21.7253 210.452 21.7253C210.157 21.7253 209.9 21.7778 209.677 21.8806C209.455 21.9833 209.272 22.1233 209.128 22.296C208.984 22.4709 208.875 22.6655 208.803 22.8842C208.729 23.1006 208.694 23.3258 208.694 23.5598V23.6844C208.694 23.9118 208.731 24.1348 208.803 24.3535C208.875 24.5721 208.984 24.7689 209.128 24.9417C209.274 25.1166 209.459 25.2565 209.688 25.3615ZM209.452 23.2756C209.471 23.1664 209.499 23.0657 209.536 22.9738C209.61 22.7902 209.723 22.6437 209.878 22.5387C210.033 22.4316 210.223 22.3791 210.452 22.3791C210.67 22.3791 210.853 22.4272 210.997 22.5212C211.143 22.6152 211.252 22.7508 211.327 22.9235C211.372 23.0287 211.403 23.1461 211.421 23.2756H209.452Z" fill="#3F4040"/>
<path d="M226.101 25.2169C231.786 25.2169 236.395 20.5973 236.395 14.8988C236.395 9.20026 231.786 4.58069 226.101 4.58069C220.416 4.58069 215.807 9.20026 215.807 14.8988C215.807 20.5973 220.416 25.2169 226.101 25.2169Z" fill="#F15822"/>
<path opacity="0.95" d="M231.295 25.8925C237.826 25.8925 243.12 24.0923 243.12 21.8716C243.12 19.6508 237.826 17.8506 231.295 17.8506C224.764 17.8506 219.469 19.6508 219.469 21.8716C219.469 24.0923 224.764 25.8925 231.295 25.8925Z" fill="url(#paint0_linear_1135_78)"/>
<defs>
<linearGradient id="paint0_linear_1135_78" x1="219.469" y1="21.8715" x2="243.119" y2="21.8715" gradientUnits="userSpaceOnUse">
<stop/>
<stop offset="1" stop-opacity="0.2"/>
</linearGradient>
<clipPath id="clip0_1135_78">
<rect width="100" height="29.3885" fill="white" transform="translate(0 0.805786)"/>
</clipPath>
</defs>
</svg>
